<?xml version="1.0" encoding="UTF-8" standalone="no"?>
<!DOCTYPE svg PUBLIC "-//W3C//DTD SVG 1.1//EN"
"http://www.w3.org/Graphics/SVG/1.1/DTD/svg11.dtd">
<svg viewBox="0 0 909 1286" version="1.1" xmlns="http://www.w3.org/2000/svg" xmlns:xlink="http://www.w3.org/1999/xlink">
<defs>
<clipPath id="c0_2"><path d="M0,1286.2V0H909.4V1286.2Z"/></clipPath>
<style type="text/css"><![CDATA[
.g0_2{
fill: #FFFFFF;
}
.g1_2{
fill: none;
stroke: #273C92;
stroke-width: 1.527;
stroke-linecap: butt;
stroke-linejoin: miter;
}
.g2_2{
fill: #FFCB05;
}
.g3_2{
fill: none;
stroke: #FFFFFF;
stroke-width: 1.527;
stroke-linecap: butt;
stroke-linejoin: miter;
}
.g4_2{
fill: #DADBDC;
}
.g5_2{
fill: none;
stroke: #273C92;
stroke-width: 3.055;
stroke-linecap: butt;
stroke-linejoin: miter;
}
.g6_2{
fill: #EA3A4D;
}
.g7_2{
fill: none;
stroke: #59B2D9;
stroke-width: 1.527;
stroke-linecap: butt;
stroke-linejoin: miter;
}
.g8_2{
fill: #E0E1E0;
}
.g9_2{
fill: #59B2D9;
}
.ga_2{
fill: #F5F6F6;
}
.gb_2{
fill: #F8A57E;
}
.gc_2{
fill: #343333;
}
.gd_2{
fill: #010101;
}
.ge_2{
fill: #FDD838;
}
.gf_2{
fill: #2B67B0;
}
.gg_2{
fill: #ED1D24;
}
.gh_2{
fill: none;
stroke: #2B67B0;
stroke-width: 0.548;
stroke-linecap: butt;
stroke-linejoin: miter;
}
.gi_2{
fill: #FCCBA7;
}
.gj_2{
fill: #1C222A;
}
.gk_2{
fill: #E0A87E;
}
.gl_2{
fill: #384553;
}
.gm_2{
fill: #BCC9D9;
}
.gn_2{
fill: #2A343E;
}
.go_2{
fill: #603913;
}
.gp_2{
fill: #FAB390;
}
.gq_2{
fill: #00628D;
}
.gr_2{
fill: #414042;
}
.gs_2{
fill: #231F20;
}
.gt_2{
fill: #FFC709;
}
.gu_2{
fill: #003E5D;
}
.gv_2{
fill: #F9A01B;
}
]]></style>
</defs>
<g clip-path="url(#c0_2)">
<path d="M913.1,1243.5H114.4c-21.4,0,-38.8,-17.4,-38.8,-38.8V1052.3c0,-21.4,17.4,-38.7,38.8,-38.7H913.1c21.4,0,38.8,17.3,38.8,38.7v152.4c0,21.4,-17.4,38.8,-38.8,38.8Z" class="g0_2"/>
<path d="M913.1,1243.5H114.4c-21.4,0,-38.8,-17.4,-38.8,-38.8V1052.3c0,-21.4,17.4,-38.7,38.8,-38.7H913.1c21.4,0,38.8,17.3,38.8,38.7v152.4c0,21.4,-17.4,38.8,-38.8,38.8Z" class="g1_2"/>
</g>
<path d="M800.2,575.7H450.8C429.3,575.7,412,558.3,412,536.9V168.6c0,-21.4,17.3,-38.7,38.8,-38.7H800.2c21.4,0,38.7,17.3,38.7,38.7V536.9c0,21.4,-17.3,38.8,-38.7,38.8Z" class="g0_2"/>
<path d="M800.2,575.7H450.8C429.3,575.7,412,558.3,412,536.9V168.6c0,-21.4,17.3,-38.7,38.8,-38.7H800.2c21.4,0,38.7,17.3,38.7,38.7V536.9c0,21.4,-17.3,38.8,-38.7,38.8Z" class="g1_2"/>
<path d="M424.1,119.1H99.9C87.7,119.1,77.8,109.2,77.8,97V60.7c0,-12.1,9.9,-22,22.1,-22H424.1c12.2,0,22.1,9.9,22.1,22V97c0,12.2,-9.9,22.1,-22.1,22.1Z" class="g2_2"/>
<path d="M424.1,119.1H99.9C87.7,119.1,77.8,109.2,77.8,97V60.7c0,-12.1,9.9,-22,22.1,-22H424.1c12.2,0,22.1,9.9,22.1,22V97c0,12.2,-9.9,22.1,-22.1,22.1Z" class="g3_2"/>
<g clip-path="url(#c0_2)">
<path d="M912.6,898.4H79.8c-12.2,0,-22.1,-9.9,-22.1,-22.1V663.2c0,-12.2,9.9,-22.1,22.1,-22.1H912.6c12.2,0,22.1,9.9,22.1,22.1V876.3c0,12.2,-9.9,22.1,-22.1,22.1Z" class="g0_2"/>
<path d="M912.6,898.4H79.8c-12.2,0,-22.1,-9.9,-22.1,-22.1V663.2c0,-12.2,9.9,-22.1,22.1,-22.1H912.6c12.2,0,22.1,9.9,22.1,22.1V876.3c0,12.2,-9.9,22.1,-22.1,22.1Z" class="g1_2"/>
</g>
<path d="M459,251.8c0,20,-16.2,36.3,-36.3,36.3c-20,0,-36.2,-16.3,-36.2,-36.3c0,-20.1,16.2,-36.3,36.2,-36.3c20.1,0,36.3,16.2,36.3,36.3Z" class="g4_2"/>
<path d="M457,248.3c0,20.1,-16.3,36.3,-36.3,36.3c-20.1,0,-36.3,-16.2,-36.3,-36.3c0,-20,16.2,-36.2,36.3,-36.2c20,0,36.3,16.2,36.3,36.2Z" class="g0_2"/>
<path d="M457,248.3c0,20.1,-16.3,36.3,-36.3,36.3c-20.1,0,-36.3,-16.2,-36.3,-36.3c0,-20,16.2,-36.2,36.3,-36.2c20,0,36.3,16.2,36.3,36.2Z" class="g5_2"/>
<path d="M443.6,241.3c-.3,-.4,-.9,-.4,-1.2,0l-.8,.7l-1,-1c.8,-.8,1.2,-1.2,1.2,-1.2c1,-1,1,-2.6,0,-3.6c-1,-1,-2.6,-1,-3.5,0c0,0,-7.7,7.6,-12.3,12.2l3.6,3.6l9.8,-9.8l1,1l-6,6.1c-.4,.3,-.4,.8,0,1.2c.3,.3,4.4,-3.3,9.2,-8c.3,-.4,.3,-.9,0,-1.2m-32.1,17c.3,0,.6,-.3,.6,-.6c.1,-2.1,.6,-4.1,1.1,-4.4c.2,.5,.3,2.1,.3,3.1c.1,2.1,.1,3.1,1,3.1c1,0,1.5,-.8,1.9,-1.5c0,0,.1,-.1,.1,-.2c.1,.1,.1,.2,.2,.3c.3,.5,1.1,1.4,2.2,1.4c.2,0,.3,0,.4,-.1l.6,-.6c1.3,.3,4.4,-1.5,7.6,-4.7c.3,-.3,.7,-.7,1.1,-1.2l-3.5,-3.5c-.5,.4,-.9,.8,-1.2,1.1c-3.2,3.2,-5,6.3,-4.7,7.7l-.3,.2c-.7,0,-.9,-.4,-1.2,-1c-.2,-.3,-.3,-.7,-.8,-1c-.8,-.4,-1.3,.5,-1.6,1c-.1,.2,-.3,.4,-.4,.6c-.1,-.5,-.1,-1.1,-.1,-1.7c-.1,-2.5,-.2,-4.4,-1.4,-4.4c-2.2,0,-2.5,4.4,-2.5,5.7c-.1,.4,.2,.6,.6,.7m6,-22.9h8.3c.2,0,.3,-.1,.3,-.3v-.7c0,-.1,-.1,-.2,-.3,-.2h-8.3c-.2,0,-.3,.1,-.3,.2v.7c0,.2,.1,.3,.3,.3m-.3,2.3c0,.1,.1,.3,.3,.3h8.3c.2,0,.3,-.2,.3,-.3V237c0,-.2,-.1,-.3,-.3,-.3h-8.3c-.2,0,-.3,.1,-.3,.3Zm5.2,11.7c0,-.1,.1,-.2,.1,-.2l1.1,-1.1H411.1c-.1,0,-.2,.1,-.2,.3v.7c0,.1,.1,.3,.2,.3Zm7.5,12c0,.4,-.3,.7,-.6,.7H407.7c-.4,0,-.7,-.3,-.7,-.7V238h3.9c1.4,0,2.5,-1.2,2.5,-2.6v-3.8h15.9c.3,0,.6,.3,.6,.6v9.6l2.5,-2.5v-7.7c0,-1.4,-1.1,-2.5,-2.5,-2.5H413.2c-.7,0,-1.3,.2,-1.8,.7l-6.1,6.1c-.5,.5,-.8,1.2,-.8,1.8v24.4c0,1.4,1.1,2.5,2.5,2.5h22.9c1.4,0,2.5,-1.1,2.5,-2.5V251.9l-2.5,2.5ZM411.1,245.6c-.1,0,-.2,.1,-.2,.3v.7c0,.1,.1,.2,.2,.2h13.8l1.2,-1.2Zm0,-2.6h14.7c.2,0,.3,.2,.3,.3v.7c0,.2,-.1,.3,-.3,.3H411.1c-.1,0,-.2,-.1,-.2,-.3v-.7c0,-.1,.1,-.3,.2,-.3Z" class="g6_2"/>
<path d="M359.4,423.1c-.5,-.5,-1.3,-.5,-1.8,0l-1.1,1.1l-1.6,-1.5c1.2,-1.1,1.9,-1.9,1.9,-1.9c1.5,-1.4,1.5,-3.9,0,-5.3c-1.5,-1.5,-3.9,-1.5,-5.4,0c0,0,-11.5,11.4,-18.3,18.3l5.4,5.3c4.4,-4.3,10.7,-10.6,14.6,-14.6l1.6,1.5l-9.1,9.1c-.5,.5,-.5,1.3,0,1.8c.5,.5,6.7,-4.9,13.8,-12c.5,-.5,.5,-1.3,0,-1.8m-48.2,25.5c.6,0,1,-.4,1,-.9c.2,-3.1,.9,-6,1.7,-6.6c.3,.9,.4,3.3,.4,4.6c.2,3.3,.2,4.8,1.5,4.8c1.4,0,2.2,-1.3,2.8,-2.2c.1,-.1,.2,-.3,.3,-.4c0,.1,.1,.3,.2,.4c.4,.8,1.7,2.2,3.4,2.2c.1,0,.3,-.1,.5,-.2l.8,-.9c2.1,.5,6.7,-2.3,11.5,-7c.5,-.5,1,-1.1,1.7,-1.8l-5.4,-5.4c-.6,.7,-1.2,1.3,-1.7,1.8c-4.8,4.7,-7.5,9.4,-7.1,11.4l-.3,.4c-1.1,0,-1.5,-.6,-2,-1.4c-.3,-.6,-.4,-1.2,-1,-1.5c-1.2,-.7,-2,.6,-2.5,1.4c-.2,.3,-.4,.6,-.6,.9c-.1,-.7,-.1,-1.7,-.2,-2.5c-.1,-3.9,-.2,-6.6,-2,-6.6c-3.3,0,-3.8,6.5,-3.9,8.5c0,.5,.4,1,.9,1m9.1,-34.3h12.4c.3,0,.5,-.1,.5,-.4v-1c0,-.3,-.2,-.5,-.5,-.5H320.3c-.3,0,-.5,.2,-.5,.5v1c0,.3,.2,.4,.5,.4m-.5,3.4c0,.3,.2,.5,.5,.5h12.4c.3,0,.5,-.2,.5,-.5v-1c0,-.3,-.2,-.4,-.5,-.4H320.3c-.3,0,-.5,.1,-.5,.4Zm7.8,17.6c.1,-.1,.2,-.2,.3,-.3l1.6,-1.6H310.8c-.3,0,-.5,.2,-.5,.4v1c0,.3,.2,.5,.5,.5Zm11.3,18.1c0,.5,-.5,.9,-1,.9H305.6c-.5,0,-1,-.4,-1,-.9V418.2h5.7c2.1,0,3.8,-1.8,3.8,-3.9v-5.7h23.8c.5,0,1,.5,1,1V424l3.8,-3.8V408.6c0,-2.1,-1.7,-3.8,-3.8,-3.8H313.8c-1,0,-2,.4,-2.7,1.1l-9.2,9.2c-.7,.7,-1.1,1.7,-1.1,2.7v36.5c0,2.1,1.7,3.8,3.8,3.8h34.3c2.1,0,3.8,-1.7,3.8,-3.8V439l-3.8,3.8ZM310.8,429.6c-.3,0,-.5,.2,-.5,.4v1c0,.3,.2,.5,.5,.5h20.6l1.9,-1.9Zm0,-3.8h21.9c.3,0,.5,.2,.5,.4v1c0,.3,-.2,.5,-.5,.5H310.8c-.3,0,-.5,-.2,-.5,-.5v-1c0,-.2,.2,-.4,.5,-.4Z" class="g6_2"/>
<path d="M335.4,333h-221C93,333,75.6,315.6,75.6,294.2V205.7c0,-21.4,17.4,-38.8,38.8,-38.8h221c21.4,0,38.8,17.4,38.8,38.8v88.5c0,21.4,-17.4,38.8,-38.8,38.8Z" class="g0_2"/>
<path d="M335.4,333h-221C93,333,75.6,315.6,75.6,294.2V205.7c0,-21.4,17.4,-38.8,38.8,-38.8h221c21.4,0,38.8,17.4,38.8,38.8v88.5c0,21.4,-17.4,38.8,-38.8,38.8Z" class="g1_2"/>
<path d="M115.7,251.8c0,20,-16.3,36.3,-36.3,36.3c-20.1,0,-36.3,-16.3,-36.3,-36.3c0,-20.1,16.2,-36.3,36.3,-36.3c20,0,36.3,16.2,36.3,36.3Z" class="g4_2"/>
<path d="M113.6,248.3c0,20.1,-16.2,36.3,-36.3,36.3C57.3,284.6,41,268.4,41,248.3c0,-20,16.3,-36.2,36.3,-36.2c20.1,0,36.3,16.2,36.3,36.2Z" class="g0_2"/>
<path d="M113.6,248.3c0,20.1,-16.2,36.3,-36.3,36.3C57.3,284.6,41,268.4,41,248.3c0,-20,16.3,-36.2,36.3,-36.2c20.1,0,36.3,16.2,36.3,36.2Z" class="g5_2"/>
<path d="M75.7,255.4H67c-.2,0,-.3,.1,-.3,.3v.7c0,.2,.1,.3,.3,.3h8.7c.2,0,.3,-.1,.3,-.3v-.7c0,-.2,-.1,-.3,-.3,-.3m7,-21c0,-.2,-.2,-.3,-.3,-.3H75c-.2,0,-.3,.1,-.3,.3v.7c0,.1,.1,.3,.3,.3h7.4c.1,0,.3,-.2,.3,-.3Zm-16,16.7c0,.1,.1,.3,.3,.3H85c.2,0,.3,-.2,.3,-.3v-.8c0,-.1,-.1,-.3,-.3,-.3H67c-.2,0,-.3,.2,-.3,.3Zm0,-2.7c0,.2,.1,.3,.3,.3H85c.2,0,.3,-.1,.3,-.3v-.7c0,-.2,-.1,-.3,-.3,-.3H67c-.2,0,-.3,.1,-.3,.3Zm18.6,9C85.3,255.5,83.8,254,82,254c-1.8,0,-3.3,1.5,-3.3,3.4c0,1,.5,2,1.3,2.6l-1.3,7c0,.1,0,.2,.1,.3c0,.1,.2,.1,.2,0l3,-1.1l3,1.1c0,.1,.1,.1,.2,0c.1,-.1,.1,-.2,.1,-.3L84,260c.8,-.6,1.3,-1.6,1.3,-2.6m2.7,-30H70.4c-.7,0,-1.3,.3,-1.8,.8l-6.5,6.4c-.5,.5,-.8,1.2,-.8,1.9v24.2c0,1.5,1.2,2.7,2.7,2.7H77.2l.5,-2.7h-13c-.4,0,-.7,-.3,-.7,-.7V236.7h4c1.5,0,2.7,-1.2,2.7,-2.7v-3.9H87.3c.4,0,.7,.3,.7,.6V260c0,.4,-.3,.7,-.7,.7h-1l.5,2.7H88c1.5,0,2.7,-1.2,2.7,-2.7V230.1c0,-1.5,-1.2,-2.7,-2.7,-2.7m-21,12H85c.2,0,.3,.1,.3,.3v.7c0,.2,-.1,.3,-.3,.3H67c-.2,0,-.3,-.1,-.3,-.3v-.7c0,-.2,.1,-.3,.3,-.3m0,2.6H85c.2,0,.3,.2,.3,.3v.8c0,.1,-.1,.3,-.3,.3H67c-.2,0,-.3,-.2,-.3,-.3v-.8c0,-.1,.1,-.3,.3,-.3m0,2.7H85c.2,0,.3,.1,.3,.3v.7c0,.2,-.1,.3,-.3,.3H67c-.2,0,-.3,-.1,-.3,-.3V245c0,-.2,.1,-.3,.3,-.3Z" class="g6_2"/>
<path d="M725.6,668.1H99.9C87.7,668.1,77.8,658.2,77.8,646V609.8c0,-12.2,9.9,-22.1,22.1,-22.1H725.6c12.2,0,22.1,9.9,22.1,22.1V646c0,12.2,-9.9,22.1,-22.1,22.1Z" class="g2_2"/>
<path d="M725.6,668.1H99.9C87.7,668.1,77.8,658.2,77.8,646V609.8c0,-12.2,9.9,-22.1,22.1,-22.1H725.6c12.2,0,22.1,9.9,22.1,22.1V646c0,12.2,-9.9,22.1,-22.1,22.1Z" class="g3_2"/>
<path d="M725.6,996.1H99.9C87.7,996.1,77.8,986.2,77.8,974V937.8c0,-12.2,9.9,-22.1,22.1,-22.1H725.6c12.2,0,22.1,9.9,22.1,22.1V974c0,12.2,-9.9,22.1,-22.1,22.1Z" class="g2_2"/>
<path d="M725.6,996.1H99.9C87.7,996.1,77.8,986.2,77.8,974V937.8c0,-12.2,9.9,-22.1,22.1,-22.1H725.6c12.2,0,22.1,9.9,22.1,22.1V974c0,12.2,-9.9,22.1,-22.1,22.1Z" class="g3_2"/>
<path d="M263,746.7H175.9c-3,0,-5.4,-2.4,-5.4,-5.4V703.1c0,-2.9,2.4,-5.4,5.4,-5.4H263c3,0,5.4,2.5,5.4,5.4v38.2c0,3,-2.4,5.4,-5.4,5.4Z" class="g0_2"/>
<path d="M263,746.7H175.9c-3,0,-5.4,-2.4,-5.4,-5.4V703.1c0,-2.9,2.4,-5.4,5.4,-5.4H263c3,0,5.4,2.5,5.4,5.4v38.2c0,3,-2.4,5.4,-5.4,5.4Z" class="g7_2"/>
<path d="M218.3,714.3l41.7,-.1v4.9l-41.7,.1Z" class="g8_2"/>
<path d="M222,726.5h34.4v4.9H222Z" class="g9_2"/>
<g clip-path="url(#c0_2)" opacity="0.5">
<image preserveAspectRatio="none" x="179" y="707" width="32" height="32" xlink:href="img/1.png"/>
</g>
<path d="M179.2,721.5c0,-8.8,7.1,-15.9,15.9,-15.9c8.7,0,15.9,7.1,15.9,15.9c0,8.7,-7.1,15.8,-15.9,15.9c-8.7,0,-15.9,-7.1,-15.9,-15.9Z" class="ga_2"/>
<path d="M188.7,727.7c0,0,-3.7,.4,-2.7,7.2c.5,.5,1.1,.9,1.8,1.2l2.1,-7.2Z" class="gb_2"/>
<path d="M201,727.7c0,0,3.8,.3,2.8,7.2c-.5,.5,-1.1,.9,-1.8,1.2l-2.1,-7.2Z" class="gb_2"/>
<path d="M188.9,716.5c0,0,-1.8,5.2,-2.8,4.7c0,0,9.5,8.2,17.8,0c-1,-1.7,-2.2,-3.3,-3.6,-4.8Z" class="gc_2"/>
<path d="M187.9,716c0,-3.9,3.2,-7.1,7.1,-7.1c3.8,0,7,3.2,7,7.1c0,3.8,-3.1,7,-7,7c-3.9,0,-7.1,-3.1,-7.1,-7Z" class="gc_2"/>
<g clip-path="url(#c0_2)">
<g opacity="0.1">
<path d="M200.9,727.7H188.7l-1.2,5c0,0,-.6,2.2,.2,3.2c.8,1,8.7,3.3,14.4,.2c.5,-1.3,.6,-2.8,.2,-4.1c-.7,-2.3,-.2,-.2,-.2,-.2Z" class="gd_2"/>
</g>
<g opacity="0.1">
<path d="M201.1,727.7l-12.3,.1l-1.1,4.9c0,0,-.7,2.2,.2,3.2c.8,1,8.6,3.3,14.4,.2c.5,-1.3,.5,-2.8,.1,-4.1c-.6,-2.3,-.1,-.2,-.1,-.2Z" class="gd_2"/>
</g>
</g>
<path d="M201,727.7H188.7l-1.1,5c0,0,-.7,2.2,.2,3.2c.8,1,8.6,3.3,14.4,.2c.5,-1.3,.5,-2.8,.1,-4.1c-.6,-2.3,-.1,-.2,-.1,-.2Z" class="ge_2"/>
<g clip-path="url(#c0_2)" opacity="0.1">
<path d="M192.5,723.7h4.9v4.4c0,1.1,-.9,2,-1.9,2h-1c-1.1,0,-2,-.9,-2,-2v-4.4Z" class="gd_2"/>
</g>
<path d="M192.5,723.5h4.9v4.4c0,1.1,-.9,2,-1.9,2h-1c-1.1,0,-2,-.9,-2,-2Z" class="gb_2"/>
<g clip-path="url(#c0_2)" opacity="0.1">
<path d="M192.5,724.2c1.6,.6,3.3,.6,4.9,0v-.6h-4.9Z" class="gd_2"/>
</g>
<path d="M187.9,717.5c0,-3.9,3.2,-7,7.1,-7c3.8,0,7,3.1,7,7c0,3.9,-3.1,7,-7,7c-3.9,0,-7.1,-3.1,-7.1,-7Z" class="gb_2"/>
<path d="M188.2,714.8h13.4c0,0,-1.1,-5.4,-6.2,-5.1c-5.1,.4,-7.2,5.1,-7.2,5.1Z" class="gc_2"/>
<path d="M187.4,717.2c0,-.7,.3,-1.2,.7,-1.2c.3,0,.6,.5,.6,1.2c0,.7,-.3,1.2,-.6,1.2c-.4,0,-.7,-.5,-.7,-1.2Z" class="gb_2"/>
<path d="M201.2,717.2c0,-.7,.3,-1.2,.6,-1.2c.4,0,.7,.5,.7,1.2c0,.7,-.3,1.2,-.7,1.2c-.3,0,-.6,-.5,-.6,-1.2Z" class="gb_2"/>
<g clip-path="url(#c0_2)" opacity="0.1">
<path d="M188.2,715h13.5c0,0,-1.2,-5.4,-6.3,-5.1c-5,.4,-7.2,5.1,-7.2,5.1Z" class="gd_2"/>
</g>
<path d="M762.1,746.7H675c-3,0,-5.4,-2.4,-5.4,-5.4V703.1c0,-2.9,2.4,-5.4,5.4,-5.4h87.1c3,0,5.4,2.5,5.4,5.4v38.2c0,3,-2.4,5.4,-5.4,5.4Z" class="g0_2"/>
<path d="M762.1,746.7H675c-3,0,-5.4,-2.4,-5.4,-5.4V703.1c0,-2.9,2.4,-5.4,5.4,-5.4h87.1c3,0,5.4,2.5,5.4,5.4v38.2c0,3,-2.4,5.4,-5.4,5.4Z" class="g7_2"/>
<path d="M719.6,725.9v-7.7c.4,-.1,.7,-.1,1,-.1c2.5,-.2,5,-.7,7.4,-1.2c1.7,-.3,3.2,-.2,4.7,.6c1,.5,2,1.1,3,1.7q.1,0,.1,0c-.1,.4,-.3,.7,-.5,1c-.2,.4,-.4,.8,-.7,1.3c0,0,-.1,.1,-.2,.1c-.5,.2,-1.1,.2,-1.7,.1c0,0,-.1,-.1,-.1,-.2c-.2,-.6,-.5,-1.1,-1,-1.6q0,-.1,-.1,-.1q0,-.1,0,0c.2,.5,.3,1,.5,1.5c-1.3,0,-2.5,-.5,-3.6,-.9c1.2,.9,2.5,1.6,3.9,1.8c1.2,.1,2.3,0,3.4,-.1c.5,0,1.1,-.1,1.7,-.1c.7,0,1.5,.4,1.7,1.2c.1,.7,-.1,1.2,-.6,1.7c-.4,.4,-.9,.5,-1.5,.6c-1,.2,-2,.2,-3,.2c-.8,-.1,-1.6,-.1,-2.3,-.1c-1.2,.1,-2.2,.4,-3.3,.7c-1,.3,-2.1,.6,-3.1,.8c-1.7,.3,-3.2,0,-4.5,-1.1c-.1,-.1,-.2,-.1,-.3,-.1c-.3,0,-.6,0,-.9,0Z" class="g9_2"/>
<path d="M710.5,716.9H717v10.6h-6.5V716.9Z" class="g9_2"/>
<path d="M743.3,718.7c.1,0,.1,-.1,.2,-.1c.1,-.2,.2,-.4,.3,-.6c.6,-1,1.2,-2.1,1.8,-3.2c.1,-.1,.1,-.3,-.1,-.3c-.1,-.1,-.2,0,-.3,.1c0,0,-.1,.1,-.1,.1c-.6,1.2,-1.3,2.4,-2,3.5c0,.1,-.1,.2,-.1,.2c0,.2,.1,.3,.3,.3m-3.3,6c-.1,-.1,-.1,-.2,-.2,-.2c-.1,0,-.2,0,-.3,.1c-.2,.4,-.5,.8,-.7,1.3c-.5,.8,-.9,1.6,-1.4,2.4c-.1,.2,0,.4,.1,.4c.2,.1,.3,0,.4,-.2c.6,-1.2,1.3,-2.4,2,-3.6c0,-.1,.1,-.1,.1,-.2m2.3,-6.5c.1,-.1,.2,-.1,.2,-.2c.4,-.7,.8,-1.3,1.1,-2c.4,-.6,.7,-1.1,1,-1.7c.1,-.2,.1,-.3,-.1,-.4c-.1,-.1,-.2,0,-.3,.1c-.4,.7,-.8,1.4,-1.1,2c-.4,.6,-.7,1.2,-1,1.7c-.1,.3,0,.5,.2,.5m-4.9,7.7c-.2,.5,-.5,1.1,-.8,1.6c-.1,.1,-.1,.2,-.2,.3c-.1,.1,-.1,.3,.1,.4c.1,0,.3,0,.3,-.2c.4,-.6,.7,-1.2,1.1,-1.8c.1,-.3,.3,-.6,.7,-.8c.6,-.4,1,-1.1,1,-1.9c1,.5,1.9,.5,2.9,-.1c.6,-.4,.9,-1,1,-1.7c.2,-1.5,-.8,-2.8,-2.3,-2.9c-1.5,-.2,-3,1.2,-2.7,3c-.3,-.1,-.5,-.2,-.7,-.2c-.2,-.1,-.4,-.1,-.7,-.1c1.5,-2.7,3,-5.4,4.6,-8.1c.4,.2,.8,.3,1.2,.2c.5,-.2,.8,-.4,1.1,-.8c.9,.5,1.8,1,2.8,1.6c-.4,.9,-.2,1.7,.6,2.3c-2.3,4.1,-4.7,8.3,-7,12.5c-1,-.4,-1.8,-.2,-2.4,.6c-.9,-.5,-1.8,-1,-2.8,-1.6c.4,-.7,.3,-1.4,-.3,-2c.8,-.1,1.7,-.2,2.5,-.3Z" class="ge_2"/>
<path d="M740.1,732.7c-2.8,-1.6,-5.6,-3.2,-8.3,-4.8c.1,-.2,.2,-.4,.4,-.7c.2,-.3,.3,-.6,.5,-1c.1,0,.2,-.1,.3,-.1c.2,0,.4,0,.7,0c-.4,.5,-.6,1.1,-.9,1.6c2.3,1.3,4.6,2.6,7,4c3.1,-5.6,6.3,-11.2,9.5,-16.8c-2.4,-1.3,-4.7,-2.6,-7.1,-4c-.2,.4,-.4,.8,-.6,1.2c-1.8,3.1,-3.5,6.2,-5.3,9.3c-.1,.1,-.1,.2,-.3,.2c-.2,0,-.4,.1,-.7,.1c2.2,-3.9,4.4,-7.8,6.6,-11.7c2.8,1.5,5.6,3.1,8.4,4.7c-3.4,6,-6.8,11.9,-10.2,18Z" class="ge_2"/>
<path d="M719.1,726.8h-1.6v-9.2h1.6v9.2Z" class="g9_2"/>
<path d="M739.9,720.8c-.1,.2,-.1,.4,.1,.5c.2,.1,.4,.1,.6,-.1c-.2,-.1,-.5,-.3,-.7,-.4m2.2,1c.1,-.3,0,-.5,-.3,-.6c-.2,-.1,-.4,-.1,-.5,.2c.2,.1,.5,.3,.8,.4m-1.8,-1.5c-.1,.1,-.2,.2,-.3,.3c.2,.1,.5,.3,.8,.4c.1,-.1,.2,-.2,.3,-.2c.4,-.3,.7,-.3,1,-.1c.3,.2,.3,.5,.2,.9c0,.1,0,.2,-.1,.3c.1,.1,.3,.1,.4,.2q-.1,.1,-.1,.2c-.1,-.1,-.2,-.1,-.3,-.2c-.2,.2,-.3,.3,-.4,.4c-.2,.1,-.5,.2,-.7,.1c-.1,-.1,-.2,-.2,-.2,-.3c0,-.1,.1,-.2,.2,-.2c.1,-.1,.2,0,.3,.1c0,0,.1,.1,.1,.2c.2,-.1,.3,-.2,.5,-.4c-.3,-.2,-.6,-.3,-.9,-.5c-.4,.3,-.7,.7,-1.2,.3c-.4,-.3,-.4,-.7,-.2,-1.1c-.1,-.1,-.2,-.1,-.3,-.2q.1,-.1,.1,-.2c.1,.1,.2,.1,.3,.2c.1,-.2,.2,-.3,.3,-.4c.2,-.1,.4,-.1,.6,0c.1,0,.2,.1,.2,.2c0,.1,-.1,.2,-.1,.2c-.1,0,-.3,0,-.4,0c0,-.1,-.1,-.1,-.1,-.2Z" class="ge_2"/>
<path d="M696.9,730.9h-8.1c-.2,0,-.3,.1,-.3,.3v.7c0,.1,.1,.3,.3,.3h8.1c.2,0,.3,-.2,.3,-.3v-.7c0,-.2,-.1,-.3,-.3,-.3m6.6,-19.6c0,-.2,-.2,-.3,-.3,-.3h-6.9c-.2,0,-.3,.1,-.3,.3v.6c0,.2,.1,.3,.3,.3h6.9c.1,0,.3,-.1,.3,-.3Zm-15,15.6c0,.1,.1,.3,.3,.3h16.9c.1,0,.3,-.2,.3,-.3v-.7c0,-.1,-.2,-.3,-.3,-.3H688.8c-.2,0,-.3,.2,-.3,.3Zm0,-2.5c0,.2,.1,.3,.3,.3h16.9c.1,0,.3,-.1,.3,-.3v-.7c0,-.1,-.2,-.3,-.3,-.3H688.8c-.2,0,-.3,.2,-.3,.3Zm17.5,8.4c0,-1.7,-1.4,-3.1,-3.2,-3.1c-1.7,0,-3.1,1.4,-3.1,3.1c0,1,.5,1.9,1.2,2.4l-1.2,6.6c0,.1,0,.2,.1,.3c.1,0,.2,0,.3,0l2.7,-1.1l2.8,1.1c.1,0,.2,0,.3,0c0,-.1,.1,-.2,0,-.3l-1.2,-6.6c.8,-.5,1.3,-1.4,1.3,-2.4m2.4,-28H692c-.6,0,-1.3,.2,-1.7,.7l-6,6c-.5,.5,-.8,1.1,-.8,1.8v22.6c0,1.4,1.1,2.5,2.5,2.5h12.4l.4,-2.5H686.6c-.3,0,-.6,-.3,-.6,-.6V713.5h3.8c1.3,0,2.5,-1.1,2.5,-2.5v-3.8h15.5c.4,0,.6,.3,.6,.7v27.4c0,.3,-.2,.6,-.6,.6h-.9l.4,2.5h1.1c1.4,0,2.5,-1.1,2.5,-2.5V707.2c0,-1.3,-1.1,-2.4,-2.5,-2.4M688.8,716h16.9c.1,0,.3,.1,.3,.3v.6c0,.2,-.2,.3,-.3,.3H688.8c-.2,0,-.3,-.1,-.3,-.3v-.6c0,-.2,.1,-.3,.3,-.3m0,2.5h16.9c.1,0,.3,.1,.3,.2v.7c0,.2,-.2,.3,-.3,.3H688.8c-.2,0,-.3,-.1,-.3,-.3v-.7c0,-.1,.1,-.2,.3,-.2m0,2.4h16.9c.1,0,.3,.2,.3,.3v.7c0,.2,-.2,.3,-.3,.3H688.8c-.2,0,-.3,-.1,-.3,-.3v-.7c0,-.1,.1,-.3,.3,-.3Z" class="ge_2"/>
<path d="M620.9,1078.6c0,13.5,-11,24.5,-24.6,24.5c-13.6,0,-24.6,-11,-24.6,-24.5c0,-13.6,11,-24.6,24.6,-24.6c13.6,0,24.6,11,24.6,24.6Z" class="gf_2"/>
<path d="M726.4,1025.1c0,13.6,-11,24.6,-24.6,24.6c-13.5,0,-24.5,-11,-24.5,-24.6c0,-13.5,11,-24.5,24.5,-24.5c13.6,0,24.6,11,24.6,24.5Z" class="gf_2"/>
<path d="M701,1168.4H681c-.4,0,-.7,.3,-.7,.7v1.6c0,.4,.3,.7,.7,.7h20c.4,0,.7,-.3,.7,-.7v-1.6c0,-.4,-.3,-.7,-.7,-.7m16,-48.2c0,-.4,-.3,-.7,-.7,-.7h-17c-.3,0,-.7,.3,-.7,.7v1.6c0,.4,.4,.7,.7,.7h17c.4,0,.7,-.3,.7,-.7Zm-36.7,38.3c0,.4,.3,.7,.7,.7h41.4c.4,0,.7,-.3,.7,-.7v-1.6c0,-.4,-.3,-.7,-.7,-.7H681c-.4,0,-.7,.3,-.7,.7Zm0,-6.1c0,.4,.3,.7,.7,.7h41.4c.4,0,.7,-.3,.7,-.7v-1.7c0,-.4,-.3,-.7,-.7,-.7H681c-.4,0,-.7,.3,-.7,.7Zm42.8,20.6c0,-4.3,-3.4,-7.7,-7.6,-7.7c-4.3,0,-7.7,3.4,-7.7,7.7c0,2.4,1.2,4.6,3,6l-3,16.2c0,.2,.1,.4,.3,.6c.1,.1,.4,.1,.6,.1l6.8,-2.7l6.7,2.7c.3,0,.5,0,.7,-.1c.2,-.2,.2,-.4,.2,-.6l-3,-16.2c1.8,-1.4,3,-3.6,3,-6m6.1,-68.8H688.9c-1.6,0,-3.1,.6,-4.3,1.8l-14.7,14.7c-1.2,1.2,-1.8,2.7,-1.8,4.3v55.6c0,3.4,2.7,6.1,6.1,6.1h30.3l1.1,-6.1H675.7c-.8,0,-1.5,-.7,-1.5,-1.5v-53.5h9.2c3.3,0,6.1,-2.8,6.1,-6.2v-9.1h38.2c.8,0,1.5,.7,1.5,1.5v67.3c0,.8,-.7,1.5,-1.5,1.5h-2.3l1.1,6.1h2.7c3.4,0,6.1,-2.7,6.1,-6.1v-70.3c0,-3.4,-2.7,-6.1,-6.1,-6.1M681,1131.7h41.4c.4,0,.7,.3,.7,.7v1.6c0,.4,-.3,.7,-.7,.7H681c-.4,0,-.7,-.3,-.7,-.7v-1.6c0,-.4,.3,-.7,.7,-.7m0,6.1h41.4c.4,0,.7,.3,.7,.7v1.7c0,.3,-.3,.7,-.7,.7H681c-.4,0,-.7,-.4,-.7,-.7v-1.7c0,-.4,.3,-.7,.7,-.7m0,6.1h41.4c.4,0,.7,.3,.7,.7v1.7c0,.4,-.3,.7,-.7,.7H681c-.4,0,-.7,-.3,-.7,-.7v-1.7c0,-.4,.3,-.7,.7,-.7Z" class="gf_2"/>
<path d="M614.8,1192.2c0,13.5,-11,24.5,-24.6,24.5c-13.6,0,-24.6,-11,-24.6,-24.5c0,-13.6,11,-24.6,24.6,-24.6c13.6,0,24.6,11,24.6,24.6Z" class="gf_2"/>
<path d="M607.9,1187.1c-1.8,1.6,-3.6,3.2,-5.3,4.9c-3.6,-3.9,-7.1,-7.7,-10.7,-11.6c1.8,-1.6,3.6,-3.2,5.4,-4.9c3.5,3.9,7,7.7,10.6,11.6Z" class="g0_2"/>
<path d="M586.3,1196.4c.7,0,1.3,-.5,1.3,-1.2c0,-.7,-.6,-1.3,-1.3,-1.3c-.7,0,-1.3,.6,-1.3,1.3c0,.7,.6,1.2,1.3,1.2m.7,2.2c-.3,-1.2,-.9,-1.6,-2.1,-1.6c-.1,-.5,-.3,-.9,-.7,-1.2c-.4,-.4,-.9,-.5,-1.5,-.4c-.1,-.7,-.4,-1.3,-1.1,-1.5c-.7,-.3,-1.4,0,-1.9,.5c-.4,-.4,-.8,-.7,-1.1,-1c-.1,-.1,-.1,-.2,-.1,-.3c.4,-1,.4,-1.9,0,-2.8c-.1,-.2,-.1,-.3,0,-.4c.6,-.6,1.2,-1.1,1.7,-1.7c.1,-.1,.3,-.1,.4,-.1c.7,.3,1.5,.3,2.5,.1c-.3,.2,-.5,.5,-.7,.7c-.2,.2,-.4,.4,-.7,.6c1.3,2.2,3.6,3,5.7,2.5c.2,-.1,.3,-.1,.5,.1c1.9,1.8,3.9,3.7,5.8,5.5c.2,.1,.2,.2,.1,.4c-.3,.9,-.3,1.8,.1,2.7c.1,.2,.1,.3,0,.4c-.5,.5,-1,1.1,-1.5,1.6c-.1,.1,-.2,.1,-.4,.1c-.9,-.4,-1.8,-.3,-2.7,.1c-.1,0,-.2,0,-.3,-.1c-.3,-.2,-.5,-.4,-.8,-.7c.2,-.2,.3,-.5,.5,-.7c.5,-.6,.6,-1.2,.2,-1.9c-.4,-.7,-1,-.9,-1.7,-.9q-.1,0,-.2,0Z" class="g0_2"/>
<path d="M590.3,1188.9c-.7,.6,-1.3,1.1,-2,1.5c-1.6,1.2,-3.7,.9,-5,-.5c-.1,-.1,-.1,-.2,-.2,-.3c.8,-.8,1.6,-1.6,2.4,-2.5c.4,-.3,.8,-.6,1.1,-1c.5,-.6,1.1,-1.1,1.8,-1.4c2.1,-1.1,4.7,-.5,6.2,1.3c.6,.8,1.3,1.6,1.9,2.4c1,1.5,.9,3.6,-.4,5c-.2,.2,-.4,.5,-.6,.7c-1.8,-1.8,-3.4,-3.5,-5.2,-5.2Z" class="g0_2"/>
<path d="M590.2,1190.3c3.1,2.9,6.2,5.9,9.3,8.8c-2.9,3,-5.7,5.9,-8.6,8.9c-1.4,-1.4,-2.7,-2.7,-4.1,-4c.2,-.3,.5,-.7,.7,-1c.6,.4,1,.9,1.5,1.3c1.1,-.9,2.2,-.9,3.4,-.1c1,-1.1,2,-2.1,3,-3.2c-.4,-.5,-.7,-1,-.7,-1.6c-.1,-.7,.2,-1.2,.6,-1.8c-2.2,-2,-4.4,-4.1,-6.6,-6.2c.5,-.4,1,-.7,1.5,-1.1Z" class="g0_2"/>
<path d="M573.5,1191.8c2.8,-2.9,5.5,-5.8,8.2,-8.6c1.1,1,2.2,1.9,3.3,2.9c-.3,.4,-.6,.6,-.9,1c-.2,-.2,-.3,-.3,-.5,-.5c-.5,.4,-1,.7,-1.7,.7c-.6,0,-1.1,-.2,-1.6,-.6c-1.1,1.1,-2.2,2.2,-3.3,3.2c.9,1.1,1,2.4,.1,3.5c.7,.6,1.3,1.3,2,1.9c-.2,.3,-.5,.7,-.7,1.1c-1.6,-1.6,-3.2,-3.1,-4.9,-4.6Z" class="g0_2"/>
<path d="M586.3,1198.7c0,.2,-.1,.4,-.2,.5c-.8,1.1,-1.6,2.1,-2.4,3.2c-.2,.3,-.5,.5,-.9,.4c-.4,0,-.7,-.3,-.8,-.6c-.2,-.4,-.1,-.7,.1,-1c.8,-1.1,1.6,-2.1,2.4,-3.1c.2,-.4,.7,-.5,1.1,-.4c.3,.1,.7,.6,.7,1Z" class="g0_2"/>
<path d="M588.4,1200.4c0,.1,-.1,.3,-.2,.5c-.8,1.1,-1.6,2.1,-2.4,3.2c-.2,.3,-.5,.4,-.9,.4c-.4,0,-.7,-.3,-.8,-.7c-.2,-.3,-.1,-.6,.1,-.9c.8,-1.1,1.6,-2.1,2.4,-3.2c.2,-.3,.7,-.4,1.1,-.3c.3,.1,.7,.5,.7,1Z" class="g0_2"/>
<path d="M578.7,1199.7c-.4,-.1,-.7,-.3,-.9,-.6c-.2,-.4,-.2,-.7,0,-1.1c.8,-1.1,1.6,-2.1,2.4,-3.2c.3,-.4,.9,-.4,1.3,-.2c.4,.2,.6,.6,.5,1.1c0,.1,0,.2,-.1,.2c-.8,1.2,-1.7,2.3,-2.6,3.4c-.1,.2,-.4,.3,-.6,.4Z" class="g0_2"/>
<path d="M580.9,1201.3c-.5,-.1,-.8,-.3,-1,-.6c-.2,-.4,-.1,-.8,.1,-1.2c.5,-.6,1,-1.3,1.5,-2c.3,-.3,.6,-.7,.9,-1.1c.2,-.3,.6,-.4,1,-.3c.5,.1,.7,.4,.8,.9c0,.2,-.1,.4,-.2,.5c-.8,1.2,-1.7,2.3,-2.6,3.4c-.1,.2,-.3,.3,-.5,.4Z" class="g0_2"/>
<path d="M573.5,1193.9c.3,-.3,.5,-.5,.8,-.8c1.3,1.2,2.5,2.4,3.8,3.5c-.2,.3,-.4,.6,-.6,.9c-1.3,-1.2,-2.6,-2.4,-4,-3.6Z" class="g0_2"/>
<path d="M838.1,1191.6c0,13.6,-11,24.6,-24.6,24.6c-13.5,0,-24.5,-11,-24.5,-24.6c0,-13.6,11,-24.6,24.5,-24.6c13.6,0,24.6,11,24.6,24.6Z" class="gf_2"/>
<path d="M806.3,1178.9c.6,.1,1.1,.3,1.7,.6c.7,.4,1.3,.9,1.8,1.6c.2,.4,0,.8,-.4,1c-.4,.1,-.8,.2,-1.3,.4c-1.7,.6,-3.1,1.7,-4.3,3.1c-.2,.3,-.4,.5,-.6,.8c-.3,.5,-.8,.5,-1.2,0c-.4,-.7,-.7,-1.4,-.8,-2.2c0,0,-.1,-.1,-.1,-.1v-.9c0,-.1,.1,-.2,.1,-.2c.2,-1.9,1.6,-3.4,3.4,-3.9c.2,-.1,.4,-.1,.7,-.2Z" class="g0_2"/>
<path d="M820.6,1178.9c.2,.1,.5,.1,.7,.2c1.8,.5,3.2,2.1,3.4,3.9c.2,1.2,-.1,2.3,-.8,3.4c-.4,.4,-.9,.4,-1.2,0c-.6,-.9,-1.3,-1.6,-2.1,-2.3c-1.2,-.9,-2.5,-1.6,-4,-2c-.6,-.2,-.8,-.6,-.4,-1.1c.1,-.2,.2,-.3,.3,-.4c.8,-.9,1.8,-1.5,3,-1.6c0,0,.1,-.1,.1,-.1Z" class="g0_2"/>
<path d="M813,1200.7c4.1,0,7.4,-3.4,7.4,-7.5c0,-4,-3.4,-7.4,-7.4,-7.4c-4.1,.1,-7.5,3.4,-7.4,7.5c0,4.1,3.3,7.4,7.4,7.4m4.9,1.6c-1.6,.9,-3.2,1.3,-4.9,1.3c-1.8,0,-3.4,-.4,-4.9,-1.3c-.3,.4,-.6,.8,-.9,1.2c-.3,.5,-.8,.6,-1.3,.5c-.7,-.2,-1.1,-1,-.7,-1.7c.3,-.4,.5,-.8,.8,-1.1c0,-.1,.1,-.2,.1,-.2c-4.7,-4.3,-4.3,-11.2,-.4,-15.1c4.2,-3.9,10.4,-3.9,14.5,0c4,3.8,4.4,10.8,-.4,15.1c.3,.4,.6,.8,.8,1.2c.4,.5,.3,1.2,-.2,1.6c-.4,.4,-1.1,.3,-1.5,-.1c-.3,-.4,-.6,-.8,-.9,-1.2c0,0,-.1,-.1,-.1,-.2Z" class="g0_2"/>
<path d="M813.8,1190.6c0,.5,0,1.1,0,1.6c0,.1,.1,.3,.2,.4c0,.1,.2,.3,.2,.4c.1,.2,.2,.3,.4,.4c.8,.5,1.7,1.1,2.5,1.6c.3,.2,.5,.5,.4,.8c-.1,.4,-.3,.7,-.6,.7c-.3,0,-.5,0,-.7,-.2c-.8,-.4,-1.6,-.9,-2.4,-1.4c-.2,-.1,-.3,-.2,-.4,-.1c-.6,.2,-1.3,-.1,-1.6,-.6c-.3,-.6,-.2,-1.3,.2,-1.7c.1,-.1,.2,-.2,.2,-.3c0,-1.1,.1,-2.2,.1,-3.3c0,-.5,.4,-.9,.8,-.9c.5,0,.9,.4,.8,.9c0,.6,0,1.1,0,1.7Z" class="g0_2"/>
<path d="M828.1,1080.5c0,13.6,-11,24.6,-24.5,24.6c-13.6,0,-24.6,-11,-24.6,-24.6c0,-13.6,11,-24.6,24.6,-24.6c13.5,0,24.5,11,24.5,24.6Z" class="gf_2"/>
<path d="M816.3,1079.1l2.9,-1.9L810.1,1063c-.3,-.5,-.9,-.8,-1.5,-.8h-2v-1.3h-2.5v14.2h-1v-14.2h-2.6v1.3h-2c-.6,0,-1.2,.3,-1.5,.8l-9.1,14.2l3,1.9l6.9,-10.7l.4,8.4l-5.4,22l5.4,1.3l4.7,-18.9h1.3l4.8,18.9l5.4,-1.3l-5.5,-22l.5,-8.4Z" class="g0_2"/>
<path d="M606.1,1077.8c.3,0,.6,-.2,.6,-.5c0,-.3,-.2,-.6,-.6,-.6c-.3,0,-.5,.2,-.5,.6c0,.3,.2,.5,.5,.5m-1.8,-.4c0,.2,0,.5,0,.7c0,.2,.1,.2,.3,.2h3c0,0,.1,0,.2,0c0,0,.1,0,.1,-.1c0,-.3,0,-.5,0,-.8c-.3,0,-.5,0,-.8,0c-.1,0,-.2,0,-.2,.1c-.1,.4,-.6,.6,-1,.5c-.3,-.1,-.5,-.3,-.5,-.6Zm3.6,-.2c0,-.3,0,-.5,0,-.8q0,-.2,-.2,-.2h-2.5c-.2,0,-.4,0,-.7,0c-.1,0,-.2,0,-.2,.1c0,.3,0,.6,0,.9h1.1q0,-.1,0,-.2c.1,-.3,.3,-.5,.7,-.5c.4,0,.7,.2,.8,.5c0,.1,.1,.2,.1,.2c.3,0,.6,0,.9,0m-2,7.9c.5,0,1.1,0,1.7,0c.2,0,.3,0,.3,-.3c0,-.2,0,-.5,0,-.7c0,-.2,-.1,-.3,-.3,-.3h-3.5c-.2,0,-.3,.1,-.3,.3c0,.2,0,.5,0,.7c0,.3,.1,.3,.3,.3Zm-5.2,0c.6,0,1.1,0,1.7,0c.2,0,.3,0,.3,-.3c0,-.2,0,-.4,0,-.7c0,-.2,-.1,-.3,-.3,-.3h-3.5c-.2,0,-.3,.1,-.3,.3c0,.2,0,.5,0,.7c0,.3,.1,.3,.4,.3Zm-10.4,-1.3c-.6,0,-1.1,0,-1.7,0c-.2,0,-.3,.1,-.3,.3c0,.2,0,.5,0,.8c0,.2,.1,.2,.3,.2h3.5c.2,0,.3,0,.3,-.2c0,-.2,0,-.5,0,-.7c0,-.4,-.1,-.4,-.5,-.4Zm5.2,0c-.6,0,-1.2,0,-1.8,0c-.1,0,-.2,.1,-.2,.3c0,.2,0,.5,0,.8c0,.2,.1,.2,.3,.2c1.1,0,2.3,0,3.4,0c.2,0,.3,0,.3,-.2c0,-.3,0,-.5,0,-.8c0,-.2,0,-.3,-.3,-.3Zm-5.1,-7.6h-.2c-.6,0,-1.1,0,-1.7,0c-.3,0,-.4,.1,-.4,.4c-.1,.5,-.1,.9,0,1.4c0,.3,.1,.4,.4,.4c.6,0,1.2,0,1.7,0q.1,0,.2,0v1.9c0,.3,.1,.5,.4,.5c.5,0,.9,0,1.4,0c.3,0,.4,-.2,.4,-.5c0,-.6,0,-1.1,0,-1.7v-.2c.7,0,1.3,0,1.9,0c.3,0,.5,-.1,.5,-.4c0,-.5,0,-.9,0,-1.4c0,-.3,-.2,-.4,-.5,-.4c-.5,0,-1.1,0,-1.7,0h-.2v-.2c0,-.6,0,-1.2,0,-1.8c0,-.2,-.1,-.4,-.3,-.4c-.5,0,-1,0,-1.5,0c-.3,0,-.4,.2,-.4,.4c0,.4,0,.8,0,1.2Zm20.2,9.8q0,.1,0,.2c-.3,1,-1.2,1.8,-2.3,1.8c-6.7,0,-13.4,0,-20.1,0c-.3,0,-.6,0,-.9,-.1c-1.1,-.2,-1.8,-1.2,-1.8,-2.3c0,-1.9,0,-3.8,0,-5.7c0,-1.6,0,-3.3,0,-4.9c0,-1.4,1,-2.4,2.4,-2.4c6.8,0,13.5,0,20.3,0c1.3,0,2.2,.9,2.4,1.9Z" class="g0_2"/>
<path d="M580.2,1075.4c.1,-.1,.1,-.2,.1,-.4c.2,-.6,.6,-1.2,1.2,-1.5c2,-1.2,4,-2.3,5.9,-3.5c3.5,-2,7,-4,10.5,-6c.4,-.2,.8,-.4,1.2,-.4c0,0,.1,-.1,.1,-.1h.3c.1,.1,.2,.1,.3,.1c.8,.1,1.4,.6,1.7,1.2c1.3,2.2,2.6,4.5,3.9,6.7c0,.1,.1,.1,.1,.2c-.3,0,-.5,0,-.8,0c0,0,-.1,-.1,-.1,-.2c-.4,-.6,-.8,-1.3,-1.2,-2c0,0,-.1,-.1,-.1,-.1c-.4,.2,-.7,.4,-1.1,.6c-.9,.5,-1.9,1.1,-2.8,1.6c0,0,-.1,.1,-.2,.1c-2.8,0,-5.6,0,-8.3,0q-.1,0,-.2,0c3.5,-2,7,-4,10.4,-6c-.5,-1.3,-1.7,-1.7,-2.6,-1.2c-1.1,.6,-2.1,1.2,-3.1,1.8c-3.3,1.9,-6.7,3.8,-10,5.8c-1.2,.6,-2.3,1.3,-3.5,2c-.9,.5,-1.2,1.6,-.7,2.4c.1,.2,.2,.3,.3,.5c1,-.6,2,-1.2,3.1,-1.8c0,.2,0,.4,0,.5c0,1.4,0,2.9,0,4.3c0,.1,0,.2,-.1,.3c-.3,.1,-.6,.3,-.9,.4q.1,.1,.1,.2c.3,.5,.6,.9,.8,1.4c.1,0,.1,.1,.1,.1c0,.5,0,1,0,1.5c-.2,-.4,-.4,-.7,-.6,-1.1c-1.1,-1.9,-2.2,-3.8,-3.4,-5.8c-.2,-.3,-.3,-.7,-.3,-1.1c0,0,-.1,0,-.1,0Z" class="g0_2"/>
<path d="M710.1,1019.5c.4,0,.8,-.3,.8,-.7c0,-.4,-.3,-.8,-.7,-.8c-.5,0,-.8,.3,-.8,.7c0,.4,.3,.8,.7,.8m-2.2,-.6v.9q0,.3,.2,.3c1.3,0,2.6,0,3.9,0c0,0,.1,0,.2,0c.1,0,.2,-.1,.2,-.1c0,-.4,0,-.7,0,-1.1c-.4,0,-.7,0,-1.1,0q-.1,0,-.2,.1c-.2,.6,-.7,.9,-1.3,.7c-.4,-.1,-.6,-.4,-.6,-.8Zm4.5,-.3v-.9q0,-.3,-.3,-.3H709c-.3,0,-.6,0,-.9,0c-.1,0,-.2,0,-.2,.1c0,.4,0,.7,0,1.1h1.3c0,0,0,-.1,0,-.1c.1,-.5,.4,-.8,.9,-.8c.5,0,.9,.3,1,.8c0,0,.1,.1,.1,.1c.4,0,.8,0,1.2,0m-2.6,10.1H712c.3,0,.4,-.1,.4,-.4c0,-.3,0,-.6,0,-.9c0,-.3,-.1,-.4,-.4,-.4c-1.5,0,-2.9,0,-4.4,0c-.3,0,-.4,.1,-.4,.4c0,.3,0,.6,0,.9c0,.3,.1,.4,.4,.4Zm-6.6,0c.8,0,1.5,0,2.2,0c.3,0,.4,-.1,.4,-.3c0,-.4,0,-.7,0,-1c0,-.3,-.1,-.4,-.4,-.4c-1.4,0,-2.9,0,-4.4,0c-.2,0,-.3,.1,-.3,.4c-.1,.3,-.1,.6,-.1,.9c.1,.3,.1,.4,.5,.4ZM690.1,1027c-.7,0,-1.5,0,-2.2,0c-.2,0,-.4,.1,-.4,.4c0,.3,0,.6,0,1c0,.2,.2,.3,.4,.3c1.5,0,3,0,4.4,0c.3,0,.4,-.1,.4,-.3c0,-.3,0,-.6,0,-.8c0,-.5,0,-.6,-.6,-.6Zm6.6,0c-.8,0,-1.5,0,-2.2,0c-.3,0,-.4,.1,-.4,.4c0,.3,0,.6,0,1c0,.2,.1,.3,.4,.3c1.4,0,2.9,0,4.4,0c.2,0,.4,-.1,.4,-.3c0,-.3,0,-.7,0,-1c0,-.3,-.1,-.4,-.5,-.4c-.7,0,-1.4,0,-2.1,0m-6.5,-9.6H690c-.7,0,-1.5,0,-2.2,0c-.4,0,-.6,.2,-.6,.5c0,.6,0,1.2,0,1.7c0,.4,.2,.6,.6,.6c.7,0,1.5,0,2.2,0q.1,0,.2,0v.3c0,.7,0,1.4,0,2.1c0,.4,.2,.6,.6,.6c.5,0,1.1,0,1.7,0c.4,0,.5,-.2,.5,-.6c0,-.7,0,-1.4,0,-2.2v-.2c.9,0,1.7,0,2.5,0c.3,0,.5,-.2,.5,-.5c0,-.6,0,-1.2,0,-1.7c0,-.4,-.2,-.6,-.6,-.6H693v-.3c0,-.7,0,-1.4,0,-2.2c0,-.3,-.1,-.5,-.4,-.5c-.6,0,-1.3,0,-1.9,0c-.3,0,-.5,.2,-.5,.5c0,.5,0,1,0,1.4Zm25.6,12.4q0,.1,0,.2c-.3,1.4,-1.5,2.3,-2.9,2.3c-8.5,0,-17,0,-25.5,0c-.3,0,-.7,0,-1.1,-.1c-1.3,-.3,-2.2,-1.5,-2.2,-2.9c-.1,-2.4,-.1,-4.8,-.1,-7.2v-6.2c.1,-1.8,1.3,-3.1,3.1,-3.1c8.6,0,17.1,0,25.6,0c1.7,0,2.9,1.2,3.1,2.4c0,0,0,.1,0,.1Z" class="g0_2"/>
<path d="M710.1,1019.5c.4,0,.8,-.3,.8,-.7c0,-.4,-.3,-.8,-.7,-.8c-.5,0,-.8,.3,-.8,.7c0,.4,.3,.8,.7,.8Zm-2.2,-.6v.9q0,.3,.2,.3c1.3,0,2.6,0,3.9,0c0,0,.1,0,.2,0c.1,0,.2,-.1,.2,-.1c0,-.4,0,-.7,0,-1.1c-.4,0,-.7,0,-1.1,0q-.1,0,-.2,.1c-.2,.6,-.7,.9,-1.3,.7c-.4,-.1,-.6,-.4,-.6,-.8h-1.3Zm4.5,-.3v-.9q0,-.3,-.3,-.3H709c-.3,0,-.6,0,-.9,0c-.1,0,-.2,0,-.2,.1c0,.4,0,.7,0,1.1h1.3c0,0,0,-.1,0,-.1c.1,-.5,.4,-.8,.9,-.8c.5,0,.9,.3,1,.8c0,0,.1,.1,.1,.1c.4,0,.8,0,1.2,0Zm-2.6,10.1H712c.3,0,.4,-.1,.4,-.4c0,-.3,0,-.6,0,-.9c0,-.3,-.1,-.4,-.4,-.4c-1.5,0,-2.9,0,-4.4,0c-.3,0,-.4,.1,-.4,.4c0,.3,0,.6,0,.9c0,.3,.1,.4,.4,.4h2.2Zm-6.6,0c.8,0,1.5,0,2.2,0c.3,0,.4,-.1,.4,-.3c0,-.4,0,-.7,0,-1c0,-.3,-.1,-.4,-.4,-.4c-1.4,0,-2.9,0,-4.4,0c-.2,0,-.3,.1,-.3,.4c-.1,.3,-.1,.6,-.1,.9c.1,.3,.1,.4,.5,.4h2.1ZM690.1,1027c-.7,0,-1.5,0,-2.2,0c-.2,0,-.4,.1,-.4,.4c0,.3,0,.6,0,1c0,.2,.2,.3,.4,.3c1.5,0,3,0,4.4,0c.3,0,.4,-.1,.4,-.3c0,-.3,0,-.6,0,-.8c0,-.5,0,-.6,-.6,-.6h-2Zm6.6,0c-.8,0,-1.5,0,-2.2,0c-.3,0,-.4,.1,-.4,.4c0,.3,0,.6,0,1c0,.2,.1,.3,.4,.3c1.4,0,2.9,0,4.4,0c.2,0,.4,-.1,.4,-.3c0,-.3,0,-.7,0,-1c0,-.3,-.1,-.4,-.5,-.4c-.7,0,-1.4,0,-2.1,0Zm-6.5,-9.6H690c-.7,0,-1.5,0,-2.2,0c-.4,0,-.6,.2,-.6,.5c0,.6,0,1.2,0,1.7c0,.4,.2,.6,.6,.6c.7,0,1.5,0,2.2,0q.1,0,.2,0v.3c0,.7,0,1.4,0,2.1c0,.4,.2,.6,.6,.6c.5,0,1.1,0,1.7,0c.4,0,.5,-.2,.5,-.6c0,-.7,0,-1.4,0,-2.2v-.2c.9,0,1.7,0,2.5,0c.3,0,.5,-.2,.5,-.5c0,-.6,0,-1.2,0,-1.7c0,-.4,-.2,-.6,-.6,-.6H693v-.3c0,-.7,0,-1.4,0,-2.2c0,-.3,-.1,-.5,-.4,-.5c-.6,0,-1.3,0,-1.9,0c-.3,0,-.5,.2,-.5,.5c0,.5,0,1,0,1.4v1.1Zm25.6,12.4q0,.1,0,.2c-.3,1.4,-1.5,2.3,-2.9,2.3c-8.5,0,-17,0,-25.5,0c-.3,0,-.7,0,-1.1,-.1c-1.3,-.3,-2.2,-1.5,-2.2,-2.9c-.1,-2.4,-.1,-4.8,-.1,-7.2v-6.2c.1,-1.8,1.3,-3.1,3.1,-3.1c8.6,0,17.1,0,25.6,0c1.7,0,2.9,1.2,3.1,2.4c0,0,0,.1,0,.1v14.5Z" class="gh_2"/>
<g clip-path="url(#c0_2)">
<g opacity="0.35">
<path d="M243.6,851.1H228L213,826.8l-14.9,24.3H183.5l21.3,-33.2l-20,-31.2h15.1l13.8,23.2l13.6,-23.2h14.8l-20.3,32Z" class="gg_2"/>
</g>
<g opacity="0.35">
<path d="M759.6,851.1H744.1l-15,-24.3l-15,24.3H699.5l21.4,-33.2l-20,-31.2h15l13.9,23.2l13.6,-23.2h14.7l-20.2,32Z" class="gg_2"/>
</g>
<g opacity="0.35">
<path d="M488.7,851.1H473.1L458.2,826.8l-15,24.3H428.6l21.3,-33.2l-20,-31.2H445l13.9,23.2l13.6,-23.2h14.7l-20.2,32Z" class="gg_2"/>
</g>
</g>
<path d="M481.9,752.2H418.6c-3,0,-5.4,-2.4,-5.4,-5.4V703.1c0,-2.9,2.4,-5.4,5.4,-5.4h63.3c3,0,5.4,2.5,5.4,5.4v43.7c0,3,-2.4,5.4,-5.4,5.4Z" class="g0_2"/>
<path d="M481.9,752.2H418.6c-3,0,-5.4,-2.4,-5.4,-5.4V703.1c0,-2.9,2.4,-5.4,5.4,-5.4h63.3c3,0,5.4,2.5,5.4,5.4v43.7c0,3,-2.4,5.4,-5.4,5.4Z" class="g7_2"/>
<path d="M446.9,740.2h.9c1.3,0,2.5,0,3.7,-.1c.2,0,.4,0,.6,-.1c1.1,-.6,2.1,-1.1,3.2,-1.7c.7,-.4,1.5,-.6,2.3,-.7c1.5,-.3,3,-.5,4.6,-.4c.5,.1,1,.2,1.5,.4c.2,.1,.4,.4,.5,.6c.2,.2,.1,.4,-.1,.6c-1.9,1.3,-3.7,2.6,-5.5,3.9c-1.7,1.2,-3.3,2.4,-5,3.5c-.1,.1,-.3,.2,-.5,.2c-3.9,0,-7.8,0,-11.7,0c-1.7,0,-3.4,-1.3,-3.3,-3.5c.1,-1.7,0,-3.3,.1,-5c0,-1.8,1.2,-3.2,3,-3.6c.2,0,.5,-.1,.8,-.1c2,0,4,-.1,6,-.1c2,0,3.6,1.5,3.7,3.6c0,.8,-.5,1.3,-1.3,1.3c-1.1,0,-2.1,0,-3.2,0c-.2,0,-.3,.1,-.3,.3c0,.3,0,.5,0,.9Z" class="ge_2"/>
<path d="M472.3,713.5c-1.7,1.6,-3.4,3.1,-5.2,4.7c-3.4,-3.7,-6.8,-7.4,-10.2,-11.1c1.7,-1.6,3.4,-3.1,5.1,-4.7c3.5,3.7,6.9,7.4,10.3,11.1Z" class="g9_2"/>
<path d="M451.5,722.5c.7,0,1.2,-.5,1.2,-1.2c0,-.7,-.6,-1.2,-1.2,-1.2c-.7,0,-1.3,.5,-1.3,1.2c0,.7,.6,1.2,1.3,1.2m.6,2.2c-.2,-1.2,-.8,-1.7,-2,-1.6c-.1,-.5,-.3,-.9,-.7,-1.2c-.4,-.3,-.8,-.4,-1.4,-.3c-.1,-.7,-.4,-1.3,-1.1,-1.5c-.7,-.3,-1.3,-.1,-1.8,.5c-.4,-.4,-.7,-.7,-1.1,-1c0,-.1,0,-.2,0,-.3c.3,-.9,.3,-1.8,-.1,-2.7c-.1,-.1,-.1,-.2,.1,-.4c.5,-.5,1.1,-1.1,1.6,-1.6c.1,-.1,.2,-.1,.3,-.1c.8,.3,1.6,.3,2.4,.1c-.2,.2,-.4,.4,-.6,.6c-.2,.2,-.4,.4,-.6,.6c1.2,2.2,3.4,3,5.4,2.4c.2,0,.3,0,.5,.2c1.9,1.7,3.7,3.5,5.6,5.3c.1,.1,.2,.2,.1,.4c-.3,.8,-.3,1.7,.1,2.6c.1,.1,.1,.2,0,.3c-.5,.5,-1,1,-1.5,1.6c-.1,.1,-.2,.1,-.3,0c-.9,-.3,-1.8,-.3,-2.6,.1c-.2,.1,-.3,.1,-.4,0c-.2,-.2,-.5,-.4,-.7,-.7c.2,-.2,.3,-.4,.5,-.7c.4,-.5,.5,-1.2,.2,-1.8c-.4,-.6,-1,-.9,-1.7,-.9c0,.1,-.1,.1,-.2,.1Z" class="ge_2"/>
<path d="M455.4,715.3c-.7,.5,-1.4,1,-2,1.5c-1.5,1,-3.6,.8,-4.8,-.6c-.1,0,-.2,-.1,-.2,-.2c.7,-.8,1.5,-1.6,2.3,-2.4c.3,-.4,.8,-.6,1,-1c.5,-.6,1.1,-1.1,1.8,-1.4c2,-1,4.5,-.5,6,1.3c.6,.7,1.2,1.5,1.8,2.3c1,1.4,.9,3.5,-.4,4.8c-.2,.2,-.4,.4,-.6,.7c-1.7,-1.7,-3.3,-3.4,-4.9,-5Z" class="g9_2"/>
<path d="M432.2,742.6c0,.7,.6,1.3,1.3,1.3c.8,0,1.4,-.6,1.4,-1.3c0,-.8,-.6,-1.4,-1.3,-1.4c-.8,0,-1.4,.6,-1.4,1.4m4.5,3.2h-6.3V734.9h6.3v10.9Z" class="ge_2"/>
<path d="M455.2,716.6c3,2.8,6,5.7,8.9,8.5c-2.7,2.9,-5.4,5.7,-8.2,8.5c-1.3,-1.2,-2.6,-2.5,-4,-3.8c.3,-.3,.5,-.6,.8,-.9c.4,.4,.9,.8,1.4,1.3c1,-1,2.1,-1,3.3,-.2c.9,-1,1.9,-2,2.8,-3c-.4,-.5,-.7,-1,-.7,-1.6c0,-.7,.2,-1.2,.6,-1.7c-2.1,-2,-4.2,-4,-6.3,-6c.5,-.4,.9,-.7,1.4,-1.1Z" class="ge_2"/>
<path d="M439.2,718c2.6,-2.7,5.2,-5.5,7.8,-8.3c1.1,1,2.1,1.9,3.2,2.9c-.3,.3,-.6,.6,-.9,.9c-.1,-.2,-.3,-.3,-.5,-.5c-.4,.4,-.9,.7,-1.6,.7c-.6,0,-1.1,-.2,-1.5,-.5c-1.1,1,-2.2,2.1,-3.2,3.1c.9,1,1,2.2,.1,3.3c.6,.6,1.3,1.2,1.9,1.8c-.2,.4,-.4,.7,-.7,1.1c-1.5,-1.5,-3.1,-3,-4.6,-4.5Z" class="ge_2"/>
<path d="M450.8,730.7c.2,-.2,.5,-.4,.8,-.6c1.5,1.3,2.9,2.7,4.4,4c2.4,-2.4,4.8,-4.9,7.2,-7.4c.2,.2,.5,.5,.7,.7c-.7,.7,-1.4,1.5,-2.1,2.2c-1.7,1.8,-3.5,3.6,-5.2,5.5c-.4,.4,-.6,.4,-1.1,0c-1.5,-1.4,-3,-2.8,-4.6,-4.2c0,-.1,-.1,-.2,-.1,-.2Z" class="ge_2"/>
<path d="M453.6,726.3c-.1,.2,-.2,.5,-.3,.7c-.7,.9,-1.5,1.9,-2.2,2.8c-.3,.5,-.9,.6,-1.4,.3c-.5,-.4,-.6,-1,-.2,-1.5c.7,-1,1.5,-1.9,2.2,-2.9c.3,-.4,.7,-.5,1.2,-.4c.4,.2,.6,.6,.7,1Z" class="g9_2"/>
<path d="M451.5,724.7c-.1,.2,-.1,.4,-.2,.5c-.8,1,-1.6,2.1,-2.3,3.1c-.3,.3,-.6,.4,-.9,.4c-.4,-.1,-.7,-.3,-.8,-.6c-.1,-.4,-.1,-.7,.1,-1c.8,-1,1.5,-2,2.3,-3c.3,-.4,.7,-.5,1.1,-.3c.3,.1,.7,.5,.7,.9Z" class="g9_2"/>
<path d="M444.1,725.7c-.4,-.1,-.7,-.3,-.9,-.6c-.1,-.4,-.2,-.7,.1,-1c.7,-1.1,1.5,-2.1,2.3,-3.1c.3,-.4,.8,-.5,1.2,-.3c.4,.2,.6,.7,.5,1.1c0,.1,0,.2,-.1,.3c-.8,1.1,-1.6,2.2,-2.5,3.2c-.1,.2,-.4,.3,-.6,.4Z" class="g9_2"/>
<path d="M446.2,727.2c-.4,-.1,-.7,-.2,-.9,-.6c-.2,-.4,-.1,-.8,.1,-1.1c.5,-.6,1,-1.3,1.4,-1.9c.3,-.3,.6,-.7,.9,-1.1c.2,-.3,.6,-.4,1,-.3c.4,.1,.7,.4,.7,.8c0,.2,0,.5,-.2,.6c-.8,1.1,-1.6,2.2,-2.4,3.3c-.1,.1,-.4,.2,-.6,.3Z" class="g9_2"/>
<path d="M439.2,720.1c.2,-.3,.4,-.5,.7,-.8c1.2,1.2,2.4,2.3,3.7,3.4c-.2,.3,-.4,.6,-.6,.9c-1.3,-1.2,-2.5,-2.3,-3.8,-3.5Z" class="ge_2"/>
<path d="M228.9,423.7c-.5,-3.6,-1,-12.8,-1,-12.8c.9,1,-.4,2.9,3.9,1.2c2.3,-1,3.2,-2.1,3.5,-2.9c0,0,1.8,16.8,2.5,19.2c1.4,5.1,-27.6,7.6,-30.7,7.2c-3,-.3,-6.5,.7,-10.8,.3c-4.4,-.4,-6.6,-5.4,-6.7,-6.2c-.1,-.7,.7,-.3,4,.4c3.2,.8,6.8,-.3,6.6,-.8c-.3,-.5,-4.5,-.3,-4.5,-1c-.1,-.8,6.3,-2.4,11.6,1.1c1.2,.8,22.4,-.8,21.6,-5.7Z" class="gi_2"/>
<path d="M235.3,409.2c-.3,.8,-1.2,1.9,-3.5,2.9c-4.3,1.7,-3,-.1,-3.9,-1.1c0,0,-.9,8.2,-.3,11.7c.7,4.6,-14.7,6.4,-19.8,6.5c-1,2,-1.2,4.5,-.7,6.4c0,0,.3,1.3,.3,1.3c17.3,-2.3,31.8,-3.4,30.4,-8.5c-.7,-2.4,-2.5,-19.2,-2.5,-19.2Z" class="gj_2"/>
<path d="M211,429c-1.2,.1,-2.4,.2,-3.2,.2c-1,2,-1.2,4.5,-.7,6.4c0,0,.3,1.3,.3,1.3c1.1,-.2,2.2,-.3,3.2,-.4c-.8,-2.4,-.7,-5.2,.4,-7.5Z" class="g0_2"/>
<path d="M259.4,399.6c0,0,-5.8,-1.5,-5.9,-5.5c-.3,-5.2,1.5,-8.6,1.5,-8.6l-11.2,1l-2.9,6.9c0,0,.4,1.2,.5,2.5c.1,.8,-3.6,-1,-4.3,-.2c-1.9,2.2,-8,32.1,22.3,3.9Z" class="gi_2"/>
<path d="M255,385.6c-.2,.4,-.9,2,-1.3,4.5c-.2,1.2,-.3,2.5,-.2,4c.1,2,1.6,3.4,3.1,4.3l-3.7,4c0,0,-2.2,-9.5,-11.1,-6.3c-.1,.1,-.3,-.1,-.4,-.1c0,0,0,-.1,0,-.1c0,-.1,0,-.2,0,-.4v-.1c0,0,0,-.1,-.1,-.2c-.1,-1,-.4,-1.8,-.4,-1.8l2.9,-6.9l11.2,-1c0,0,0,.1,0,.1Z" class="gk_2"/>
<path d="M246.3,503.5c0,0,-5.6,30,-3.1,34.9c2.8,5.5,-3.2,14.8,-6.7,16.6c-3.6,1.8,-6.4,1.7,-5.6,-3.6c.8,-5.3,3.6,-14.4,3.1,-18.8c-.5,-4.4,-1.5,-29.1,-2.6,-34.5c-1.1,-5.3,14.9,5.4,14.9,5.4Z" class="gi_2"/>
<path d="M245.2,502.9l.8,2.3c-.2,1,-.5,2.4,-.8,4.1c-2.8,-.6,-8,-1.8,-12.9,-3.6c-.3,-3.3,-.6,-6.1,-.9,-7.6c-.9,-4.5,10.3,2.5,13.8,4.8Z" class="gk_2"/>
<path d="M230.9,551.4c.1,-.6,.3,-1.3,.4,-2.1c1.6,.6,7.3,-2,7.6,-6.3c.4,-5,1.6,-40,1.6,-40l5.4,2.6c-1.3,6.5,-4.8,28.7,-2.7,32.8c2.6,5.2,-2.6,13.8,-6.2,16.2c-1.7,.4,-3.6,.7,-5.4,1c-.7,-.7,-1,-2,-.7,-4.2Z" class="gk_2"/>
<path d="M262.4,503.4c0,0,-6.6,36.5,-4.1,41.4c2.8,5.5,-3.2,14.8,-6.7,16.6c-3.5,1.8,-6.4,1.7,-5.5,-3.6c.8,-5.2,3.5,-14.4,3,-18.8c-.5,-4.4,-1.5,-26.5,-2.5,-31.9c-1.1,-5.3,15.8,-3.7,15.8,-3.7Z" class="gi_2"/>
<path d="M259.8,503.4l-.1,4.2c-.2,1,.2,.4,-.1,2.1c-2.6,.4,-7.7,2.2,-12.7,.3c-.3,-3.3,-.6,-4.9,-.9,-6.4c-.9,-4.5,10.2,-2.5,13.8,-.2Z" class="gk_2"/>
<path d="M246.1,557.8c.1,-.6,.2,-1.3,.3,-2.1c1.6,.6,7.3,-2,7.7,-6.3c.4,-4.9,1.6,-45,1.6,-45l6.7,-1c-1.2,6.5,-6.1,37.3,-4.1,41.4c2.7,5.2,-2.6,13.8,-6.1,16.2c-1.8,.4,-3.7,.7,-5.5,1c-.7,-.7,-1,-2,-.6,-4.2Z" class="gk_2"/>
<path d="M257.8,542.2c0,0,3.7,1.5,3.6,4.5c-.1,3,.2,1.5,-.3,4.8c-.9,5.2,-1,8.2,-1,8.2c0,0,-1.1,.5,-1.6,-.7v-4.9c0,0,-1.5,5.3,-3.4,6.3c-5.7,2.9,-10.4,3.7,-12.4,3.1c-2.1,-.5,-1.4,-3,.9,-6.5c1.9,-2.8,3.8,-5.5,3.8,-5.5c0,0,-2,6,-.2,6.3c1.8,.3,11.8,-4,10.6,-15.6Z" class="gl_2"/>
<path d="M262.7,452.9c0,0,6.5,9.3,3.6,21.3c-2,8.3,-5.1,13.4,-3.7,20c1.5,6.6,2.3,8.3,2.3,8.3c0,0,-5.8,6.2,-18.6,3.8c-12.8,-2.4,-19,-7.2,-19,-7.2c0,0,5,-5.8,0,-22.5c-2.8,-9.4,-1.8,-29.8,2.3,-31.7c4.2,-1.9,33.1,8,33.1,8Z" class="gl_2"/>
<path d="M234.7,378.7c-1.7,-5.3,2.6,-13.5,13.6,-10.1c9.6,2.9,10.1,8.4,9.1,12.3c1,.1,1.8,.5,2,2.1c.2,2.8,-2.4,4.9,-4.4,4c-1.4,1.8,-5.2,4.1,-7.3,5.1c-7.6,3.4,-10.7,3.2,-13.1,-3.2c-1.2,-3.3,-2.4,-8,.1,-10.2Z" class="gi_2"/>
<path d="M269.9,467.9c-.3,2.1,0,4.5,-1,7.3c-1.1,3.5,-7.6,5,-8.5,5c-.9,0,-.3,-.6,1.1,-3.2c1.4,-2.6,.7,-5.6,0,-5.4c-.6,.2,-1,3.6,-2,3.6c-1,0,-1.9,-5.3,3.2,-9.4c2.9,2.8,6.2,2.3,7.2,2.1Z" class="gi_2"/>
<path d="M265.1,454c.7,-3.6,1.3,-8.3,1.6,-14.8c.2,-3.9,-4,-12.9,-4,-12.9c0,0,-4.4,5.5,-4.8,11c-.1,2.2,.9,4.3,2.2,6.7c-5.6,9.7,-31.4,4.9,-31.6,.5c-.8,-.4,-1.7,-.8,-2.6,-1.2c.3,-1,.6,-2,1.1,-3c2.3,-5,3.5,-6,2.6,-12.1c-.8,-6.1,-2.3,-5.6,-2.3,-9.8c.1,-1.9,.6,-3.2,1,-3.8c3,-4.7,3.6,-8.3,5,-14.2c1.5,-5.9,6.7,-6.1,6.7,-6.1c-.6,-.1,1.1,-.1,1.1,-.1c0,0,.4,.9,.3,1.7c-.5,5.5,1.1,7.5,1.1,7.5c0,0,5.9,-1.5,8.9,-4.5c3,-3.1,2.1,-5.6,2.1,-5.6c0,0,4.2,.7,4.1,4.5c0,0,12.3,7.4,13.3,9.4c.6,1.1,7.1,10.2,7.1,32c0,13.4,-7.7,28.6,-7.7,28.6c0,0,-4.2,1.3,-7.6,-2c-1.2,-1.1,-.6,-1.7,.4,-4.5c-.1,.1,1.7,-5.8,2,-7.3Z" class="g0_2"/>
<path d="M257.6,397.8c0,0,-1.1,3.2,-4.7,6.2c-3.6,2.9,-7.7,4.5,-7.7,4.5L242,404.4l-4.8,1.8c0,0,-.2,-1.9,.2,-4.9c.3,-3,1.9,-5.6,1.9,-5.6c0,0,-1,4,-1,6.1c-.1,2.2,0,3.2,0,3.2l4.2,-1.6l3.1,3.9c0,0,7.1,-2.3,12,-9.5Z" class="gm_2"/>
<path d="M263.7,408.8c-4.5,4.3,-1,17.5,-1,17.5c0,0,-4.4,5.5,-4.8,11c-.3,4.9,5.3,10.1,7.2,16.7c0,0,-1,4.8,-2,7.3c-2.8,1.6,-7.6,1.9,-13.1,1c-1.4,-.2,-2.6,-.5,-3.7,-.8c0,0,13.3,2.6,12.5,-5.7c-.8,-8.3,-4,-7.7,-5.5,-14.3c-1.6,-6.7,3.3,-12.5,.7,-13.3c-2.6,-.8,-1.5,.7,-7.7,-.1c-5.4,-.7,-4.3,-3.1,-9.2,-3.5c-2.5,-.2,-5.8,1.1,-8.8,-1.4c-.6,-1.5,-1,-2.3,-1,-4.8c.1,-1.1,.2,-2,.5,-2.6c0,.1,-.5,2.6,3.2,4.2c2.1,.9,4.1,-.2,7.3,.5c1.7,.3,4.3,3.1,10.4,3.1c4.4,0,7.5,-.5,8.9,-6.2c1.4,-5.7,1.2,-8.9,5.3,-11c3,-1.6,6.6,-.9,7.8,.5c.1,.1,.2,.2,.2,.3c0,0,-2.7,-2.6,-7.2,1.6Z" class="gm_2"/>
<path d="M238.3,421.9c.5,4.6,.7,15.4,-.1,18.5c-.3,1.5,-.3,5.6,-.5,8.5c-.4,-.1,-.9,-.1,-1.3,-.2c.2,-2.3,.2,-6.3,.7,-8.3c1.6,-6.1,0,-14.4,0,-18.5c0,-7.4,3.8,-17.1,3.8,-17.1l1.1,-.4c0,0,-4.2,12.8,-3.7,17.5Z" class="gm_2"/>
<path d="M236.5,392.4c-2.8,0,-6.4,1.5,-8.5,10.4c-.5,2.2,-.8,7.9,-.4,13.3c.4,-1.3,1.2,-2.2,1.9,-3.4c1.7,-3.1,2.9,-8.4,3.8,-12.3c1,-3.9,3.8,-5.2,3.8,-5.2c1.5,-.5,2.9,-.9,2.9,-.9c-1.5,-.1,-2.6,-.7,-3.5,-1.9Z" class="gj_2"/>
<path d="M242.6,535.8c0,0,3.8,1.4,3.7,4.5c-.1,3,.2,1.5,-.4,4.8c-.9,5.2,-.9,8.2,-.9,8.2h-1.6v-5.7c0,0,-1.6,5.4,-3.4,6.4c-5.8,2.9,-10.4,3.7,-12.4,3.1c-2.1,-.5,-1.4,-3,.9,-6.5c1.8,-2.8,3.7,-5.6,3.7,-5.6c0,0,-1.9,6.1,-.1,6.4c1.8,.3,11.8,-4,10.5,-15.6Z" class="gl_2"/>
<path d="M242.2,404.1l2.1,2.6c0,0,-2.6,3.4,-4.2,3.1c-1.6,-.3,-1.5,-4.2,-1.5,-4.2Z" class="gl_2"/>
<path d="M241,407.4l1,1.8c0,0,-3.4,10.5,-3.5,14.4c-.1,4.4,.5,12.4,.5,12.4l-2.6,3.4l-2.3,-4c0,0,-.4,-9.2,0,-12.2c.4,-3,4.9,-14.9,4.9,-14.9Z" class="gl_2"/>
<path d="M257.9,437.3c.4,-5.5,4.8,-11,4.8,-11c0,0,4.2,9,4,12.9c-.3,6.5,-.9,11.2,-1.6,14.8c-1.9,-6.6,-7.5,-11.8,-7.2,-16.7m-.3,-39.5c0,0,.3,3,-2.4,6.6c-6.5,8.3,-9.6,7.7,-13.2,19c-2.5,8.1,-2,22.7,-3.3,35.4c1.7,1.8,5.1,2.5,11.3,3.5c5.5,.9,10.3,.6,13.1,-1c-.5,1.5,-.6,1.5,-.6,1.5c4.4,3.7,8.7,3,8.7,3c2.1,-4.6,6.8,-16.1,6.8,-26.6c0,-21.8,-6.5,-30.9,-7.1,-32c-1,-2,-13.3,-9.4,-13.3,-9.4Z" class="gn_2"/>
<path d="M240,394.2v.1c-.2,-.1,-.1,-.1,0,-.1Z" class="gn_2"/>
<path d="M227,440.3c2.3,-5,3.5,-6,2.6,-12.1c-.8,-6.1,-2.3,-5.6,-2.3,-9.8c.1,-1.9,.6,-3.2,1,-3.8c3,-4.7,3.6,-8.3,5,-14.2c1.5,-5.9,6.7,-6.1,6.7,-6.1c0,0,-4.5,6.3,-4.7,14.2c-.2,8,-3.9,10.9,-2.5,19.5c2.2,13.5,0,29.2,0,29.2c-.7,0,-1.6,-.2,-2.6,-.5c-6.7,-2.4,-5.2,-6,-5.2,-6c0,0,-.3,-5.4,2,-10.4Z" class="gn_2"/>
<path d="M248.6,462.1c-.3,-.1,-.5,-.1,-.7,-.2c-.1,0,-.3,0,-.4,-.1c-.2,0,-.3,-.1,-.5,-.1c-.2,0,-.3,-.1,-.5,-.1c0,0,-.1,-.1,-.2,-.1c.8,.1,13.2,2.3,12.5,-5.7c-.8,-8.3,-4,-7.7,-5.5,-14.3c-1.6,-6.7,3.3,-12.5,.7,-13.3c-2.6,-.8,-1.5,.7,-7.7,-.1c-2.9,-.4,-3.9,-1.2,-5,-2c.2,-.9,.4,-1.9,.7,-2.7c.1,-.3,.2,-.7,.3,-1c1.6,.6,3.7,1.2,6.4,1.2c4.4,0,7.5,-.5,8.9,-6.2c1.4,-5.7,1.2,-8.9,5.3,-11c3,-1.6,6.6,-.9,7.8,.5c.1,.1,.2,.2,.2,.3c0,0,-2.7,-2.6,-7.2,1.6c-4.5,4.3,-1,17.5,-1,17.5c0,0,-4.4,5.5,-4.8,11c-.3,4.9,5.3,10.1,7.2,16.7c0,0,-1,4.8,-2,7.3c-2.8,1.6,-7.6,1.9,-13.1,1c-.4,0,-.7,-.1,-1.1,-.1c-.1,-.1,-.2,-.1,-.3,-.1Z" class="gj_2"/>
<path d="M252.4,362.8c0,0,10.8,1.6,11.9,11.2c1.2,9.5,-1.8,18.4,-2.7,20.5c-2.2,5.1,-12.4,9.9,-12.4,9.9c0,0,7.7,-23.2,1.8,-33.4c0,0,-9,2.3,-16.1,2.3c0,0,-1,-13.5,17.5,-10.5Z" class="go_2"/>
<path d="M189.7,428.3l-3,2.4c-.5,.7,.1,5.4,.8,6.4c.2,.3,.3,.6,.7,.6l6.4,-.7q.1,0,.1,0l2.6,-.2c.3,0,.6,-.3,.5,-.7c0,-.3,-.3,-.6,-.6,-.5l-2.3,.2v-.4l4.7,-.4c.4,-.1,.7,-.4,.6,-.8c0,-.4,-.3,-.7,-.7,-.7l-4.7,.4l-.1,-.4l5,-.4c.4,0,.7,-.4,.7,-.8c-.1,-.3,-.4,-.6,-.8,-.6l-5,.4v-.4l4.2,-.3c.4,-.1,.7,-.4,.7,-.8c0,-.4,-.4,-.7,-.8,-.7l-7.5,.7H191l-.5,.1c-.3,-.1,-.6,-.2,-.5,-.5l.9,-.9c.2,-.3,.2,-.8,-.1,-1.1c-.3,-.3,-.8,-.2,-1.1,.1Z" class="gp_2"/>
<path d="M146.7,395.8c-3.2,.8,-1,22.8,7.7,36.7l9.3,-6.3c-2.3,-7.4,-12.6,-31.7,-17,-30.4Z" class="gq_2"/>
<path d="M154.2,431.9l6.2,-6.4c11,2.6,19.7,3.7,26.2,5.2l1.7,7.2c-7,-1.5,-20.3,.6,-31.7,-2.9c-1.8,-.5,-2.4,-3.1,-2.4,-3.1Z" class="gq_2"/>
<path d="M110.4,482.5c0,1,-2,2,-3.1,2.3c-1.9,.5,-4.4,.2,-4.4,-1c0,-8,-.1,-57.6,-.1,-57.6l7.6,-4.4Z" class="gp_2"/>
<path d="M114.2,483.5l-2.8,-4c-.7,-.7,-1.1,-.9,-2.4,-.1c-1.3,.8,-4,2.2,-5.4,3c-.4,.2,-.8,.3,-.8,.8v8.7c0,.5,.4,.8,.8,.8c.4,0,.7,-.3,.7,-.8v-2.8h.6V495c0,.5,.4,.9,.8,.9c.5,0,.9,-.4,.9,-.9v-5.9h.5v6.2c0,.5,.4,.9,.9,.9c.5,0,.9,-.4,.9,-.9v-6.2h.5v5.4c0,.4,.4,.8,.9,.8c.4,0,.8,-.4,.8,-.8V484.2c.1,-.4,.2,-.7,.6,-.6l1.1,1.2c.4,.4,.9,.4,1.3,.1c.4,-.4,.4,-1,.1,-1.4Z" class="gp_2"/>
<path d="M133.4,558.8c-1.8,1,-5.7,.9,-9,-1.6c-4.6,-3.4,-3.7,-5.4,-6.4,-5.4c-1.7,0,-2.3,-1.5,-2.3,-2.5c0,-1.5,-.1,-2.6,-.1,-2.6l8.5,-4.8c0,0,.2,1.4,1.5,2.6c1.8,1.7,4.1,3.8,6.6,6.7c2.8,3.4,3.4,6.4,1.2,7.6Z" class="gr_2"/>
<path d="M133.3,558.8c-1.8,1,-5.6,.8,-8.9,-1.6c-4.6,-3.4,-3.8,-5.5,-6.5,-5.5c-1.6,0,-2.2,-1.5,-2.2,-2.4c0,-.9,-.2,3.4,1.4,3.4c2.8,0,1.9,2.1,6.5,5.4c3.3,2.5,7.2,2.7,9,1.7c.5,-.3,.9,-.7,1.1,-1.3c-.1,.1,-.2,.2,-.4,.3Z" class="gs_2"/>
<path d="M155.2,546.1c-1.8,1,-5.7,.8,-9,-1.6c-4.6,-3.4,-3.7,-5.5,-6.5,-5.5c-1.6,0,-2.2,-1.4,-2.2,-2.4c0,-1.5,-.1,-2.6,-.1,-2.6l8.5,-4.8c0,0,.2,1.4,1.5,2.6c1.8,1.7,4.1,3.8,6.6,6.7c2.8,3.3,3.4,6.4,1.2,7.6Z" class="gr_2"/>
<path d="M155.1,546.1c-1.8,1,-5.6,.8,-8.9,-1.7c-4.6,-3.3,-3.8,-5.4,-6.5,-5.4c-1.6,0,-2.2,-1.5,-2.2,-2.4c0,-.9,-.2,3.4,1.4,3.4c2.8,0,1.9,2,6.5,5.4c3.3,2.5,7.2,2.7,9,1.7c.5,-.3,.9,-.8,1.1,-1.3c-.1,.1,-.2,.2,-.4,.3Z" class="gs_2"/>
<path d="M148.5,464c0,0,-5.9,10.3,-17.1,16.3c-10.7,5.7,-19.3,4.6,-19.3,4.6l-.7,-11.6L148,453Z" class="gt_2"/>
<path d="M126.7,544.6c0,2.2,-4,4.1,-6.1,4.7c-3.9,.9,-9,.4,-9,-1.9c0,-5.7,1.2,-17.1,1.2,-28.8c0,-21.2,-1.3,-44.6,-1.3,-44.6l15.2,-8.7c0,0,1.3,22.4,1.3,44.3c0,13.8,-1.3,27.4,-1.3,35Z" class="gt_2"/>
<path d="M148,531.9c0,2.1,-4,4.1,-6.1,4.6c-3.9,1,-9,.5,-9,-1.9c0,-5.2,1.8,-15,1.8,-25.5c0,-21.9,-1.9,-47.8,-1.9,-47.8L148,452.5c0,0,1.2,25.1,1.2,48.3c0,12.2,-1.2,24.3,-1.2,31.1Z" class="gt_2"/>
<path d="M148.4,462.3c0,0,-3.5,4.9,-17.8,11.6c-12.1,5.7,-18.8,6.2,-18.8,6.2l-1.4,-26.5V410.1c0,0,2.5,-7.6,16.7,-12.3c16.5,-5.6,22.1,-1.4,22.1,-1.4v46.3Z" class="gq_2"/>
<path d="M148.3,467.5c0,0,-2.1,3.2,-16.4,9.8c-12.1,5.7,-19.8,7.6,-19.8,7.6l-1.7,-31.3V410.1c0,0,.1,-3.8,7.5,-8.1c.9,-.5,4.3,8,5.8,12.5c1.3,3.8,17.6,.4,18,-5.3c.9,-11.4,-2.1,-14.2,-2.1,-14.2c6.2,-.7,8.2,.7,8.2,.7l1.4,47Z" class="gt_2"/>
<path d="M139.9,397.2c-.2,-.5,-.5,-.8,-.9,-1.2c-.2,-.2,-.4,-.5,-.5,-.9c-1.3,.2,-2.7,.4,-4.3,.7c.6,1.4,1.2,2.4,1.6,2.9q.1,.1,.2,.2c-.3,.6,-1.6,2,-4,3c-1,.5,-2,.8,-3.3,1c-1.9,.6,-3.1,-.7,-4,-2.4c.4,-.5,.8,-1.3,1.1,-2.2c-2.1,.8,-4,1.6,-5.6,2.5c2,4.8,5,6.5,7.6,6.5c.7,0,1.3,-.2,1.9,-.3c1.3,-.3,2.7,-.7,4,-1.3c4.9,-2.1,7.4,-5.7,6.2,-8.5Z" class="gu_2"/>
<path d="M135.1,398.6c0,1.8,0,3.5,-4.3,5.6c-4.9,2.5,-6.5,-1.1,-6.5,-2.8V386.1l10.8,-6.4Z" class="gp_2"/>
<path d="M121.9,399.9c0,0,3.6,-.4,2.4,-13.8l5.4,18.6c0,0,-4.9,2.6,-7.8,-4.8Z" class="gp_2"/>
<path d="M137.8,398.1c-.7,-1.6,-4.2,-1.6,-7.7,0c-3.6,1.6,-5.9,4.1,-5.1,5.7c.7,1.6,4.1,1.6,7.7,0c3.5,-1.6,5.8,-4.2,5.1,-5.7Z" class="gp_2"/>
<path d="M137.8,398.1c0,0,-3.8,-3.5,-2.7,-11.2l-4.9,10.8c0,0,5.5,4.6,7.6,.4Z" class="gp_2"/>
<path d="M149.2,374.9c0,11.1,-8,20,-17.8,20c-9.9,0,-17.8,-8.9,-17.8,-20c0,-11,7.9,-19.9,17.8,-19.9c9.8,0,17.8,8.9,17.8,19.9Z" class="gp_2"/>
<path d="M131.3,354.7c-9.9,0,-17.9,9,-17.9,20.1c0,7.5,3.7,13.9,9.1,17.4c-1.6,-2.8,-1.5,-6.5,-.2,-11.3l4.8,-.1c0,0,-2.4,-9.3,2.2,-12.8c2.4,-1.7,7.2,-1.8,10.4,-1.6c3.2,.2,2.7,4.6,2.7,4.6c.9,-1.5,1.3,-3.1,1.3,-3.1c1.7,1.3,1.2,3.6,1.2,3.6c1.5,-.9,1.4,-3.9,1.4,-3.9c2.1,.5,2.6,3.9,2.6,3.9c-.2,-3.7,-1.7,-16.8,-17.6,-16.8Z" class="go_2"/>
<path d="M123.7,384c0,0,-2.3,-1,-3,-3c-1.2,-3.1,-.2,-5.8,2.5,-3.2c2.1,2,.5,6.2,.5,6.2Z" class="gp_2"/>
<path d="M146.4,362.4c0,0,-1.5,-4.9,-8.5,-8.2c-8.1,-3.7,-22.2,-.6,-26.4,8.6c-8.9,19.7,9.7,28.5,9.7,28.5l-4.3,-12.7l8.9,-16.1c0,0,5.1,-1.1,6.3,-1.1c1.2,0,14.3,1,14.3,1Z" class="go_2"/>
<path d="M110.4,478c0,-10.7,3.2,-48.9,3.5,-51c.5,-4,-1,-19.9,-3.3,-18.1c-7.1,6,-7.8,8.2,-8.5,13.7c-.2,1.2,-.4,44.5,.4,55.2Z" class="gq_2"/>
<path d="M120.6,427.1c0,0,11,-5.2,19.8,-5.3c0,0,5,17.5,-1.9,19.9c-4.5,1.5,-6.6,2,-10.7,2.8c-5.9,1,-7.2,-17.4,-7.2,-17.4Z" class="gv_2"/>
<path d="M120.2,375.9c0,0,14.4,-.2,26.2,-2.4c18.4,-3.5,3.3,-5.5,3.3,-5.5c0,0,-15.1,-4,-29.5,7.9Z" class="gt_2"/>
<path d="M149.2,365.4c0,0,-11.1,-22.1,-30,-11.4c-18.3,10.3,-11.1,28.6,-8.8,29.5c2.2,.8,13.4,-22.9,38.8,-18.1Z" class="gt_2"/>
<path d="M111.3,384.5c-1,-.6,-1.3,-1.5,-.7,-2.4c.1,-.3,13.7,-22.1,36.4,-18.6c1.2,.2,2.3,0,2.8,1.4c.4,1,.5,3.3,-.6,3.1c-23.1,-4.3,-35.8,16.5,-36,16.7c-.4,.7,-1.6,0,-1.9,-.2Z" class="gv_2"/>
<path d="M87.2,747.6c.7,-4.4,1.3,-15.8,1.3,-15.8c-1.2,1.3,.4,3.6,-4.8,1.5c-2.8,-1.1,-3.9,-2.5,-4.4,-3.5c0,0,-2.1,20.6,-3,23.6c-1.8,6.2,34,9.4,37.7,8.9c3.7,-.5,8,.8,13.3,.3c5.4,-.5,8.2,-6.7,8.2,-7.6c.1,-.9,-.8,-.4,-4.8,.5c-4.1,.9,-8.5,-.4,-8.1,-1c.3,-.6,5.4,-.3,5.5,-1.3c.1,-1,-7.8,-2.9,-14.3,1.4c-1.5,1,-27.6,-1,-26.6,-7Z" class="gi_2"/>
<path d="M79.3,729.8c.5,1,1.6,2.4,4.4,3.5c5.2,2.1,3.6,-.1,4.8,-1.3c0,0,1,10,.3,14.4c-.9,5.6,18.1,7.8,24.4,8c1.2,2.4,1.5,5.4,.9,7.9c-.1,0,-.5,1.5,-.5,1.5C92.4,761,74.5,759.6,76.3,753.4c.9,-3,3,-23.6,3,-23.6Z" class="gj_2"/>
<path d="M109.2,754.1c1.6,.2,2.9,.2,4,.3c1.2,2.4,1.5,5.4,.9,7.9c-.1,0,-.5,1.5,-.5,1.5c-1.3,-.2,-2.6,-.3,-3.9,-.5c1,-2.9,.9,-6.3,-.5,-9.2Z" class="g0_2"/>
<path d="M49.8,718c0,0,7,-1.9,7.2,-6.8c.3,-6.4,-1.9,-10.5,-1.9,-10.5l13.8,1.2l3.6,8.4c0,0,-.5,1.5,-.7,3.1c0,1,4.5,-1.2,5.4,-.2c2.3,2.7,9.8,39.5,-27.4,4.8Z" class="gi_2"/>
<path d="M55.2,700.8c.2,.5,1.1,2.5,1.6,5.5c.2,1.4,.3,3.1,.2,4.9c-.1,2.5,-2,4.2,-3.8,5.3l4.5,4.9c0,0,2.8,-11.6,13.7,-7.7c.1,.1,.3,-.1,.4,-.2c0,0,0,-.1,0,-.1c.1,-.1,.1,-.3,.1,-.4q0,-.1,0,-.1c0,-.1,0,-.2,0,-.3c.2,-1.3,.6,-2.3,.6,-2.3l-3.6,-8.4L55.1,700.7c.1,0,.1,.1,.1,.1Z" class="gk_2"/>
<path d="M65.9,845.7c0,0,6.8,36.8,3.8,42.9c-3.4,6.8,3.9,18.2,8.3,20.4c4.3,2.2,7.8,2.1,6.8,-4.4C83.7,898.1,80.4,886.9,81,881.5c.6,-5.5,1.8,-35.9,3.1,-42.4c1.4,-6.6,-18.2,6.6,-18.2,6.6Z" class="gi_2"/>
<path d="M67.1,844.9l-.8,2.9c.2,1.3,.5,3,.9,5c3.4,-.7,9.8,-2.1,15.9,-4.5c.3,-4,.7,-7.4,1,-9.2c1.2,-5.5,-12.6,3,-17,5.8Z" class="gk_2"/>
<path d="M84.8,904.6c-.2,-.8,-.3,-1.7,-.5,-2.6c-1.9,.8,-9,-2.5,-9.4,-7.7C74.4,888.1,73,845,73,845l-6.6,3.3c1.5,7.9,5.8,35.2,3.3,40.3c-3.3,6.4,3.2,16.9,7.5,19.9c2.2,.4,4.5,.8,6.7,1.2c.9,-.8,1.3,-2.4,.9,-5.1Z" class="gk_2"/>
<path d="M46,845.6c0,0,8.1,44.8,5.1,50.9c-3.4,6.7,3.9,18.1,8.3,20.3c4.3,2.2,7.8,2.1,6.7,-4.3c-1,-6.5,-4.3,-17.7,-3.7,-23.1c.6,-5.5,1.8,-32.7,3.1,-39.3C66.9,843.6,46,845.6,46,845.6Z" class="gi_2"/>
<path d="M49.3,845.5v5.3c.3,1.2,-.2,.4,.2,2.4c3.2,.7,9.5,2.8,15.6,.5c.3,-4.1,.8,-6.1,1.2,-7.9c1.1,-5.5,-12.7,-3.1,-17,-.3Z" class="gk_2"/>
<path d="M66.1,912.5c-.1,-.8,-.2,-1.7,-.4,-2.6c-1.9,.7,-9,-2.5,-9.4,-7.7c-.5,-6.2,-2,-55.4,-2,-55.4L46,845.6c1.6,7.9,7.6,45.8,5.1,50.9c-3.3,6.4,3.2,16.9,7.5,19.9c2.2,.4,4.5,.8,6.7,1.1c.9,-.7,1.3,-2.3,.8,-5Z" class="gk_2"/>
<path d="M51.8,893.3c0,0,-4.6,1.7,-4.5,5.5c.1,3.7,-.3,1.8,.4,5.9c1.1,6.4,1.2,10.1,1.2,10.1c0,0,1.4,.5,1.9,-.8v-6.2c0,0,1.9,6.6,4.2,7.8c7.1,3.6,12.8,4.6,15.3,3.9c2.5,-.7,1.7,-3.8,-1.2,-8.1c-2.2,-3.4,-4.5,-6.8,-4.5,-6.8c0,0,2.3,7.5,.1,7.9c-2.2,.3,-14.4,-5,-12.9,-19.2Z" class="gl_2"/>
<path d="M45.7,783.5c0,0,-7.9,11.4,-4.5,26.2c2.5,10.2,6.3,16.5,4.6,24.6c-1.8,8.1,-2.9,10.2,-2.9,10.2c0,0,7.2,7.6,23,4.6c15.7,-2.9,23.3,-8.8,23.3,-8.8c0,0,-6.2,-7.2,0,-27.6c3.4,-11.6,2.2,-36.8,-2.9,-39.1c-5.1,-2.3,-40.6,9.9,-40.6,9.9Z" class="gl_2"/>
<path d="M80.1,692.3c2.1,-6.5,-3.2,-16.7,-16.8,-12.5C51.6,683.4,51,690.2,52.2,695c-1.2,.1,-2.2,.6,-2.4,2.5c-.3,3.5,2.9,6,5.3,5c1.8,2.2,6.4,5,9.1,6.2c9.3,4.3,13.1,3.9,16,-3.9c1.5,-4,3,-9.8,-.1,-12.5Z" class="gi_2"/>
<path d="M36.8,801.9c.4,2.6,.1,5.5,1.2,9c1.4,4.3,9.4,6.1,10.5,6.1c1.2,0,.4,-.7,-1.4,-3.9c-1.7,-3.2,-.8,-6.9,0,-6.6c.9,.2,1.3,4.4,2.5,4.4c1.2,-.1,2.3,-6.6,-3.9,-11.5c-3.5,3.3,-7.6,2.8,-8.9,2.5Z" class="gi_2"/>
<path d="M42.7,784.8c-.8,-4.3,-1.6,-10.2,-1.9,-18.1c-.2,-4.9,4.9,-16,4.9,-16c0,0,5.4,6.8,5.9,13.6c.1,2.7,-1.1,5.4,-2.7,8.2c6.8,12,38.6,6.1,38.8,.6c1.1,-.4,2.1,-.9,3.2,-1.4c-.3,-1.2,-.7,-2.5,-1.3,-3.7c-2.8,-6.1,-4.4,-7.4,-3.3,-14.9c1.1,-7.5,2.9,-6.8,2.9,-12c-.1,-2.4,-.7,-3.9,-1.2,-4.7c0,.1,-.1,.1,-.1,.1C84.3,730.6,83.6,726.3,81.8,719c-1.8,-7.3,-8.2,-7.6,-8.2,-7.6c.7,-.1,-1.4,0,-1.4,0c0,0,-.4,1.1,-.4,2c.7,6.8,-1.3,9.3,-1.3,9.3c0,0,-7.2,-1.9,-10.9,-5.6c-3.8,-3.7,-2.5,-6.9,-2.5,-6.9c0,0,-5.3,.9,-5.2,5.6c0,0,-15,9.1,-16.3,11.5c-.7,1.4,-8.7,12.6,-8.7,39.4c0,16.4,9.5,35.1,9.5,35.1c0,0,5.1,1.6,9.3,-2.4c1.4,-1.5,.7,-2.1,-.6,-5.6c.2,.1,-2,-7.1,-2.4,-9Z" class="g0_2"/>
<path d="M51.9,715.8c0,0,1.5,3.9,5.9,7.5c4.4,3.6,9.4,5.6,9.4,5.6l3.9,-5l5.9,2.2c0,0,.3,-2.4,-.2,-6c-.4,-3.7,-2.4,-6.9,-2.4,-6.9c0,0,1.3,4.9,1.3,7.5c.1,2.6,0,3.9,0,3.9l-5.2,-1.9l-3.8,4.7c0,0,-8.7,-2.8,-14.8,-11.6Z" class="gm_2"/>
<path d="M44.5,729.3c5.5,5.3,1.2,21.4,1.2,21.4c0,0,5.4,6.8,5.9,13.6c.4,6.1,-6.6,12.4,-8.9,20.5c0,0,1.3,6,2.4,9c3.5,2,9.4,2.4,16.2,1.3c1.7,-.3,3.2,-.6,4.6,-1c0,0,-16.3,3.1,-15.4,-7c1,-10.2,4.9,-9.5,6.8,-17.7c1.9,-8.2,-4.1,-15.3,-.9,-16.3c3.1,-1,1.9,.9,9.5,-.1c6.6,-.9,5.3,-3.8,11.2,-4.3c3.1,-.2,7.2,1.3,10.8,-1.7c.8,-1.9,1.3,-2.8,1.3,-5.9c-.1,-1.3,-.3,-2.4,-.6,-3.2c0,.2,.6,3.2,-3.9,5.2c-2.7,1.1,-5.1,-.3,-9,.5c-2,.5,-5.3,3.9,-12.9,3.9c-5.4,0,-9.1,-.6,-10.9,-7.6c-1.7,-7,-1.4,-11,-6.4,-13.6c-3.7,-1.9,-8.1,-1.1,-9.6,.7c-.1,.1,-.2,.2,-.3,.3c0,0,3.3,-3.2,8.9,2Z" class="gm_2"/>
<path d="M75.7,745.3c-.6,5.8,-.9,19,.1,22.9c.4,1.7,.4,6.8,.7,10.3c.5,-.1,1,0,1.5,-.2c-.2,-2.8,-.3,-7.7,-.9,-10.1c-1.9,-7.6,0,-17.8,0,-22.9c0,-9,-4.6,-20.9,-4.6,-20.9l-1.4,-.5c0,0,5.2,15.7,4.6,21.4Z" class="gm_2"/>
<path d="M78,709.1c3.3,0,7.7,1.8,10.3,12.8c.7,2.7,1.1,9.7,.5,16.4c-.5,-1.7,-1.4,-2.7,-2.3,-4.3c-2,-3.8,-3.5,-10.2,-4.7,-15c-1.2,-4.8,-4.7,-6.5,-4.7,-6.5c-1.8,-.6,-3.5,-1.1,-3.5,-1.1c1.8,-.1,3.2,-.8,4.4,-2.3Z" class="gj_2"/>
<path d="M70.4,885.4c0,0,-4.6,1.8,-4.5,5.5c.1,3.7,-.3,1.9,.4,5.9c1.1,6.4,1.2,10.1,1.2,10.1h1.9v-7c0,0,1.9,6.7,4.2,7.8c7.1,3.6,12.8,4.6,15.3,3.9c2.5,-.7,1.7,-3.8,-1.2,-8.1c-2.2,-3.4,-4.5,-6.7,-4.5,-6.7c0,0,2.3,7.4,.1,7.8c-2.2,.4,-14.4,-5,-12.9,-19.2Z" class="gl_2"/>
<path d="M70.9,723.5l-2.5,3.3c0,0,3.1,4.1,5.1,3.7c2,-.3,1.8,-5.2,1.8,-5.2Z" class="gl_2"/>
<path d="M72.4,727.5l-1.3,2.3c0,0,4.2,12.8,4.3,17.7c.2,5.4,-.6,15.2,-.6,15.2l3.2,4.2l2.8,-5c0,0,.5,-11.2,.1,-14.9c-.5,-3.8,-6,-18.3,-6,-18.3Z" class="gl_2"/>
<path d="M42.7,784.8c-.8,-4.3,-1.6,-10.2,-1.9,-18.1c-.2,-4.9,4.9,-16,4.9,-16c0,0,5.4,6.8,5.9,13.6c.4,6.1,-6.6,12.4,-8.9,20.5M35.6,727.3c-.7,1.4,-8.7,12.6,-8.7,39.4c0,12.8,5.8,27,8.3,32.7c0,0,5.3,.8,10.7,-3.7l-.8,-1.9c3.5,2,9.4,2.4,16.2,1.3c7.6,-1.2,11.8,-2.2,13.9,-4.4c-1.6,-15.6,-.9,-33.5,-4.1,-43.5C66.7,733.4,62.8,734.1,55,723.9c-3.4,-4.4,-3.1,-8.1,-3.1,-8.1c0,0,-15,9.1,-16.3,11.5Z" class="gn_2"/>
<path d="M73.6,711.4v0q.2,0,0,0Z" class="gn_2"/>
<path d="M89.6,768c-2.8,-6.1,-4.4,-7.4,-3.3,-14.9c1.1,-7.5,2.9,-6.8,2.9,-12c-.1,-2.4,-.7,-3.9,-1.2,-4.7c0,.1,-.1,.1,-.1,.1C84.3,730.6,83.6,726.3,81.8,719c-1.8,-7.3,-8.2,-7.6,-8.2,-7.6c0,0,5.6,7.7,5.8,17.5c.3,9.8,4.8,13.4,3.1,24c-2.8,16.6,0,35.8,0,35.8c.9,0,1.9,-.2,3.1,-.6c8.2,-2.8,6.5,-7.3,6.5,-7.3c0,0,.3,-6.7,-2.5,-12.8Z" class="gn_2"/>
<path d="M63.1,794.8c.2,-.1,.5,-.1,.7,-.2c.2,0,.4,-.1,.6,-.1c.2,-.1,.4,-.1,.6,-.2c.2,0,.4,-.1,.6,-.1q.1,-.1,.2,-.1c-.9,.1,-16.2,2.8,-15.3,-7c1,-10.2,4.9,-9.5,6.8,-17.7c1.9,-8.2,-4.1,-15.3,-.9,-16.3c3.1,-1,1.9,.9,9.5,-.1c3.5,-.5,4.8,-1.5,6.1,-2.5c-.3,-1.1,-.5,-2.2,-.9,-3.3c-.1,-.4,-.2,-.8,-.4,-1.2c-1.9,.8,-4.4,1.5,-7.9,1.5c-5.4,0,-9.1,-.6,-10.9,-7.6c-1.7,-7,-1.4,-11,-6.4,-13.6c-3.7,-1.9,-8.1,-1.1,-9.6,.7c-.1,.1,-.2,.2,-.3,.3c0,0,3.4,-3.2,8.9,2c5.5,5.3,1.2,21.4,1.2,21.4c0,0,5.4,6.8,5.9,13.6c.4,6.1,-6.6,12.4,-8.9,20.5c0,0,1.3,6,2.4,9c3.5,2,9.4,2.4,16.2,1.3c.4,-.1,.9,-.2,1.3,-.2c.2,-.1,.3,-.1,.5,-.1Z" class="gj_2"/>
<path d="M58.4,672.8c0,0,-13.3,1.9,-14.7,13.7c-1.4,11.7,2.3,22.7,3.4,25.2c2.7,6.3,15.1,12.2,15.1,12.2c0,0,-9.3,-28.6,-2.1,-41c0,0,11,2.7,19.8,2.7c0,0,1.2,-16.5,-21.5,-12.8Z" class="go_2"/>
<path d="M718,1027.5h-8.6v-5.6H718v5.6Z" class="g0_2"/>
<path d="M718,1027.5h-8.6v-5.6H718v5.6Z" class="g0_2"/>
<path d="M713.7,1021.3h-8.6v-5.6h8.6v5.6Z" class="g0_2"/>
<path d="M698.5,1030.4H685.7v-16.5h12.8v16.5Z" class="g0_2"/>
<path d="M713.6,1025.4c.5,0,.8,-.3,.8,-.7c0,-.4,-.3,-.7,-.7,-.8c-.4,0,-.8,.4,-.8,.8c0,.4,.3,.7,.7,.7m-2.2,-.6v1q0,.2,.3,.2h3.8c.1,0,.2,0,.3,0c0,0,.1,-.1,.1,-.1c0,-.4,0,-.7,0,-1.1c-.4,0,-.7,0,-1,0q-.2,0,-.3,.2c-.2,.5,-.7,.8,-1.3,.6c-.4,-.1,-.6,-.4,-.6,-.8Zm4.5,-.3v-.9q0,-.3,-.3,-.3h-3.1c-.3,0,-.6,0,-.9,0c-.1,0,-.2,0,-.2,.2c0,.3,0,.7,0,1h1.3c0,0,0,-.1,0,-.1c.2,-.5,.5,-.7,.9,-.7c.5,0,.9,.2,1,.7c0,0,.1,.1,.2,.1c.3,0,.7,0,1.1,0m-2.6,10.2c.7,0,1.5,0,2.2,-.1c.3,0,.4,-.1,.4,-.4c0,-.3,0,-.6,0,-.9c0,-.2,-.1,-.4,-.4,-.4c-1.5,0,-2.9,0,-4.4,0c-.3,0,-.4,.2,-.4,.4c0,.3,0,.6,0,.9c0,.3,.1,.4,.4,.4c.8,.1,1.5,.1,2.2,.1m-6.6,-.1c.8,0,1.5,.1,2.2,0c.3,0,.4,-.1,.4,-.3c0,-.3,0,-.7,0,-1c0,-.2,-.1,-.4,-.4,-.4c-1.4,0,-2.9,0,-4.4,0c-.2,0,-.3,.2,-.3,.4c0,.3,0,.6,0,.9c0,.3,.1,.4,.4,.4c.7,.1,1.4,.1,2.1,0m-13.1,-1.7c-.7,0,-1.4,0,-2.2,0c-.2,0,-.3,.2,-.3,.4c0,.3,0,.7,0,1c0,.2,.1,.3,.3,.3c1.5,.1,3,.1,4.5,0c.2,0,.3,-.1,.3,-.3c0,-.3,0,-.5,0,-.8c0,-.5,0,-.6,-.5,-.6Zm6.6,0c-.7,0,-1.5,0,-2.2,0c-.3,0,-.4,.2,-.4,.4c0,.3,0,.7,0,1c0,.2,.1,.3,.4,.3c1.5,.1,2.9,.1,4.4,0c.3,0,.4,-.1,.4,-.3c0,-.3,0,-.6,0,-.9c0,-.4,-.1,-.5,-.4,-.5c-.8,0,-1.5,0,-2.2,0m-6.5,-9.6h-.2c-.7,0,-1.5,0,-2.2,0c-.4,0,-.5,.2,-.5,.6c0,.5,0,1.1,0,1.7c0,.4,.1,.5,.5,.5c.8,0,1.5,0,2.2,0c.1,0,.2,0,.2,0v.3c0,.7,0,1.4,0,2.2c0,.3,.2,.5,.6,.5c.6,0,1.1,0,1.7,0c.4,0,.6,-.2,.6,-.5c0,-.8,0,-1.5,0,-2.2v-.3c.8,0,1.6,0,2.4,0c.4,0,.5,-.1,.5,-.5c0,-.6,0,-1.2,0,-1.7c0,-.4,-.1,-.6,-.5,-.6c-.8,0,-1.5,0,-2.2,0h-.2v-.2c0,-.8,0,-1.5,0,-2.2c0,-.4,-.2,-.6,-.5,-.6c-.6,0,-1.3,0,-1.9,0c-.3,0,-.4,.2,-.5,.5c0,.5,0,1,0,1.5Zm25.7,12.5c-.1,0,-.1,.1,-.1,.1c-.3,1.4,-1.5,2.3,-2.9,2.3c-8.5,0,-17,0,-25.4,0c-.4,0,-.8,0,-1.2,-.1c-1.3,-.3,-2.2,-1.4,-2.2,-2.8c0,-2.5,0,-4.9,0,-7.3v-6.2c0,-1.8,1.2,-3,3,-3c8.6,0,17.1,0,25.7,-.1c1.6,0,2.8,1.2,3,2.4q0,.1,.1,.1Z" class="g0_2"/>
<path d="M713.6,1025.4c.5,0,.8,-.3,.8,-.7c0,-.4,-.3,-.7,-.7,-.8c-.4,0,-.8,.4,-.8,.8c0,.4,.3,.7,.7,.7Zm-2.2,-.6v1q0,.2,.3,.2h3.8c.1,0,.2,0,.3,0c0,0,.1,-.1,.1,-.1c0,-.4,0,-.7,0,-1.1c-.4,0,-.7,0,-1,0q-.2,0,-.3,.2c-.2,.5,-.7,.8,-1.3,.6c-.4,-.1,-.6,-.4,-.6,-.8h-1.3Zm4.5,-.3v-.9q0,-.3,-.3,-.3h-3.1c-.3,0,-.6,0,-.9,0c-.1,0,-.2,0,-.2,.2c0,.3,0,.7,0,1h1.3c0,0,0,-.1,0,-.1c.2,-.5,.5,-.7,.9,-.7c.5,0,.9,.2,1,.7c0,0,.1,.1,.2,.1c.3,0,.7,0,1.1,0Zm-2.6,10.2c.7,0,1.5,0,2.2,-.1c.3,0,.4,-.1,.4,-.4c0,-.3,0,-.6,0,-.9c0,-.2,-.1,-.4,-.4,-.4c-1.5,0,-2.9,0,-4.4,0c-.3,0,-.4,.2,-.4,.4c0,.3,0,.6,0,.9c0,.3,.1,.4,.4,.4c.8,.1,1.5,.1,2.2,.1Zm-6.6,-.1c.8,0,1.5,.1,2.2,0c.3,0,.4,-.1,.4,-.3c0,-.3,0,-.7,0,-1c0,-.2,-.1,-.4,-.4,-.4c-1.4,0,-2.9,0,-4.4,0c-.2,0,-.3,.2,-.3,.4c0,.3,0,.6,0,.9c0,.3,.1,.4,.4,.4c.7,.1,1.4,.1,2.1,0Zm-13.1,-1.7c-.7,0,-1.4,0,-2.2,0c-.2,0,-.3,.2,-.3,.4c0,.3,0,.7,0,1c0,.2,.1,.3,.3,.3c1.5,.1,3,.1,4.5,0c.2,0,.3,-.1,.3,-.3c0,-.3,0,-.5,0,-.8c0,-.5,0,-.6,-.5,-.6h-2.1Zm6.6,0c-.7,0,-1.5,0,-2.2,0c-.3,0,-.4,.2,-.4,.4c0,.3,0,.7,0,1c0,.2,.1,.3,.4,.3c1.5,.1,2.9,.1,4.4,0c.3,0,.4,-.1,.4,-.3c0,-.3,0,-.6,0,-.9c0,-.4,-.1,-.5,-.4,-.5c-.8,0,-1.5,0,-2.2,0Zm-6.5,-9.6h-.2c-.7,0,-1.5,0,-2.2,0c-.4,0,-.5,.2,-.5,.6c0,.5,0,1.1,0,1.7c0,.4,.1,.5,.5,.5c.8,0,1.5,0,2.2,0c.1,0,.2,0,.2,0v.3c0,.7,0,1.4,0,2.2c0,.3,.2,.5,.6,.5c.6,0,1.1,0,1.7,0c.4,0,.6,-.2,.6,-.5c0,-.8,0,-1.5,0,-2.2v-.3c.8,0,1.6,0,2.4,0c.4,0,.5,-.1,.5,-.5c0,-.6,0,-1.2,0,-1.7c0,-.4,-.1,-.6,-.5,-.6c-.8,0,-1.5,0,-2.2,0h-.2v-.2c0,-.8,0,-1.5,0,-2.2c0,-.4,-.2,-.6,-.5,-.6c-.6,0,-1.3,0,-1.9,0c-.3,0,-.4,.2,-.5,.5c0,.5,0,1,0,1.5v1Zm25.7,12.5c-.1,0,-.1,.1,-.1,.1c-.3,1.4,-1.5,2.3,-2.9,2.3c-8.5,0,-17,0,-25.4,0c-.4,0,-.8,0,-1.2,-.1c-1.3,-.3,-2.2,-1.4,-2.2,-2.8c0,-2.5,0,-4.9,0,-7.3v-6.2c0,-1.8,1.2,-3,3,-3c8.6,0,17.1,0,25.7,-.1c1.6,0,2.8,1.2,3,2.4q0,.1,.1,.1v14.6Z" class="gh_2"/>
<path d="M718.5,1036.1H688.3v-6.3h30.2v6.3Z" class="g0_2"/>
<path d="M700.7,1029.6H690.1v-9.9h10.6v9.9Z" class="g0_2"/>
<path d="M716.7,1027.1h-8.6v-5.6h8.6v5.6Z" class="g0_2"/>
</svg>