<?xml version="1.0" encoding="UTF-8" standalone="no"?>
<!DOCTYPE svg PUBLIC "-//W3C//DTD SVG 1.1//EN"
"http://www.w3.org/Graphics/SVG/1.1/DTD/svg11.dtd">
<svg viewBox="0 0 909 1286" version="1.1" xmlns="http://www.w3.org/2000/svg" xmlns:xlink="http://www.w3.org/1999/xlink">
<defs>
<clipPath id="c0_1"><path d="M0,1286.2V0H909.3V1286.2Z"/></clipPath>
<clipPath id="c1_1"><path d="M98.3,1197.1c-19.2,0,-34.8,-15.6,-34.8,-34.8c0,-19.2,15.6,-34.8,34.8,-34.8c19.2,0,34.8,15.6,34.8,34.8c0,19.2,-15.6,34.8,-34.8,34.8Z"/></clipPath>
<clipPath id="c2_1"><path d="M226.7,119.4V39.5H375.6v79.9Z"/></clipPath>
<style type="text/css"><![CDATA[
.g0_1{
fill: #FFFFFF;
}
.g1_1{
fill: none;
stroke: #273C92;
stroke-width: 1.527;
stroke-linecap: butt;
stroke-linejoin: miter;
}
.g2_1{
fill: #FFCB05;
}
.g3_1{
fill: #EA3A4D;
}
.g4_1{
fill: #DADBDC;
}
.g5_1{
fill: none;
stroke: #273C92;
stroke-width: 3.055;
stroke-linecap: butt;
stroke-linejoin: miter;
}
.g6_1{
fill: none;
stroke: #0055A5;
stroke-width: 1.527;
stroke-linecap: butt;
stroke-linejoin: miter;
}
]]></style>
</defs>
<image clip-path="url(#c0_1)" preserveAspectRatio="none" x="0" y="0" width="909" height="1286" xlink:href="img/1.jpg"/>
<path d="M790.9,854.5H539.4c-21.4,0,-38.8,-17.4,-38.8,-38.8V678.6c0,-21.5,17.4,-38.8,38.8,-38.8H790.9c21.4,0,38.7,17.3,38.7,38.8V815.7c0,21.4,-17.3,38.8,-38.7,38.8Z" class="g0_1"/>
<path d="M790.9,854.5H539.4c-21.4,0,-38.8,-17.4,-38.8,-38.8V678.6c0,-21.5,17.4,-38.8,38.8,-38.8H790.9c21.4,0,38.7,17.3,38.7,38.8V815.7c0,21.4,-17.3,38.8,-38.7,38.8Z" class="g1_1"/>
<path d="M787.9,1245H139.2c-21.4,0,-38.8,-17.3,-38.8,-38.7v-170c0,-21.4,17.4,-38.8,38.8,-38.8H787.9c21.4,0,38.8,17.4,38.8,38.8v170c0,21.4,-17.4,38.7,-38.8,38.7Z" class="g0_1"/>
<path d="M787.9,1245H139.2c-21.4,0,-38.8,-17.3,-38.8,-38.7v-170c0,-21.4,17.4,-38.8,38.8,-38.8H787.9c21.4,0,38.8,17.4,38.8,38.8v170c0,21.4,-17.4,38.7,-38.8,38.7Z" class="g1_1"/>
<path d="M529.2,612.4H128.1c-12.2,0,-22.1,-9.9,-22.1,-22.1V554.1c0,-12.2,9.9,-22.1,22.1,-22.1H529.2c12.2,0,22.1,9.9,22.1,22.1v36.2c0,12.2,-9.9,22.1,-22.1,22.1Z" class="g2_1"/>
<path d="M305.7,298.4H66.1V261.6H305.7v36.8Z" class="g3_1"/>
<path d="M390.6,854.5H139.2c-21.4,0,-38.8,-17.4,-38.8,-38.8V678.6c0,-21.5,17.4,-38.8,38.8,-38.8H390.6c21.4,0,38.8,17.3,38.8,38.8V815.7c0,21.4,-17.4,38.8,-38.8,38.8Z" class="g0_1"/>
<path d="M390.6,854.5H139.2c-21.4,0,-38.8,-17.4,-38.8,-38.8V678.6c0,-21.5,17.4,-38.8,38.8,-38.8H390.6c21.4,0,38.8,17.3,38.8,38.8V815.7c0,21.4,-17.4,38.8,-38.8,38.8Z" class="g1_1"/>
<path d="M526.3,971.9H125.1C112.9,971.9,103,962,103,949.8V913.6c0,-12.2,9.9,-22.1,22.1,-22.1H526.3c12.2,0,22,9.9,22,22.1v36.2c0,12.2,-9.8,22.1,-22,22.1Z" class="g2_1"/>
<path d="M137.1,742.9c0,20.1,-16.2,36.3,-36.3,36.3c-20,0,-36.3,-16.2,-36.3,-36.3c0,-20,16.3,-36.3,36.3,-36.3c20.1,0,36.3,16.3,36.3,36.3Z" class="g4_1"/>
<path d="M135,739.5c0,20,-16.2,36.3,-36.2,36.3c-20.1,0,-36.3,-16.3,-36.3,-36.3c0,-20,16.2,-36.3,36.3,-36.3c20,0,36.2,16.3,36.2,36.3Z" class="g0_1"/>
<path d="M135,739.5c0,20,-16.2,36.3,-36.2,36.3c-20.1,0,-36.3,-16.3,-36.3,-36.3c0,-20,16.2,-36.3,36.3,-36.3c20,0,36.2,16.3,36.2,36.3Z" class="g5_1"/>
<path d="M75.1,737.2c-.3,.6,0,1.3,.5,1.6l2.7,1.3c.2,.1,.6,.1,.9,0c.3,-.1,.5,-.3,.7,-.6l6.5,-13.6c.3,-.6,0,-1.2,-.5,-1.5L83.3,723c-.3,-.1,-.7,-.1,-1,0c-.3,.1,-.5,.3,-.6,.6Zm39.5,3l-6.1,-12.9c-3.4,.2,-5.6,-1.5,-9.3,-1.5c-1,0,-2.9,.6,-4.7,1.4H87.7l-1,2.2h4.5c0,.1,-.1,.1,-.2,.2c-1.7,2.5,-.5,3.7,-1.8,6.5c-.8,1.5,1.6,2.6,3.4,1.8c1.5,-.6,3,-2,3.3,-4.1c.1,-.7,1.1,-1.7,2.2,-1.7c.7,0,1.1,.1,1.7,.3l.9,.9l11.5,10.1c.8,.5,1,1.6,.4,2.3c-.5,.7,-1.6,.9,-2.3,.4c0,0,-7.3,-5.2,-8.4,-6c-1.1,-.8,-2,.5,-1,1.3c1,.7,6.8,4.9,8.1,5.8c.6,.5,.8,1.3,.3,1.9c-.4,.6,-1.2,.7,-1.8,.3c0,0,-6.2,-4.5,-7.3,-5.3c-1.1,-.7,-2.1,.6,-1,1.4c.8,.6,4.4,3.1,6.2,4.4c.6,.5,.8,1.3,.3,1.9c-.4,.6,-1.2,.7,-1.8,.3c0,0,-4.6,-3.3,-5.7,-4.1c-1.1,-.8,-2.1,.6,-1,1.4c.6,.4,2.5,1.7,3.9,2.7c0,.3,-.1,.5,-.2,.7c-.5,.6,-1.3,.7,-1.9,.3l-.8,-.6c-.1,-.3,-.3,-.6,-.6,-.8c-.3,-.2,-.6,-.3,-.9,-.4l-1.2,-.9c0,-.6,-.3,-1.3,-.9,-1.7c-.5,-.4,-1.2,-.5,-1.8,-.3l-.7,-.6c0,-.7,-.3,-1.5,-1,-2c-.5,-.4,-1.2,-.5,-1.8,-.4l-.5,-.5c.3,-.9,0,-2,-.9,-2.6c-.6,-.5,-1.4,-.5,-2.1,-.3l-3.1,-3.8l-.8,1.7c-.1,0,-.1,.1,-.1,.1l2.6,3.3l-1.7,2.2c-.7,1.1,-.5,2.5,.6,3.2c1,.8,2.5,.6,3.2,-.5c-.7,1.1,-.5,2.5,.5,3.3c1.1,.7,2.5,.5,3.3,-.6l-.1,.2c-.7,.9,-.5,2.3,.5,3c1,.7,2.3,.4,3,-.5l.5,-.7c-.6,.9,-.4,2.1,.4,2.8c.9,.6,2.2,.4,2.8,-.5l.6,-.8c1.4,1,3.3,.7,4.2,-.6c.2,-.2,.3,-.4,.3,-.6c.3,.1,.4,.2,.4,.2c1.3,1,3.2,.7,4.2,-.6c.3,-.5,.5,-1.1,.5,-1.6c1.2,.2,2.4,-.2,3.1,-1.2c.4,-.6,.6,-1.3,.5,-2c1.1,0,2.1,-.4,2.8,-1.3c1,-1.4,.8,-3.2,-.4,-4.3Zm6.4,-3c.3,.6,0,1.3,-.5,1.6l-2.7,1.3c-.2,.1,-.6,.1,-.9,0c-.3,-.1,-.5,-.3,-.7,-.6l-6.5,-13.6c-.3,-.6,0,-1.2,.5,-1.5l2.6,-1.4c.3,-.1,.7,-.1,1,0c.3,.1,.5,.3,.6,.6Z" class="g3_1"/>
<path d="M137.1,1066.6c0,20,-16.2,36.2,-36.3,36.2c-20,0,-36.3,-16.2,-36.3,-36.2c0,-20.1,16.3,-36.3,36.3,-36.3c20.1,0,36.3,16.2,36.3,36.3Z" class="g4_1"/>
<path d="M135,1063.1c0,20.1,-16.2,36.3,-36.2,36.3c-20.1,0,-36.3,-16.2,-36.3,-36.3c0,-20,16.2,-36.3,36.3,-36.3c20,0,36.2,16.3,36.2,36.3Z" class="g0_1"/>
<path d="M135,1063.1c0,20.1,-16.2,36.3,-36.2,36.3c-20.1,0,-36.3,-16.2,-36.3,-36.3c0,-20,16.2,-36.3,36.3,-36.3c20,0,36.2,16.3,36.2,36.3Z" class="g5_1"/>
<path d="M122.4,1057.4c-.3,-.3,-.9,-.3,-1.2,0l-.8,.8l-1.1,-1.1c.8,-.8,1.3,-1.3,1.3,-1.3c1,-1,1,-2.7,0,-3.8c-1.1,-1,-2.8,-1,-3.8,0c0,0,-8.2,8.2,-13,13l3.8,3.8c3.1,-3.1,7.6,-7.6,10.4,-10.4l1.1,1.1l-6.4,6.4c-.4,.4,-.4,1,0,1.3c.3,.4,4.7,-3.4,9.7,-8.5c.4,-.3,.4,-.9,0,-1.3m-34.1,18.1c.4,0,.7,-.3,.7,-.7c.1,-2.2,.7,-4.2,1.2,-4.6c.2,.6,.3,2.3,.3,3.3c.1,2.3,.1,3.3,1.1,3.3c1,0,1.5,-.9,1.9,-1.5c.1,-.1,.2,-.2,.2,-.3c.1,.1,.1,.2,.2,.3c.3,.6,1.2,1.5,2.4,1.5c.1,0,.2,0,.3,-.1l.6,-.6c1.5,.3,4.8,-1.7,8.1,-5c.4,-.4,.8,-.8,1.3,-1.3l-3.8,-3.8c-.5,.5,-.9,.9,-1.3,1.3c-3.3,3.3,-5.3,6.6,-5,8.1l-.2,.2c-.8,0,-1.1,-.4,-1.4,-1c-.2,-.4,-.3,-.8,-.8,-1.1c-.8,-.4,-1.4,.5,-1.7,1.1c-.1,.1,-.3,.4,-.4,.6c-.1,-.5,-.1,-1.2,-.1,-1.8c-.1,-2.7,-.2,-4.7,-1.5,-4.7c-2.3,0,-2.7,4.7,-2.7,6.1c0,.4,.3,.7,.6,.7m6.4,-24.3h8.8c.2,0,.4,-.1,.4,-.3v-.7c0,-.2,-.2,-.3,-.4,-.3H94.7c-.1,0,-.3,.1,-.3,.3v.7c0,.2,.2,.3,.3,.3m-.3,2.4c0,.2,.2,.3,.3,.3h8.8c.2,0,.4,-.1,.4,-.3v-.7c0,-.2,-.2,-.3,-.4,-.3H94.7c-.1,0,-.3,.1,-.3,.3Zm5.5,12.5c.1,-.1,.1,-.2,.2,-.3l1.1,-1.1H88c-.2,0,-.3,.1,-.3,.3v.7c0,.2,.1,.4,.3,.4Zm8,12.8c0,.3,-.3,.6,-.7,.6H84.3c-.4,0,-.7,-.3,-.7,-.6v-25h4.1c1.5,0,2.7,-1.2,2.7,-2.7v-4h16.8c.4,0,.7,.3,.7,.7V1058l2.7,-2.7v-8.1c0,-1.5,-1.2,-2.7,-2.7,-2.7H90.1c-.7,0,-1.4,.3,-1.9,.8l-6.5,6.5c-.5,.5,-.8,1.2,-.8,1.9v25.8c0,1.5,1.3,2.7,2.7,2.7h24.3c1.5,0,2.7,-1.2,2.7,-2.7v-10.8l-2.7,2.7ZM88,1062c-.2,0,-.3,.2,-.3,.3v.8c0,.1,.1,.3,.3,.3h14.6l1.3,-1.4Zm0,-2.7h15.5c.2,0,.4,.2,.4,.3v.8c0,.1,-.2,.3,-.4,.3H88c-.2,0,-.3,-.2,-.3,-.3v-.8c0,-.1,.1,-.3,.3,-.3Z" class="g3_1"/>
<path d="M136.6,1165.7c0,20.1,-16.2,36.3,-36.2,36.3c-20.1,0,-36.3,-16.2,-36.3,-36.3c0,-20,16.2,-36.3,36.3,-36.3c20,0,36.2,16.3,36.2,36.3Z" class="g4_1"/>
<path d="M134.6,1162.3c0,20,-16.3,36.3,-36.3,36.3c-20,0,-36.3,-16.3,-36.3,-36.3c0,-20,16.3,-36.3,36.3,-36.3c20,0,36.3,16.3,36.3,36.3Z" class="g0_1"/>
<path d="M134.6,1162.3c0,20,-16.3,36.3,-36.3,36.3c-20,0,-36.3,-16.3,-36.3,-36.3c0,-20,16.3,-36.3,36.3,-36.3c20,0,36.3,16.3,36.3,36.3Z" class="g5_1"/>
<g clip-path="url(#c1_1)">
<path d="M132.7,1184.2c-.8,.2,-1.5,.4,-2.3,.6c-2.5,.5,-5.1,.7,-7.6,.7c-2.2,0,-4.3,0,-6.4,-.1c-2.5,-.1,-5,-.3,-7.4,-1.1q-.6,-.1,-.5,-.7c.3,-1.8,.6,-3.5,1.3,-5.2c.4,-.8,.9,-1.4,1.7,-1.9c2,-1.1,4,-2,6.2,-2.4c.1,0,.2,0,.4,0c-.8,.8,-1.6,1.7,-2.5,2.5q.2,0,.3,0c.7,.1,1.5,.1,2.2,.1c.2,0,.3,.1,.4,.2c.6,1.4,1.3,2.7,1.9,4c0,.1,.1,.2,.2,.3c0,-.1,.1,-.2,.1,-.3c.7,-1.3,1.3,-2.6,2,-3.9c.1,-.2,.2,-.3,.4,-.3c.8,0,1.5,0,2.3,0c0,0,.1,-.1,.1,-.1c-.8,-.8,-1.6,-1.6,-2.4,-2.5v-.1c.6,.2,1.2,.3,1.8,.5c1.7,.4,3.2,1.1,4.7,2c.8,.5,1.3,1.1,1.7,2c.6,1.2,.9,2.6,1.2,4c.1,.5,.1,1.1,.2,1.7Z" class="g3_1"/>
<path d="M72.2,1175c.7,2.3,1.5,4.6,2.2,6.8c0,0,.1,0,.1,0c0,-.4,0,-.8,0,-1.2c.1,-.3,.1,-.6,.1,-.9c-.1,-.6,.1,-1,.6,-1.3c.1,-.1,.2,-.2,.4,-.4c-.3,-.2,-.6,-.4,-1,-.7c.4,-.3,.7,-.6,1.1,-.9c.4,.3,.7,.6,1.1,.9c-.3,.2,-.6,.5,-1,.7c.3,.3,.6,.5,.8,.8c.1,.1,.2,.3,.2,.4c.1,.9,.1,1.7,.2,2.6c.8,-2.3,1.5,-4.5,2.2,-6.8c.7,.1,1.4,.3,2.1,.5c1,.3,2.1,.7,3.2,1.1c.9,.3,1.4,1,1.8,1.9c.6,1.7,1.1,3.5,1.5,5.4c-.6,.2,-1.2,.5,-1.9,.7c-1.5,.4,-3,.7,-4.6,.8c-2.5,.3,-4.9,.4,-7.4,.3c-2.9,-.1,-5.8,-.4,-8.6,-1.2c-.5,-.1,-1,-.3,-1.5,-.5c0,-.1,-.1,-.2,-.1,-.3c.4,-1.8,.8,-3.6,1.5,-5.3c.3,-.8,.8,-1.4,1.7,-1.8c1.7,-.7,3.4,-1.2,5.2,-1.6c0,0,.1,0,.1,0Z" class="g3_1"/>
<path d="M71.2,1166.3c-.8,-1.1,-.5,-3.4,.3,-4.3c.5,-.6,1,-.8,2,-.9c.1,-.5,.4,-.6,.9,-.7c1.9,-.3,4.6,.9,5.5,2.6c.3,.4,.4,.9,.5,1.4c0,.5,-.1,1.1,-.2,1.6c0,.2,0,.3,.1,.4c.4,.5,.4,1.1,.3,1.7c0,.5,-.1,.9,-.6,1.1c-.1,0,-.1,.1,-.1,.2c-.2,.6,-.5,1.1,-1,1.6c0,.1,-.1,.3,-.1,.4c-.1,.7,-.1,1.5,-.2,2.3c0,.1,-.1,.3,-.2,.3c-.8,.6,-1.7,1.2,-2.5,1.8c-.1,.1,-.2,.1,-.4,0c-.8,-.6,-1.7,-1.2,-2.5,-1.8c-.1,0,-.2,-.2,-.2,-.3c-.1,-.8,-.1,-1.5,-.2,-2.3c0,-.1,-.1,-.3,-.1,-.4c-.3,-.4,-.6,-.8,-.8,-1.2c-.2,-.3,-.2,-.6,-.5,-.8c-.2,-.1,-.3,-.5,-.4,-.7c-.1,-.7,-.1,-1.4,.4,-2Z" class="g3_1"/>
<path d="M118.5,1162.7c-.2,.2,-.3,.4,-.4,.6c-.8,1.2,-1.8,2.2,-2.9,3.2c-.1,.1,-.1,.2,-.1,.3c.2,1.1,.4,2.2,.9,3.2c.9,1.7,2.2,2.8,4.1,3.2c.3,0,.6,.1,.8,0c.8,-.1,1.4,-.4,2,-.8c1.3,-.9,2.1,-2.2,2.5,-3.8c.2,-.4,.2,-.8,.3,-1.2c-1.1,-.3,-2,-.5,-3,-.7c-1.9,-.5,-3.2,-1.6,-4,-3.4c-.1,-.2,-.1,-.4,-.2,-.6m.2,10.8h-4.8c0,-.2,0,-.3,0,-.3c0,-2.2,0,-4.3,0,-6.4c0,-2.7,1.6,-5.2,4.1,-6.1c4,-1.4,8.1,.4,9.1,4.8c.1,.4,.1,.8,.1,1.3c0,2.1,0,4.3,0,6.4q0,.1,0,.2h-4.8q.2,.2,.4,.3c-.8,2.1,-1.5,4.1,-2.2,6.2c-.4,-.9,-.7,-1.7,-.9,-2.6c-.4,-1.1,-.8,-2.1,-1.2,-3.2c0,-.2,-.2,-.5,.2,-.6Z" class="g3_1"/>
<path d="M97.2,1158.6h-6c-.1,0,-.2,.1,-.2,.2v.5c0,.1,.1,.2,.2,.2h6c.1,0,.2,-.1,.2,-.2v-.5c0,-.1,-.1,-.2,-.2,-.2m4.8,-14.5c0,-.1,0,-.2,-.2,-.2H96.7c-.1,0,-.2,.1,-.2,.2v.5c0,.1,.1,.2,.2,.2h5.1c.2,0,.2,-.1,.2,-.2Zm-11,11.5c0,.2,.1,.2,.2,.2h12.5c.1,0,.2,0,.2,-.2v-.5c0,-.1,-.1,-.2,-.2,-.2H91.2c-.1,0,-.2,.1,-.2,.2Zm0,-1.8c0,.1,.1,.2,.2,.2h12.5c.1,0,.2,-.1,.2,-.2v-.5c0,-.1,-.1,-.2,-.2,-.2H91.2c-.1,0,-.2,.1,-.2,.2Zm12.9,6.2c0,-1.3,-1,-2.3,-2.3,-2.3c-1.3,0,-2.3,1,-2.3,2.3c0,.7,.3,1.4,.9,1.8l-.9,4.9c0,0,0,.1,.1,.2c0,0,.1,0,.1,0l2.1,-.8l2,.8c.1,0,.2,0,.2,0c.1,-.1,.1,-.2,.1,-.2l-.9,-4.9c.5,-.4,.9,-1.1,.9,-1.8m1.8,-20.7H93.6c-.5,0,-1,.2,-1.3,.5l-4.4,4.5c-.4,.3,-.6,.8,-.6,1.3v16.7c0,1,.8,1.8,1.9,1.8h9.1l.3,-1.8h-9c-.2,0,-.4,-.2,-.4,-.5v-16.1h2.7c1,0,1.9,-.8,1.9,-1.8v-2.8h11.5c.2,0,.4,.2,.4,.5v20.2c0,.3,-.2,.5,-.4,.5h-.7l.3,1.8h.8c1,0,1.9,-.8,1.9,-1.8v-21.2c0,-1,-.9,-1.8,-1.9,-1.8m-14.5,8.3h12.5c.1,0,.2,.1,.2,.2v.5c0,.1,-.1,.2,-.2,.2H91.2c-.1,0,-.2,-.1,-.2,-.2v-.5c0,-.1,.1,-.2,.2,-.2m0,1.8h12.5c.1,0,.2,.1,.2,.2v.5c0,.1,-.1,.2,-.2,.2H91.2c-.1,0,-.2,-.1,-.2,-.2v-.5c0,-.1,.1,-.2,.2,-.2m0,1.8h12.5c.1,0,.2,.1,.2,.3v.5c0,.1,-.1,.2,-.2,.2H91.2c-.1,0,-.2,-.1,-.2,-.2v-.5c0,-.2,.1,-.3,.2,-.3Z" class="g3_1"/>
<path d="M109.5,1166.9c0,.4,-.7,.7,-1.6,.7c-.8,0,-1.5,-.3,-1.5,-.7c0,-.4,.7,-.7,1.5,-.7c.9,0,1.6,.3,1.6,.7Z" class="g3_1"/>
<path d="M111.1,1169.9c0,.3,-.5,.5,-1,.5c-.6,0,-1.1,-.2,-1.1,-.5c0,-.2,.5,-.4,1.1,-.4c.5,0,1,.2,1,.4Z" class="g3_1"/>
<path d="M84.9,1166.9c0,.4,.7,.7,1.5,.7c.8,0,1.5,-.3,1.5,-.7c0,-.4,-.7,-.7,-1.5,-.7c-.8,0,-1.5,.3,-1.5,.7Z" class="g3_1"/>
<path d="M83.2,1169.9c0,.3,.5,.5,1.1,.5c.5,0,1,-.2,1,-.5c0,-.2,-.5,-.4,-1,-.4c-.6,0,-1.1,.2,-1.1,.4Z" class="g3_1"/>
</g>
<path d="M538.8,742.9c0,20.1,-16.3,36.3,-36.3,36.3c-20.1,0,-36.3,-16.2,-36.3,-36.3c0,-20,16.2,-36.3,36.3,-36.3c20,0,36.3,16.3,36.3,36.3Z" class="g4_1"/>
<path d="M536.7,739.5c0,20,-16.2,36.3,-36.3,36.3c-20,0,-36.3,-16.3,-36.3,-36.3c0,-20,16.3,-36.3,36.3,-36.3c20.1,0,36.3,16.3,36.3,36.3Z" class="g0_1"/>
<path d="M536.7,739.5c0,20,-16.2,36.3,-36.3,36.3c-20,0,-36.3,-16.3,-36.3,-36.3c0,-20,16.3,-36.3,36.3,-36.3c20.1,0,36.3,16.3,36.3,36.3Z" class="g5_1"/>
<path d="M500.3,735.1l-3.9,-1.2l-3,-5.2c-.4,-.7,-1.1,-1.1,-1.9,-1.1H490l-2.3,4.7l-1.3,-1.8c.3,-.2,.7,-.8,.7,-1.9c0,-.8,-.6,-1,-1.5,-1c-.8,0,-1.5,.2,-1.5,1c0,1.1,.4,1.7,.7,1.9l-1.3,1.8l-2.3,-4.7h-.7c-1,0,-2.1,.5,-2.8,1.4c-.7,.8,-.9,1.6,-.9,3.1v8.2c0,2.1,1.6,5,3.5,5h.9v11.8c0,1.6,1.2,2.9,2.7,2.9h4.9c1.5,0,2.7,-1.3,2.7,-2.9V734.3l1.5,2.5c.2,.5,.7,.9,1.2,1l4.7,1.5c.3,.1,.5,.1,.7,.1c.9,0,1.8,-.6,2.1,-1.5c.4,-1.2,-.3,-2.4,-1.4,-2.8m10.3,-7.5h-1.4c-.8,0,-1.5,.4,-1.9,1.1l-3,5.2l-2,.6c1,1,1.4,2.4,1,3.8c-.1,.2,-.2,.4,-.3,.6l3.4,-1.1c.6,-.1,1,-.5,1.3,-1l1.5,-2.5v22.8c0,1.6,1.2,2.9,2.7,2.9h4.9c1.5,0,2.7,-1.3,2.7,-2.9V745.3h.9c1.9,0,3.5,-1.5,3.5,-3.6v-9.6c0,-1.5,-.3,-2.3,-1,-3.1c-.7,-.9,-1.7,-1.4,-2.7,-1.4h-.7Zm-25,-1.4c2.4,0,4.4,-2,4.4,-4.5c0,-2.4,-2,-4.4,-4.4,-4.4c-2.4,0,-4.4,2,-4.4,4.4c0,2.5,2,4.5,4.4,4.5m29.5,0c-2.5,0,-4.5,-2,-4.5,-4.5c0,-2.4,2,-4.4,4.5,-4.4c2.4,0,4.4,2,4.4,4.4c0,2.5,-2,4.5,-4.4,4.5Z" class="g3_1"/>
<path d="M561.1,267.7H508.6V231.9h52.5v35.8Z" class="g0_1"/>
<path d="M903.9,595l-52.1,-2.9l2,-37.2l52.1,2.8Z" class="g0_1"/>
<path d="M214.8,54.9v49.7" class="g6_1"/>
<image clip-path="url(#c2_1)" preserveAspectRatio="none" x="30" y="20" width="706" height="1000" xlink:href="img/2.jpg"/>
</svg>