<?xml version="1.0" encoding="UTF-8" standalone="no"?>
<!DOCTYPE svg PUBLIC "-//W3C//DTD SVG 1.1//EN"
"http://www.w3.org/Graphics/SVG/1.1/DTD/svg11.dtd">
<svg viewBox="0 0 909 1286" version="1.1" xmlns="http://www.w3.org/2000/svg" xmlns:xlink="http://www.w3.org/1999/xlink">
<defs>
<clipPath id="c0"><path d="M0,1286.2V0H909.4V1286.2Z"/></clipPath>
<style type="text/css"><![CDATA[
.g0{
fill: #273C92;
}
.g1{
fill: #FFFFFF;
}
.g2{
fill: none;
stroke: #273C92;
stroke-width: 1.527;
stroke-linecap: butt;
stroke-linejoin: miter;
}
.g3{
fill: #FFCB05;
}
.g4{
fill: none;
stroke: #FFFFFF;
stroke-width: 1.527;
stroke-linecap: butt;
stroke-linejoin: miter;
}
.g5{
fill: #EA3A4D;
}
.g6{
fill: #45191C;
}
.g7{
fill: #F8A081;
}
.g8{
fill: #45477E;
}
.g9{
fill: #989FAC;
}
.ga{
fill: #F9B08D;
}
.gb{
fill: #302D76;
}
.gc{
fill: #E0E1E0;
}
.gd{
fill: #59B2D9;
}
.ge{
fill: #F5F6F6;
}
.gf{
fill: #F8A57E;
}
.gg{
fill: #343333;
}
.gh{
fill: #010101;
}
.gi{
fill: #FDD838;
}
.gj{
fill: #362C28;
}
.gk{
fill: #F9B893;
}
.gl{
fill: #EFCEB2;
}
.gm{
fill: #FDD4BB;
}
.gn{
fill: #EBC19C;
}
.go{
fill: #707072;
}
.gp{
fill: #3A322E;
}
.gq{
fill: #989898;
}
.gr{
fill: #241F1D;
}
.gs{
fill: #828285;
}
.gt{
fill: #231F20;
}
.gu{
fill: #5B4B43;
}
.gv{
fill: #40352F;
}
.gw{
fill: #7B2843;
}
.gx{
fill: #A95070;
}
.gy{
fill: #F594A5;
}
]]></style>
</defs>
<path d="M0,1286.2H909.4V925.7H0v360.5Z" class="g0"/>
<path d="M838.7,997.6H70.7C31.7,997.6,0,965.9,0,926.9V700.6c0,-39,31.7,-70.7,70.7,-70.7h768c39.1,0,70.7,31.7,70.7,70.7V926.9c0,39,-31.6,70.7,-70.7,70.7Z" class="g1"/>
<path d="M812.2,460H588.1c-21.4,0,-38.8,-17.4,-38.8,-38.8V230c0,-21.4,17.4,-38.8,38.8,-38.8H812.2c21.4,0,38.7,17.4,38.7,38.8V421.2c0,21.4,-17.3,38.8,-38.7,38.8Z" class="g1"/>
<path d="M812.2,460H588.1c-21.4,0,-38.8,-17.4,-38.8,-38.8V230c0,-21.4,17.4,-38.8,38.8,-38.8H812.2c21.4,0,38.7,17.4,38.7,38.8V421.2c0,21.4,-17.3,38.8,-38.7,38.8Z" class="g2"/>
<path d="M414,460H190c-21.5,0,-38.8,-17.4,-38.8,-38.8V230c0,-21.4,17.3,-38.8,38.8,-38.8H414c21.4,0,38.8,17.4,38.8,38.8V421.2c0,21.4,-17.4,38.8,-38.8,38.8Z" class="g1"/>
<path d="M414,460H190c-21.5,0,-38.8,-17.4,-38.8,-38.8V230c0,-21.4,17.3,-38.8,38.8,-38.8H414c21.4,0,38.8,17.4,38.8,38.8V421.2c0,21.4,-17.4,38.8,-38.8,38.8Z" class="g2"/>
<path d="M233.6,975.3H72.7C51.3,975.3,33.9,958,33.9,936.5V636.2c0,-21.4,17.4,-38.7,38.8,-38.7H233.6c21.4,0,38.8,17.3,38.8,38.7V936.5c0,21.5,-17.4,38.8,-38.8,38.8Z" class="g1"/>
<path d="M233.6,975.3H72.7C51.3,975.3,33.9,958,33.9,936.5V636.2c0,-21.4,17.4,-38.7,38.8,-38.7H233.6c21.4,0,38.8,17.3,38.8,38.7V936.5c0,21.5,-17.4,38.8,-38.8,38.8Z" class="g2"/>
<path d="M523.8,971.3H332.1c-21.4,0,-38.8,-17.3,-38.8,-38.7V632.3c0,-21.4,17.4,-38.8,38.8,-38.8H523.8c21.4,0,38.8,17.4,38.8,38.8V932.6c0,21.4,-17.4,38.7,-38.8,38.7Z" class="g1"/>
<path d="M523.8,971.3H332.1c-21.4,0,-38.8,-17.3,-38.8,-38.7V632.3c0,-21.4,17.4,-38.8,38.8,-38.8H523.8c21.4,0,38.8,17.4,38.8,38.8V932.6c0,21.4,-17.4,38.7,-38.8,38.7Z" class="g2"/>
<path d="M814.1,971.3H622.3c-21.4,0,-38.7,-17.3,-38.7,-38.7V632.3c0,-21.4,17.3,-38.8,38.7,-38.8H814.1c21.4,0,38.7,17.4,38.7,38.8V932.6c0,21.4,-17.3,38.7,-38.7,38.7Z" class="g1"/>
<path d="M814.1,971.3H622.3c-21.4,0,-38.7,-17.3,-38.7,-38.7V632.3c0,-21.4,17.3,-38.8,38.7,-38.8H814.1c21.4,0,38.7,17.4,38.7,38.8V932.6c0,21.4,-17.3,38.7,-38.7,38.7Z" class="g2"/>
<path d="M491,160.2H156.2c-12.2,0,-22.1,-9.9,-22.1,-22.1V101.9c0,-12.2,9.9,-22.1,22.1,-22.1H491c12.2,0,22.1,9.9,22.1,22.1v36.2c0,12.2,-9.9,22.1,-22.1,22.1Z" class="g3"/>
<path d="M491,160.2H156.2c-12.2,0,-22.1,-9.9,-22.1,-22.1V101.9c0,-12.2,9.9,-22.1,22.1,-22.1H491c12.2,0,22.1,9.9,22.1,22.1v36.2c0,12.2,-9.9,22.1,-22.1,22.1Z" class="g4"/>
<path d="M671.1,572.9H156.2c-12.2,0,-22.1,-9.9,-22.1,-22.1V514c0,-12.2,9.9,-22,22.1,-22H671.1c12.2,0,22.1,9.8,22.1,22v36.8c0,12.2,-9.9,22.1,-22.1,22.1Z" class="g3"/>
<path d="M671.1,572.9H156.2c-12.2,0,-22.1,-9.9,-22.1,-22.1V514c0,-12.2,9.9,-22,22.1,-22H671.1c12.2,0,22.1,9.8,22.1,22v36.8c0,12.2,-9.9,22.1,-22.1,22.1Zm-647,615.5H887" class="g4"/>
<image x="81" y="190" width="48" height="55" xlink:href="shade/1.png"/>
<path d="M123.3,205.3H87.5c-1,0,-1.7,.8,-1.7,1.7v31.9c0,.9,.7,1.7,1.7,1.7h35.8c.9,0,1.7,-.8,1.7,-1.7V207c0,-.9,-.8,-1.7,-1.7,-1.7Z" class="g1"/>
<image x="117" y="188" width="5" height="12" xlink:href="shade/2.png"/>
<image x="89" y="188" width="4" height="12" xlink:href="shade/3.png"/>
<image x="91" y="235" width="13" height="3" xlink:href="shade/4.png"/>
<image x="106" y="235" width="14" height="3" xlink:href="shade/5.png"/>
<path d="M98.5,223.2v-3.1c0,-.1,0,-.3,0,-.5c0,-.2,.1,-.5,.1,-.7c0,-.3,0,-.5,0,-.8c0,-.3,0,-.6,0,-.8c0,-.3,.1,-.5,.1,-.7c0,-.2,0,-.3,0,-.4h-.1c-.2,.4,-.3,.7,-.5,1.1c-.2,.4,-.4,.8,-.7,1.2l-3.1,4.7Zm6.1,3h-2.3v3.9H98.5v-3.9H90.9v-2.7l7.9,-11.9h3.5v11.6h2.3Z" class="g5"/>
<path d="M112.7,218.3c.8,0,1.5,.1,2.2,.3c.7,.3,1.3,.6,1.8,1.1c.5,.5,.9,1.1,1.2,1.8c.3,.7,.4,1.5,.4,2.4c0,1,-.1,1.9,-.4,2.7c-.4,.8,-.8,1.5,-1.4,2c-.6,.6,-1.4,1,-2.3,1.3c-.9,.3,-1.9,.4,-3.1,.4c-.4,0,-.9,0,-1.4,0c-.4,-.1,-.9,-.1,-1.3,-.2c-.4,-.1,-.8,-.2,-1.2,-.3c-.3,-.1,-.7,-.3,-1,-.5V226c.3,.1,.7,.3,1,.4c.4,.2,.8,.3,1.2,.4c.5,.1,.9,.2,1.3,.3c.4,0,.8,.1,1.2,.1c1.1,0,2,-.3,2.6,-.7c.6,-.5,.9,-1.3,.9,-2.3c0,-.9,-.3,-1.6,-.9,-2.1c-.6,-.4,-1.5,-.7,-2.7,-.7c-.2,0,-.4,0,-.7,.1c-.2,0,-.5,0,-.7,.1c-.2,0,-.5,0,-.7,.1c-.2,0,-.4,.1,-.6,.1l-1.5,-.8l.7,-9.4h9.8v3.3h-6.4l-.3,3.6c.2,0,.6,-.1,.9,-.2c.4,0,.8,0,1.4,0Z" class="g5"/>
<image x="469" y="190" width="48" height="55" xlink:href="shade/6.png"/>
<path d="M510.6,205.3H474.8c-.9,0,-1.7,.8,-1.7,1.7v31.9c0,.9,.8,1.7,1.7,1.7h35.8c.9,0,1.7,-.8,1.7,-1.7V207c0,-.9,-.8,-1.7,-1.7,-1.7Z" class="g1"/>
<image x="505" y="188" width="4" height="12" xlink:href="shade/7.png"/>
<image x="476" y="188" width="5" height="12" xlink:href="shade/8.png"/>
<image x="478" y="235" width="13" height="3" xlink:href="shade/9.png"/>
<image x="494" y="235" width="13" height="3" xlink:href="shade/10.png"/>
<path d="M485.9,223.2v-3.1c0,-.1,0,-.3,0,-.5c0,-.2,0,-.5,0,-.7c0,-.3,0,-.5,0,-.8c0,-.3,.1,-.6,.1,-.8c0,-.3,0,-.5,0,-.7c0,-.2,0,-.3,0,-.4h-.1c-.1,.4,-.3,.7,-.5,1.1c-.2,.4,-.4,.8,-.6,1.2l-3.1,4.7Zm6,3h-2.2v3.9h-3.8v-3.9h-7.7v-2.7l7.9,-11.9h3.6v11.6h2.2Z" class="g5"/>
<path d="M500,218.3c.8,0,1.6,.1,2.3,.3c.6,.3,1.2,.6,1.7,1.1c.6,.5,.9,1.1,1.2,1.8c.3,.7,.5,1.5,.5,2.4c0,1,-.2,1.9,-.5,2.7c-.3,.8,-.8,1.5,-1.4,2c-.6,.6,-1.3,1,-2.2,1.3c-.9,.3,-2,.4,-3.1,.4c-.5,0,-1,0,-1.4,0c-.5,-.1,-.9,-.1,-1.3,-.2c-.5,-.1,-.8,-.2,-1.2,-.3c-.4,-.1,-.7,-.3,-1,-.5V226c.3,.1,.6,.3,1,.4c.4,.2,.8,.3,1.2,.4c.4,.1,.8,.2,1.3,.3c.4,0,.8,.1,1.2,.1c1.1,0,1.9,-.3,2.5,-.7c.6,-.5,.9,-1.3,.9,-2.3c0,-.9,-.3,-1.6,-.8,-2.1c-.6,-.4,-1.5,-.7,-2.7,-.7c-.2,0,-.5,0,-.7,.1c-.3,0,-.5,0,-.8,.1c-.2,0,-.4,0,-.6,.1c-.3,0,-.5,.1,-.6,.1l-1.6,-.8l.7,-9.4h9.8v3.3H498l-.3,3.6c.3,0,.6,-.1,1,-.2c.3,0,.8,0,1.3,0Z" class="g5"/>
<path d="M64.7,442.8l-.5,2.7c0,0,4.4,3,8.9,1.6c4.4,-1.3,3.9,-2.8,3.9,-2.8l-.4,-3.6Z" class="g1"/>
<image x="39" y="428" width="35" height="20" xlink:href="shade/11.png"/>
<path d="M55.5,435.7c3,.1,11.1,-4.1,9.7,-4.5c-3.3,-1,-12.4,2.9,-12.4,2.9c0,0,2.6,0,2.7,1.6Z" class="g1"/>
<path d="M56.5,445.3c.3,-1.6,.2,-2.2,.2,-2.2c-6.1,4.4,-15.6,1.4,-17.1,-.4c.4,1.8,1.6,3.4,4,4.1c6.2,1.7,10.8,.1,12.9,-1.5Z" class="g6"/>
<path d="M62.6,440.9c0,0,11.4,-4.8,10.6,-10c-.2,-.5,-.4,-.8,-.6,-.9c-1.6,5.3,-8.3,8.3,-11.5,10.3Z" class="g6"/>
<path d="M42.3,430.9l-.6,4.9c0,0,1.2,3.4,8.4,3c4.7,-.3,4.4,-2.2,4.4,-2.2l.1,-4.4Z" class="g1"/>
<path d="M74.5,345.1c-.8,7.4,-5.8,50.7,-5.8,50.7L56.3,434.4c0,0,-9.8,4.3,-15.9,-2.6c1.3,-14.3,4.1,-32.3,11.1,-39.5c-3,-15,-3.6,-29.8,-3.6,-29.8c0,0,-9.6,-4.5,-6.2,-18.8c9.9,2.2,32.8,1.4,32.8,1.4Z" class="g3"/>
<path d="M80.2,350.5c.7,7.4,3.9,50.8,3.9,50.8l-5.7,40.1c0,0,-9,5.2,-15.3,.7c-1.4,-14.4,-2.1,-32.6,3.4,-41c-5.8,-14.2,-9.2,-29,-9.2,-29c0,0,-10.6,-3.9,-9.6,-16.9c10.2,.3,32.5,-4.7,32.5,-4.7Z" class="g3"/>
<path d="M38.3,285.7c-.2,4.7,22.9,10,29.9,11.3c1.7,.3,3.5,.2,5.2,-.2l22.7,-8l-.1,-5l-25,3.7c0,0,-32.4,-10.3,-32.7,-1.8Z" class="g7"/>
<path d="M95,283.9l6.9,-3.2l11.6,2.8c0,0,-1.9,5.8,-10.4,3.8c-5,1.2,-7,1.5,-7,1.5Z" class="g7"/>
<path d="M100.2,287.2l-.8,-.9l-2.9,1.9l1.8,1.6l6.1,2.7c0,0,2.2,-2,-4.2,-5.3Z" class="g7"/>
<path d="M92.1,282.7l4.4,-.8c0,0,3.9,4.1,1.2,8.8c-2,.2,-4.2,.7,-4.2,.7Z" class="g1"/>
<path d="M37.1,288.7c-2.1,-3.9,1.3,-8.6,8.1,-8.3c1.5,.1,18.9,4.8,24.3,5.4c4.4,.4,20.9,-4.4,23,-4.1c4.1,3.1,4.2,6.7,2.7,10.8c-1.6,1.3,-18.7,5.2,-24.2,6.3C64.4,300.2,40.5,295,37.1,288.7Z" class="g8"/>
<path d="M62.3,280.1c-6,-2.8,-15.3,-2,-17.9,-.8c-14.2,6.3,-8.2,29.4,-3.7,41.5c6.3,17,-5.3,17.6,-2.8,51.9c4.6,8.8,40.3,11,48.5,-1.2C83.9,347.3,77.8,345.1,78.7,331.1c1.2,-18.3,.7,-28.1,.3,-32.6c-.7,-7.7,-8.6,-14.7,-16.7,-18.4Z" class="g0"/>
<path d="M62.4,280.8C62.5,279,53.8,275.5,50,279c.2,2.4,3.9,5.2,6.7,5.2c2.9,0,5.7,-2.6,5.7,-3.4Z" class="g9"/>
<path d="M52.1,271.4c0,0,-2.2,7.5,-1.1,10.6c1.3,3.6,5.4,4.3,8.1,3.2c4.6,-1.9,1.7,-5.1,2.1,-8.1C62,272,53,268.7,52.1,271.4Z" class="g7"/>
<path d="M58.1,245.7c-8.8,.6,-13.6,4,-14.4,13.1c-.8,8.2,6.2,22,16.9,19.1c5.3,-1.4,12.8,-6.9,9.3,-24.1c-.9,-4.9,-5.7,-8.5,-11.8,-8.1Z" class="ga"/>
<path d="M63.6,266c-4.1,-2.3,-5.8,3.4,.5,5.9c.2,2.8,.1,3.1,.1,3.1c0,0,-10.5,6,-17.9,-1.3C38.8,266.3,37.4,251,50.8,245.8c10.5,-4.1,19,2.2,20.9,9.3c1.4,6.5,-1.4,8.6,-8.1,10.9Z" class="g0"/>
<path d="M50,279c1.1,2.7,7.8,6.7,12.4,1.8c.3,2.7,-.1,3.9,-1.4,4.9c-2,1.5,-8.5,1.1,-10.6,-1.9C48.4,281.1,50,279,50,279Z" class="g1"/>
<image x="62" y="441" width="35" height="15" xlink:href="shade/12.png"/>
<path d="M77.4,443.9c-.1,.4,-.5,.9,-.5,.9c0,0,9.8,-1,11,-1.2c1.2,-.2,1.8,-1,.7,-1.5c-5.1,.3,-11.3,.9,-11.3,.9c0,0,.2,.4,.1,.9Z" class="g1"/>
<path d="M82.4,451.1l1.9,1.1c0,0,12.8,-3.3,12,-9.1c-2.9,5.7,-12.1,7.4,-13.9,8Z" class="g6"/>
<path d="M78.4,451.8c-13.1,3.5,-14.7,1.4,-15.3,.1c.3,1,.8,1.9,1.7,2.6c3.4,2.9,13.6,-1.3,13.6,-1.3Z" class="g6"/>
<path d="M40.7,326v5.1c0,0,2.8,6.8,19.4,6.8c16.6,0,19.8,-4.3,19.8,-4.3v-5.8c0,0,-5.5,4.1,-19.8,4.1C45.9,331.9,40.7,326,40.7,326Z" class="g8"/>
<path d="M68,293.3c-4.1,2.2,2.8,24.8,5.1,31.5c.6,1.7,1.2,2.9,2.7,4.5c1.6,1.6,28.5,6.6,28.5,6.6l-.3,-4.5L82.4,321.2c0,0,-6.8,-31.9,-14.4,-27.9Z" class="ga"/>
<path d="M103.6,330.6l3.1,-4.8c0,0,2.2,1,-1,6c-1.1,-.6,-2.1,-1.2,-2.1,-1.2Z" class="g7"/>
<path d="M103.1,330.9l6.9,-3.1l9.4,2.3c0,0,.3,6.4,-8.2,4.3c-5,1.2,-6.9,1.5,-6.9,1.5Z" class="ga"/>
<path d="M100.7,327.8l4.2,1.4c0,0,1.4,5.5,-3.1,8.3c-1.9,-.8,-4.1,-1.4,-4.1,-1.4Z" class="g1"/>
<path d="M66.4,291c2.5,-3.6,8.2,-2.8,11.1,3.4c.6,1.3,4.4,19,6.3,24.1c1.6,4.1,16.9,7.1,18.4,8.5c1.5,4.9,-.5,7.9,-4.1,10.4c-2,.1,-20,-6.1,-24,-8C68,326.5,62.4,296.9,66.4,291Z" class="g3"/>
<g clip-path="url(#c0)" opacity="0.2">
<path d="M591.4,452.7c0,2.5,-20.8,4.6,-46.4,4.6c-25.7,0,-46.5,-2.1,-46.5,-4.6c0,-2.5,20.8,-4.6,46.5,-4.6c25.6,0,46.4,2.1,46.4,4.6Z" class="gb"/>
</g>
<path d="M490.7,901.3H366.9c-2.9,0,-5.4,-2.5,-5.4,-5.4V839.4c0,-3,2.5,-5.4,5.4,-5.4H490.7c2.9,0,5.4,2.4,5.4,5.4v56.5c0,2.9,-2.5,5.4,-5.4,5.4Z" class="g5"/>
<path d="M427.3,856.7l57.2,-.1v6.8l-57.2,.1Z" class="gc"/>
<path d="M432.3,873.6l47.2,-.1v6.7l-47.1,.1Z" class="gd"/>
<g clip-path="url(#c0)" opacity="0.5">
<image preserveAspectRatio="none" x="373" y="846" width="44" height="45" xlink:href="img/1.png"/>
</g>
<path d="M373.5,866.7c0,-12.1,9.8,-21.9,21.8,-21.9c12,0,21.8,9.8,21.8,21.8c.1,12,-9.7,21.8,-21.7,21.8c-12.1,.1,-21.9,-9.7,-21.9,-21.7Z" class="ge"/>
<path d="M386.6,875.2c0,0,-5.2,.5,-3.8,9.9c.7,.7,1.5,1.2,2.5,1.6l2.9,-9.9Z" class="gf"/>
<path d="M403.4,875.2c0,0,5.2,.4,3.9,9.9c-.7,.7,-1.6,1.2,-2.5,1.6l-2.9,-9.9Z" class="gf"/>
<path d="M386.8,859.7c0,0,-2.5,7.2,-3.8,6.6c0,0,13,11.2,24.5,-.1c-1.4,-2.3,-3.1,-4.5,-5,-6.5Z" class="gg"/>
<path d="M385.5,859.1c0,-5.4,4.3,-9.7,9.6,-9.7c5.4,0,9.7,4.3,9.7,9.6c0,5.4,-4.3,9.7,-9.6,9.7c-5.4,0,-9.7,-4.3,-9.7,-9.6Z" class="gg"/>
<g clip-path="url(#c0)">
<g opacity="0.1">
<path d="M403.3,875.2H386.5l-1.6,6.8c0,0,-.9,3.1,.3,4.5c1.1,1.4,11.9,4.5,19.8,.2c.6,-1.8,.7,-3.8,.2,-5.6c-.9,-3.2,-.2,-.3,-.2,-.3Z" class="gh"/>
</g>
<g opacity="0.1">
<path d="M403.6,875.2H386.7l-1.5,6.8c0,0,-1,3.1,.2,4.5c1.1,1.4,11.9,4.5,19.8,.2c.7,-1.8,.8,-3.8,.2,-5.6c-.9,-3.2,-.2,-.3,-.2,-.3Z" class="gh"/>
</g>
</g>
<path d="M403.4,875.2H386.6L385,882c0,0,-.9,3.1,.3,4.5c1.1,1.4,11.9,4.5,19.8,.2c.6,-1.8,.7,-3.8,.2,-5.6c-.9,-3.2,-.2,-.3,-.2,-.3Z" class="gi"/>
<g clip-path="url(#c0)" opacity="0.1">
<path d="M391.7,869.7l6.8,-.1v6.1c0,1.5,-1.2,2.7,-2.7,2.7h-1.4c-1.4,0,-2.6,-1.2,-2.6,-2.7l-.1,-6Z" class="gh"/>
</g>
<path d="M391.7,869.4h6.8v6.1c0,1.5,-1.2,2.7,-2.7,2.7h-1.4c-1.4,0,-2.6,-1.2,-2.6,-2.7Z" class="gf"/>
<g clip-path="url(#c0)" opacity="0.1">
<path d="M391.8,870.4c2.1,.8,4.5,.8,6.7,0v-.9h-6.7Z" class="gh"/>
</g>
<path d="M385.5,861.2c0,-5.4,4.3,-9.7,9.6,-9.7c5.4,0,9.7,4.3,9.7,9.6c0,5.4,-4.3,9.7,-9.6,9.7c-5.4,0,-9.7,-4.3,-9.7,-9.6Z" class="gf"/>
<path d="M385.9,857.5l18.4,-.1c0,0,-1.6,-7.4,-8.5,-6.9c-7,.5,-9.9,7,-9.9,7Z" class="gg"/>
<path d="M384.8,860.7c0,-.9,.4,-1.6,.9,-1.6c.5,0,.9,.7,.9,1.6c0,1,-.4,1.7,-.9,1.7c-.5,0,-.9,-.7,-.9,-1.7Z" class="gf"/>
<path d="M403.7,860.7c0,-.9,.4,-1.7,.9,-1.7c.5,0,.9,.8,.9,1.7c0,.9,-.4,1.7,-.9,1.7c-.5,0,-.9,-.8,-.9,-1.7Z" class="gf"/>
<g clip-path="url(#c0)" opacity="0.1">
<path d="M385.9,857.7h18.4c0,0,-1.5,-7.4,-8.5,-7c-7,.5,-9.9,7,-9.9,7Z" class="gh"/>
</g>
<path d="M222.2,901H94.1c-3,0,-5.4,-2.4,-5.4,-5.4V838.3c0,-3,2.4,-5.4,5.4,-5.4H222.2c3,0,5.4,2.4,5.4,5.4v57.3c0,3,-2.4,5.4,-5.4,5.4Z" class="g5"/>
<path d="M189.9,881.2H126.4V850.4h63.5ZM179.1,848.6H126.4c-1,0,-1.8,.8,-1.8,1.8v30.8c0,1,.8,1.8,1.8,1.8h63.5c1,0,1.8,-.8,1.8,-1.8V850.4c0,-1,-.8,-1.8,-1.8,-1.8Zm0,0H126.4c-1,0,-1.8,.8,-1.8,1.8v30.8c0,1,.8,1.8,1.8,1.8h63.5c1,0,1.8,-.8,1.8,-1.8V850.4c0,-1,-.8,-1.8,-1.8,-1.8Z" class="gi"/>
<path d="M185.4,861.8v8c-3.2,.7,-5.7,3.2,-6.4,6.4H166c2.6,-2.6,4.2,-6.3,4.2,-10.4c0,-4,-1.6,-7.8,-4.2,-10.3h13c.7,3.1,3.2,5.6,6.4,6.3m-23,15.8c-2.7,1.3,-5.8,1.3,-8.5,0c-4.1,-2,-6.8,-6.6,-6.8,-11.8c0,-5.1,2.7,-9.8,6.8,-11.8c1.4,-.6,2.8,-.9,4.3,-.9c1.4,0,2.8,.3,4.2,.9c4.2,2,6.9,6.7,6.9,11.8c0,5.2,-2.7,9.8,-6.9,11.8m-15.9,-1.4h-9.1c-.8,-3.2,-3.3,-5.7,-6.4,-6.4v-8c3.1,-.7,5.6,-3.2,6.4,-6.3h12.9c-2.6,2.5,-4.2,6.3,-4.2,10.3c0,4.1,1.6,7.8,4.2,10.4Zm23.3,-22.6h-6.2c-.3,-.1,-.5,-.3,-.8,-.4c-3,-1.4,-6.3,-1.4,-9.3,0c-.2,.1,-.5,.3,-.8,.4h-17c0,3.7,-2.9,6.6,-6.6,6.6v11.2c3.7,0,6.6,3,6.6,6.6h17c.3,.2,.6,.3,.8,.4c1.5,.8,3.1,1.1,4.7,1.1c1.6,0,3.1,-.3,4.6,-1.1c.3,-.1,.5,-.2,.8,-.4h17c0,-3.6,2.9,-6.6,6.6,-6.6V860.2c-3.7,0,-6.6,-2.9,-6.6,-6.6h-1.5Z" class="g5"/>
<path d="M161.5,871.2c-.6,.7,-1.3,1.1,-2.2,1.3c-.2,.1,-.4,.3,-.4,.5v1.9h-1.5v-1.8c0,-.2,-.2,-.4,-.4,-.4c-.5,-.1,-1,-.2,-1.4,-.3c-.6,-.2,-1.1,-.4,-1.5,-.7H154l.6,-1.6h.1c.8,.6,2,1,3.1,1c.7,0,1.4,-.3,1.8,-.6c.5,-.4,.7,-.9,.7,-1.5c0,-.3,0,-.6,-.1,-.8c-.1,-.3,-.3,-.5,-.5,-.7c-.4,-.4,-1,-.7,-1.8,-1.1c-.9,-.3,-1.6,-.7,-2.1,-1.1c-.6,-.4,-1.1,-.9,-1.3,-1.4c-.2,-.4,-.3,-.9,-.3,-1.3c0,-.9,.4,-1.8,1,-2.4c.5,-.5,1.2,-.9,2,-1.1c.2,-.1,.4,-.3,.4,-.5v-1.8H159v1.7c0,.2,.2,.4,.5,.4c.9,.1,1.7,.4,2.4,.8l-.6,1.6l-.1,-.1c-.2,-.1,-.5,-.3,-1,-.4c-.5,-.2,-1.1,-.3,-1.7,-.3c-.7,0,-1.3,.2,-1.7,.6c-.4,.3,-.5,.7,-.5,1.2c0,.3,0,.5,.1,.7c.1,.3,.3,.4,.5,.6c.4,.4,1,.7,2,1.1c.9,.4,1.6,.8,2.1,1.2c.6,.5,1,1,1.2,1.6c.1,.4,.2,.8,.2,1.3c0,.9,-.3,1.8,-.9,2.4m.1,-6c-.6,-.5,-1.3,-.9,-2.3,-1.3c-.9,-.4,-1.5,-.7,-1.8,-1c-.2,-.1,-.2,-.2,-.3,-.2c0,-.1,0,-.2,0,-.4c0,-.1,0,-.4,.2,-.6c.2,-.2,.6,-.3,1.1,-.3c.5,0,1,.1,1.4,.2c.4,.2,.7,.3,.9,.4l.5,.3c.1,.1,.3,.1,.4,.1c.1,-.1,.2,-.2,.3,-.3l.9,-2.4c.1,-.3,0,-.5,-.2,-.6l-.4,-.2c-.7,-.4,-1.5,-.7,-2.3,-.8v-1.8c0,-.3,-.2,-.5,-.5,-.5h-2.4c-.3,0,-.5,.2,-.5,.5v2c-.8,.2,-1.6,.7,-2.1,1.3c-.8,.8,-1.2,1.8,-1.2,3c0,.6,.1,1.1,.4,1.6c.3,.7,.8,1.4,1.5,1.9c.6,.4,1.4,.8,2.4,1.2c.8,.3,1.3,.7,1.5,.9c.1,.1,.2,.2,.2,.3c.1,.2,.1,.3,.1,.5c0,.3,-.1,.6,-.3,.8c-.3,.2,-.8,.3,-1.3,.3c-.9,0,-1.9,-.3,-2.6,-.7l-.6,-.4c-.1,-.1,-.2,-.1,-.4,-.1c-.1,.1,-.2,.2,-.3,.3l-.9,2.5c0,.2,0,.4,.2,.5l.3,.3c.5,.3,1.1,.6,1.8,.8c.4,.1,.8,.2,1.2,.2v1.9c0,.2,.2,.4,.4,.4h2.5c.2,0,.4,-.2,.4,-.4v-2.1c1,-.3,1.8,-.8,2.4,-1.5c.7,-.8,1.1,-1.9,1.1,-3c0,-.6,-.1,-1.1,-.3,-1.6c-.2,-.8,-.7,-1.4,-1.4,-2Z" class="g5"/>
<path d="M777.9,901H649.8c-3,0,-5.4,-2.4,-5.4,-5.4V838.3c0,-3,2.4,-5.4,5.4,-5.4H777.9c3,0,5.4,2.4,5.4,5.4v57.3c0,3,-2.4,5.4,-5.4,5.4Z" class="g5"/>
<path d="M730,841.4H697c-2.1,0,-3.8,1.7,-3.8,3.8v43.5c0,2.2,1.7,3.9,3.8,3.9h33c2.1,0,3.8,-1.7,3.8,-3.9V845.2c0,-2.1,-1.7,-3.8,-3.8,-3.8Z" class="gd"/>
<path d="M730.2,890.5H696.8V850.3h33.4v40.2Z" class="g1"/>
<path d="M713.9,856.5H701.1c-.7,0,-1.2,-.6,-1.2,-1.3v-.1c0,-.7,.5,-1.3,1.2,-1.3h12.8c.8,0,1.3,.6,1.3,1.3v.1c0,.7,-.5,1.3,-1.3,1.3Z" class="gi"/>
<path d="M725.5,856.5h-5.2c-.7,0,-1.3,-.6,-1.3,-1.3v-.1c0,-.7,.6,-1.3,1.3,-1.3h5.2c.7,0,1.3,.6,1.3,1.3v.1c0,.7,-.6,1.3,-1.3,1.3Z" class="gi"/>
<path d="M713.9,864.4H701.1c-.7,0,-1.2,-.6,-1.2,-1.3V863c0,-.7,.5,-1.3,1.2,-1.3h12.8c.8,0,1.3,.6,1.3,1.3v.1c0,.7,-.5,1.3,-1.3,1.3Z" class="gi"/>
<path d="M725.5,864.4h-5.2c-.7,0,-1.3,-.6,-1.3,-1.3V863c0,-.7,.6,-1.3,1.3,-1.3h5.2c.7,0,1.3,.6,1.3,1.3v.1c0,.7,-.6,1.3,-1.3,1.3Z" class="gi"/>
<path d="M713.9,872.3H701.1c-.7,0,-1.2,-.6,-1.2,-1.3v-.1c0,-.7,.5,-1.3,1.2,-1.3h12.8c.8,0,1.3,.6,1.3,1.3v.1c0,.7,-.5,1.3,-1.3,1.3Z" class="gi"/>
<path d="M725.5,872.3h-5.2c-.7,0,-1.3,-.6,-1.3,-1.3v-.1c0,-.7,.6,-1.3,1.3,-1.3h5.2c.7,0,1.3,.6,1.3,1.3v.1c0,.7,-.6,1.3,-1.3,1.3Z" class="gi"/>
<path d="M713.9,880.2H701.1c-.7,0,-1.2,-.6,-1.2,-1.3v-.1c0,-.8,.5,-1.3,1.2,-1.3h12.8c.8,0,1.3,.5,1.3,1.3v.1c0,.7,-.5,1.3,-1.3,1.3Z" class="gi"/>
<path d="M725.5,880.2h-5.2c-.7,0,-1.3,-.6,-1.3,-1.3v-.1c0,-.8,.6,-1.3,1.3,-1.3h5.2c.7,0,1.3,.5,1.3,1.3v.1c0,.7,-.6,1.3,-1.3,1.3Z" class="gi"/>
<path d="M713.9,888.1H701.1c-.7,0,-1.2,-.6,-1.2,-1.3v-.2c0,-.7,.5,-1.2,1.2,-1.2h12.8c.8,0,1.3,.5,1.3,1.2v.2c0,.7,-.5,1.3,-1.3,1.3Z" class="gi"/>
<path d="M725.5,888.1h-5.2c-.7,0,-1.3,-.6,-1.3,-1.3v-.2c0,-.7,.6,-1.2,1.3,-1.2h5.2c.7,0,1.3,.5,1.3,1.2v.2c0,.7,-.6,1.3,-1.3,1.3Z" class="gi"/>
<image x="713" y="855" width="3" height="5" xlink:href="shade/13.png"/>
<image x="711" y="850" width="7" height="8" xlink:href="shade/14.png"/>
<image x="713" y="864" width="3" height="5" xlink:href="shade/15.png"/>
<image x="711" y="860" width="7" height="7" xlink:href="shade/16.png"/>
<path d="M528.6,254.3c-.5,.2,-4.8,23.6,1.7,31.4c0,0,10.6,3.1,27.8,-.4l-3.4,-34.4l-12.3,-6Z" class="gj"/>
<path d="M559.6,308.3c.8,-3.6,7.4,-14.8,5.6,-16.1c-2.5,-1.8,-5.6,-2.2,-8.6,-2.5c-1.6,-.1,-3.3,-.3,-4.6,-1.5c-1.3,-1.1,-2.1,-2.8,-2.2,-4.5c0,-.4,.1,-4.4,.6,-4.4c0,0,-3,0,-6,0h-.1c-3,0,-6,0,-6,0c.5,0,.6,4,.6,4.4c-.1,1.5,-.8,3,-1.8,4.1c-.5,.6,-1.2,1,-1.9,1.3c-.8,.4,-1.8,.5,-2.7,.6c-1.5,.3,-3,.7,-4.5,1c-1.3,.4,-2.6,.8,-3.8,1.4c-1,.5,-2.8,2.7,-2.4,3.6c.5,.9,5.8,7.1,7.1,9c.5,.7,1.4,2.8,1.5,3.6Z" class="gk"/>
<path d="M530.7,328c0,0,-3.9,8.7,-4.4,15.3c-.5,7.7,2.8,25.7,3.1,29.9c.3,4.2,1.3,9.1,1,11.5c-.5,5.2,-1.1,10,-.7,15.3c.6,7.8,1.4,15.7,2.2,23.5c0,0,6.3,3.6,6.3,3.1c-.4,-10.5,1.9,-19.9,2.1,-23c.7,-7,.3,-7,.7,-14c.2,-4.6,.2,-6.6,.5,-11.1c.1,-2.4,1.8,-17.4,2.1,-19.7C544,356.4,544,331,544,331Z" class="gl"/>
<path d="M557.3,328.2c0,0,3.8,8.7,4.3,15.3c.6,7.8,-2.8,25.8,-3.1,29.9c-.2,4.2,-1.2,9.1,-1,11.6c.5,5.1,1.1,10,.7,15.2c-.6,7.8,-1.3,15.7,-2.1,23.5c0,0,-6.4,3.6,-6.4,3.1c.4,-10.4,-1.8,-19.8,-2.1,-23c-.7,-7,-.3,-7,-.6,-14c-.3,-4.6,-.3,-6.5,-.5,-11.1c-.2,-2.4,-1.8,-17.4,-2.2,-19.7c-.4,-2.4,-.3,-27.8,-.3,-27.8Z" class="gl"/>
<path d="M559.3,329.3c-.4,-1,-.7,-1.9,-1.1,-2.8c-1,-3.3,-.3,-7,.6,-10.2c.5,-1.6,1,-3.2,1.4,-4.9c.3,-.9,.5,-6.2,-.3,-8.2l4.4,-11.6c0,0,-1.4,-1.1,-6.6,-2c-2.6,-.5,-5.1,5.4,-6.3,9c-.6,1.7,-1.8,3.2,-3.4,4.1l-.2,.1c-2.2,1.2,-4.9,1.1,-7.1,-.1c-1.6,-.9,-2.7,-2.4,-3.3,-4.1c-1.2,-3.6,-3.5,-9.5,-6.2,-9c-4.2,.8,-6.6,1.7,-6.6,1.7l4.5,11.9c-.7,2,-.7,7.3,-.4,8.2c.8,3.2,2,6.2,2.4,9.5c.2,1.6,.1,3.2,-.2,4.8c-.7,3.2,-2.5,6,-3.5,9.1c-.9,3.2,-1.4,6.5,-1.8,9.8c0,.4,-.2,2.8,-.1,2.8c18.3,2.6,36.7,0,37.4,-.4c.2,-.2,0,-2.8,-.1,-3.9c-.2,-2.3,-.5,-4.7,-1.1,-6.9c-.6,-2.4,-1.6,-4.7,-2.4,-6.9Z" class="gh"/>
<path d="M568.2,351.7c0,0,1.4,7.9,.7,10.9c-.8,3.1,-3.3,5.2,-4.3,5.6c-1.1,.5,-1.5,0,-1.5,0c0,0,-.5,.4,-1.1,.1c-.2,0,-.3,-.8,0,-1.2c0,0,-.9,1,-1.4,.6c-.3,-.3,.2,-1.7,.9,-2.9c.4,-.8,.8,-1.5,1.2,-2.3c.5,-1.2,1.1,-2.5,.8,-3.9v-.1c0,0,-.1,0,-.1,0c-.6,0,-.8,.5,-.9,1c-.2,.6,-.4,1.2,-.7,1.8c-.1,.2,-.8,1.4,-1,1c-.5,-.7,-.1,-1.8,.3,-3.6c.4,-1.8,.5,-3.3,.9,-4.4c.4,-1.1,1.5,-2.1,1.6,-3.3c.1,-1.2,4.4,-.5,4.6,.7Z" class="gm"/>
<path d="M566.1,298.5c1.2,2.7,1.4,6.6,1.5,9.5c.3,4.6,-.1,9.1,-.1,13.6c.1,6.2,-.4,10.4,.1,16.5c.4,4.9,.5,8.7,.6,13.6c0,0,-1.3,1.2,-4.6,-.6c0,0,-1.4,-8.3,-2.1,-12.9c-.6,-4.6,-1.4,-9.6,-1.7,-12c-.3,-2.5,-1,-19.2,-1.2,-20.8c-.3,-1.5,5.4,-11.6,7.5,-6.9Z" class="gn"/>
<path d="M563.3,290.7c0,0,2.6,.9,3.5,3.2c.6,1.5,1.6,7.2,1.4,12c-.1,4.8,.9,45.7,.9,45.7c0,0,-3.8,1.4,-6.8,-.4c0,0,-2.7,-19.8,-2.9,-23.1c-.3,-3.2,-.5,-21.3,-.5,-21.3c0,0,1.7,-14.6,4.4,-16.1Z" class="go"/>
<path d="M520.3,351.6c0,0,-1.4,7.8,-.6,10.9c.8,3.1,3.2,5.1,4.3,5.6c1,.4,1.5,0,1.5,0c0,0,.5,.3,1.1,.1c.2,-.1,.2,-.9,0,-1.2c0,0,.9,.9,1.4,.5c.3,-.2,-.3,-1.7,-.9,-2.9c-.4,-.7,-.8,-1.4,-1.2,-2.2c-.6,-1.2,-1.1,-2.5,-.9,-3.9c0,0,0,-.1,.1,-.1h.1c.5,-.1,.8,.5,.9,.9c.2,.7,.4,1.3,.7,1.9c.1,.1,.8,1.3,1,1c.5,-.8,0,-1.9,-.3,-3.6c-.4,-1.8,-.6,-3.3,-1,-4.4c-.4,-1.1,-1.4,-2.2,-1.5,-3.3c-.2,-1.2,-4.5,-.6,-4.7,.7Z" class="gm"/>
<path d="M522.5,298.4c-1.2,2.7,-1.4,6.6,-1.6,9.5c-.2,4.5,.2,9.1,.1,13.6c0,6.2,.5,10.3,0,16.5c-.4,4.9,-.6,8.7,-.7,13.6c0,0,1.4,1.2,4.7,-.7c0,0,1.4,-8.2,2,-12.8c.7,-4.6,1.5,-9.6,1.8,-12.1c.2,-2.4,.9,-19.2,1.2,-20.7c.3,-1.6,-5.4,-11.6,-7.5,-6.9Z" class="gn"/>
<path d="M525.2,290.8c0,0,-2.3,.9,-3.5,3c-.7,1.3,-1.5,7.2,-1.4,12c.2,4.8,-.8,45.7,-.8,45.7c0,0,3.8,1.4,6.8,-.4c0,0,2.6,-19.8,2.9,-23.1c.3,-3.2,.8,-21.7,.8,-21.7c0,0,-2.1,-14,-4.8,-15.5Z" class="go"/>
<path d="M541.5,445.5c-.2,-.4,-.4,-1.2,-.6,-2.2c-.7,-2.7,-1.4,-6.9,-1.5,-7.7c0,-1,0,-2.3,-.1,-3.6c-.1,-1.2,-.4,-1.9,-.4,-2.9c0,-.9,-1.2,-6.2,-1.2,-6.2l-5.8,.6c0,0,0,5.4,0,6c0,.7,-.4,3.1,-.2,5.3c0,0,0,1,.1,1.6c.1,.5,-.2,4.7,-.3,7.2c-.1,.8,-.1,1.5,-.1,1.7c0,1,-1.2,3.3,-.3,4.7c.8,1.3,4.7,4.1,6.4,4c1.8,-.2,4.2,-3.1,4.4,-3.9c.2,-.8,.3,-3.2,-.4,-4.6Z" class="gm"/>
<path d="M541.7,445.4c-.2,-.6,-2.1,-10.2,-2.3,-11.2c-.3,1.6,1.3,10.5,1,11.1c-.7,1.3,-2,1.3,-2.6,1.4c-.9,.1,-1.8,.1,-2.6,-.2c-.8,-.2,-2.6,-.1,-3.1,-1.7c-.5,-1.7,-.2,-4.9,-.3,-5.9c-.1,.8,-.7,6.2,-.7,6.4c-.2,1,-.9,3.4,0,4.8c.8,1.3,4.7,4.1,6.4,3.9c1.8,-.1,4.3,-3.3,4.5,-4.1c.2,-.8,0,-3,-.3,-4.5Z" class="gh"/>
<path d="M546.4,445.7c.2,-.3,.4,-1.1,.7,-2.1c.6,-2.8,1.4,-7,1.4,-7.8c.1,-1,.1,-2.3,.2,-3.6c.1,-1.1,.3,-1.9,.3,-2.9c0,-.9,1.3,-6.1,1.3,-6.1l5.8,.5c0,0,0,5.4,0,6.1c0,.7,.4,3,.1,5.2c0,0,0,1,-.1,1.6c0,.5,.2,4.7,.4,7.2c0,.8,0,1.5,0,1.7c.1,1,1.2,3.4,.4,4.7c-.9,1.3,-4.7,4.1,-6.5,4c-1.7,-.2,-4.2,-3.1,-4.4,-3.9c-.2,-.8,-.2,-3.2,.4,-4.6Z" class="gm"/>
<path d="M546.3,445.7c.1,-.7,2,-10.3,2.3,-11.3c.2,1.6,-1.4,10.6,-1.1,11.1c.7,1.3,2,1.4,2.7,1.5c.8,.1,1.7,0,2.5,-.2c.9,-.3,2.6,-.1,3.1,-1.8c.6,-1.7,.2,-4.9,.4,-5.9c0,.9,.7,6.2,.7,6.4c.1,1,.8,3.4,0,4.8c-.9,1.3,-4.7,4.1,-6.5,4c-1.7,-.2,-4.3,-3.3,-4.5,-4.1c-.2,-.8,0,-3,.4,-4.5Z" class="gh"/>
<path d="M527.2,336.4c-.7,1.8,-1.7,5.5,-1.4,11.4c.3,9.1,4.2,31.3,3.6,37.2c0,0,-.4,6.6,-.2,14.4c.4,11.7,1.6,26.2,2,26.3c1,.2,4.1,1.1,7.6,-.9c.3,-.1,1.9,-20.8,2.1,-22.4c.1,-1,1.1,-15.3,1.2,-16c0,-.5,1.3,-23.4,1.9,-29.5c.6,6.1,1.8,29.2,1.9,29.7c0,.7,1,15,1.1,16c.2,1.6,1.9,22.3,2.2,22.5c3.4,1.9,6.5,1,7.5,.8c.4,0,1.6,-14.6,2,-26.2c.3,-7.9,-.2,-14.5,-.2,-14.5c-.6,-5.9,3.4,-28.1,3.7,-37.1c.2,-6.2,-.8,-10,-1.5,-11.7Z" class="gh"/>
<path d="M557.7,338.9c0,0,-8.4,.6,-13.9,.6c-5.5,0,-13.9,-.6,-13.9,-.6v-3.1c.6,.1,1.3,.1,2,.1c2.7,.1,5.5,.3,8.3,.4c2.8,.1,5.6,.1,8.4,0c2.8,-.1,5.6,-.3,8.4,-.4c.2,-.1,.4,-.1,.6,-.1c0,0,.1,0,.1,0Z" class="gp"/>
<path d="M545.7,339.8H544v-.4h1.7c1,0,1.9,-.7,1.9,-1.5c0,-.8,-.9,-1.5,-1.9,-1.5H544V336h1.7c1.3,0,2.4,.8,2.4,1.9c0,1.1,-1.1,1.9,-2.4,1.9Z" class="gq"/>
<path d="M548.4,338.1h-1.6c-.1,0,-.2,-.1,-.2,-.2c0,-.1,.1,-.2,.2,-.2h1.6c.1,0,.2,.1,.2,.2c0,.1,-.1,.2,-.2,.2Z" class="gq"/>
<path d="M545.9,338c0,.2,-.1,.3,-.3,.3c-.1,0,-.3,-.1,-.3,-.3c0,-.2,.2,-.3,.3,-.3c.2,0,.3,.1,.3,.3Z" class="gr"/>
<path d="M543.8,338c0,.2,-.2,.3,-.3,.3c-.2,0,-.3,-.1,-.3,-.3c0,-.2,.1,-.3,.3,-.3c.1,0,.3,.1,.3,.3Z" class="gr"/>
<path d="M541.7,338c0,.2,-.1,.3,-.3,.3c-.2,0,-.3,-.1,-.3,-.3c0,-.2,.1,-.3,.3,-.3c.2,0,.3,.1,.3,.3Z" class="gr"/>
<path d="M540.1,294.9c-1.2,-3.7,-2.8,-7.4,-2.8,-7.4c0,0,-1.7,.9,-5.5,1.6c-4.3,.7,-6.6,1.7,-6.6,1.7c0,0,3.2,11.8,3.2,11.8c.1,.2,-.2,1,-.3,1.2c-.1,.7,-.2,1.3,-.2,2c-.2,1.3,-.2,2.6,-.1,3.9c.3,2.6,1.3,5,2,7.5c.7,2.6,.9,5.3,.3,7.9c-.8,4,-3,7.5,-4,11.4c-.6,2.4,-1,4.9,-1.1,7.5c-.1,.5,-.3,6.3,.1,6.4c4.3,.6,4.9,.7,8.1,.7c3.2,0,5.7,-2.5,5.9,-5.6l2.8,-25.7c.6,-7.1,.3,-18.1,-1.8,-24.9Z" class="gs"/>
<g clip-path="url(#c0)" opacity="0.6">
<path d="M537.7,285.6c0,0,-3.3,2.3,-3.7,3c-.4,.7,-.5,11.9,-.5,11.9l6.5,-.4l-4.5,4.6l6.6,12.2c0,0,.3,-8.5,-1.4,-17.2c-1.7,-8.6,-3,-14.1,-3,-14.1Z" class="gh"/>
</g>
<path d="M538.1,285c0,0,-3.7,2.8,-4.1,3.5c-.4,.7,.6,10.9,.6,10.9l6,.4l-3.7,4.6l5.2,12.7c0,0,.7,-9.3,-1,-18c-1.7,-8.6,-3,-14.1,-3,-14.1Z" class="gs"/>
<path d="M548.6,294.9c1.2,-3.7,2.8,-7.4,2.8,-7.4c0,0,1.7,.9,5.5,1.6c4.2,.7,6.6,1.7,6.6,1.7c0,0,-3.2,11.8,-3.2,11.8c-.1,.2,.2,1,.3,1.2c.1,.7,.2,1.3,.2,2c.2,1.3,.2,2.6,.1,3.9c-.3,2.6,-1.4,5,-2,7.5c-.7,2.6,-.9,5.3,-.3,7.9c.8,4,3,7.5,4,11.4c.6,2.4,1,4.9,1.1,7.5c.1,.5,.3,6.3,-.1,6.4c-4.3,.6,-4.9,.7,-8.1,.7c-3.2,0,-5.7,-2.5,-5.9,-5.6l-2.8,-25.7c-.6,-7.1,-.3,-18.1,1.8,-24.9Z" class="gs"/>
<g clip-path="url(#c0)" opacity="0.6">
<path d="M551,285.6c0,0,3.3,2.3,3.7,3c.4,.7,.5,11.9,.5,11.9l-6.5,-.4l4.5,4.6l-6.6,12.2c0,0,-.3,-8.5,1.4,-17.2c1.7,-8.6,3,-14.1,3,-14.1Z" class="gh"/>
</g>
<path d="M550.6,285c0,0,3.7,2.8,4.1,3.5c.4,.7,-.6,10.9,-.6,10.9l-6,.4l3.7,4.6l-5.2,12.7c0,0,-.7,-9.3,1,-18c1.7,-8.6,3,-14.1,3,-14.1Z" class="gs"/>
<path d="M537.2,253.1c0,.2,-6.8,4.7,-6,16.4c.9,11.6,4.2,15.5,5.7,17.4c0,0,-5.1,1,-6.9,-.6c-1.9,-1.6,-9.1,-19,-1.7,-32.6c6.2,-11.4,9.9,-11.7,11.6,-10.3Z" class="gt"/>
<path d="M530.8,266.7c0,0,-1.6,-2.1,-2.2,-.4c-.6,1.8,0,4.1,.7,5.2c.8,1.1,2.4,2.8,2.8,2.8c.5,0,.8,-.2,1.3,-.7Z" class="gm"/>
<path d="M531.2,267.8c0,0,-1.1,-1.4,-1.5,-.2c-.4,1.2,0,2.7,.5,3.5c.5,.7,1.6,1.8,1.9,1.8c.3,0,.5,-.1,.8,-.4Z" class="gk"/>
<path d="M532,273.9c-1.1,0,-1.9,.9,-1.9,1.9c0,1.1,.8,2,1.9,2c1.1,0,1.9,-.9,1.9,-2c0,-1,-.8,-1.9,-1.9,-1.9m0,4.4c-1.4,0,-2.4,-1.1,-2.4,-2.5c0,-1.3,1,-2.4,2.4,-2.4c1.3,0,2.4,1.1,2.4,2.4c0,1.4,-1.1,2.5,-2.4,2.5Z" class="gh"/>
<path d="M556.8,266.7c0,0,1.7,-2.1,2.3,-.4c.5,1.8,0,4.1,-.8,5.2c-.8,1.1,-2.3,2.8,-2.8,2.8c-.4,0,-.8,-.2,-1.2,-.7Z" class="gm"/>
<path d="M556.4,267.8c0,0,1.1,-1.4,1.5,-.2c.4,1.2,0,2.7,-.5,3.5c-.5,.7,-1.5,1.8,-1.8,1.8c-.4,0,-.6,-.1,-.9,-.4Z" class="gk"/>
<path d="M559.3,261.4C560.5,250.3,553.6,243,542.9,243c-9.5,0,-14.3,9.8,-13.5,19.5c1.8,20.9,27.9,16,29.9,-1.1Z" class="gt"/>
<path d="M543.8,247.8c7.1,0,12.9,5.6,12.9,14.9c0,6.5,-2.5,14.8,-7.2,18.5c-1.8,1.4,-3.6,3,-5.7,3c-2.1,0,-3.8,-1.6,-5.7,-3c-4.7,-3.7,-7.2,-12,-7.2,-18.5c0,-9.3,5.8,-14.9,12.9,-14.9Z" class="gm"/>
<path d="M543.4,271.5c0,0,-.1,.1,-.2,.3c-.1,.2,-.2,.3,-.3,.4q0,.1,-.1,.2c0,.1,-.1,.1,-.1,.2c0,0,0,.1,0,.2c-.1,0,-.1,.1,-.1,.1q0,.1,0,.2q.1,.1,.1,.2c0,0,0,.1,.1,.1q0,.1,0,.1q.1,.1,.1,.1c0,0,-.1,0,-.1,0q-.1,0,-.2,0c0,-.1,-.1,-.1,-.2,-.1q0,-.1,0,-.1q-.1,-.1,-.1,-.1c-.1,-.1,-.1,-.2,-.2,-.3q0,-.1,0,-.2c0,0,0,-.1,0,-.1c.1,-.1,.1,-.2,.1,-.3c.1,-.1,.1,-.2,.2,-.3c0,-.1,.1,-.1,.2,-.2c.1,-.1,.2,-.2,.4,-.3c.2,-.1,.4,-.1,.4,-.1Z" class="gk"/>
<path d="M540.7,267.9c-1,-1.1,-1.7,-3.6,-4.7,-2.4c-.5,.2,-1.1,.5,-1.6,.9l-.6,.1l.4,.3c.1,.2,1.7,1.4,2.3,1.4c2.4,0,4.2,-.3,4.2,-.3Z" class="gh"/>
<path d="M540.9,268c0,0,-1.7,-4.3,-6.1,-1.2c0,0,.6,.9,1.5,1.4c.7,.4,1.7,.3,3.2,-.1c1,-.2,1.4,-.1,1.4,-.1Z" class="g1"/>
<path d="M538.1,268.4c-.8,.2,-1.6,-.4,-1.7,-1.2c-.2,-.8,.3,-1.6,1.1,-1.7c.9,-.2,1.6,.4,1.8,1.2c.1,.8,-.4,1.6,-1.2,1.7Z" class="gu"/>
<path d="M537.8,267.6c-.3,0,-.6,-.3,-.6,-.7c0,-.3,.3,-.6,.6,-.6c.4,0,.7,.3,.7,.6c0,.4,-.3,.7,-.7,.7Z" class="gh"/>
<path d="M537.2,267.1c-.2,0,-.3,-.2,-.3,-.3c0,-.2,.1,-.3,.3,-.3c.1,0,.2,.1,.2,.3c0,.1,-.1,.3,-.2,.3Z" class="g1"/>
<path d="M538.7,267.6c-.3,0,-.4,-.2,-.4,-.4c0,-.2,.1,-.4,.4,-.4c.2,0,.4,.2,.4,.4c0,.2,-.2,.4,-.4,.4Z" class="g1"/>
<path d="M537.7,264.5c-.2,0,-.4,0,-.6,0c-.4,0,-.8,.1,-1.1,.1c-.3,.1,-.6,.1,-.8,.3c-.4,.1,-.6,.4,-.8,.6c-.1,.2,-.3,.3,-.3,.5c0,0,2,-.6,2.3,-.6c.3,0,2.2,0,3,.7c.7,.7,1.1,1.3,1.1,1.3c0,-.1,-1,-1.9,-1.3,-2.1c-.6,-.6,-.9,-.7,-1.4,-.8c0,0,-.1,.1,-.1,0Z" class="gk"/>
<path d="M533.6,266.5c0,-.1,.1,-.3,.1,-.3c.1,-.4,.4,-.8,.8,-1.1c.3,-.2,.7,-.5,1.1,-.6c.4,-.2,.8,-.2,1.3,-.2c.2,0,.4,.1,.6,.1c.1,0,.2,.1,.4,.1c0,0,.1,.1,.2,.1c-.4,0,-.7,0,-1.1,0c-.3,.1,-.7,.1,-1,.2c-.8,.1,-1.3,.5,-1.8,1.1c-.1,.2,-.1,.5,-.3,.5c-.1,0,-.2,.1,-.3,.1Z" class="gh"/>
<path d="M540.9,268c0,0,-2,-5.3,-7.9,-1.7c0,0,.8,.5,1.7,.5c0,0,1.3,-.9,2.1,-1c.8,-.1,2.5,-.5,4.1,2.2Z" class="gh"/>
<path d="M539.3,263.7c.4,.2,.7,.1,1,-.1c.1,-.2,.3,-.4,.3,-.8c-.1,-.9,-3,-1.8,-4.9,-1.6c-1.9,.3,-4.4,1.5,-4.4,1.5c0,0,3.6,-.4,4.5,-.4c.7,0,2.4,1,3.5,1.4Z" class="gv"/>
<path d="M546.8,267.9c1.1,-1.1,1.7,-3.6,4.7,-2.4c.5,.2,1.1,.5,1.7,.9l.5,.1l-.4,.3c0,.2,-1.6,1.4,-2.2,1.4c-2.5,0,-4.3,-.3,-4.3,-.3Z" class="gh"/>
<path d="M546.7,268c0,0,1.7,-4.3,6,-1.2c0,0,-.5,.9,-1.4,1.4c-.7,.4,-1.8,.3,-3.2,-.1c-1,-.2,-1.4,-.1,-1.4,-.1Z" class="g1"/>
<path d="M549.4,268.4c.8,.2,1.6,-.4,1.8,-1.2c.1,-.8,-.4,-1.6,-1.2,-1.7c-.8,-.2,-1.6,.4,-1.8,1.2c-.1,.8,.4,1.6,1.2,1.7Z" class="gu"/>
<path d="M549.7,267.6c.4,0,.7,-.3,.7,-.7c0,-.3,-.3,-.6,-.7,-.6c-.3,0,-.6,.3,-.6,.6c0,.4,.3,.7,.6,.7Z" class="gh"/>
<path d="M550.4,267.1c.1,0,.2,-.2,.2,-.3c0,-.2,-.1,-.3,-.2,-.3c-.2,0,-.3,.1,-.3,.3c0,.1,.1,.3,.3,.3Z" class="g1"/>
<path d="M548.9,267.6c.2,0,.4,-.2,.4,-.4c0,-.2,-.2,-.4,-.4,-.4c-.2,0,-.4,.2,-.4,.4c0,.2,.2,.4,.4,.4Z" class="g1"/>
<path d="M549.8,264.5c.2,0,.4,0,.6,0c.4,0,.8,.1,1.2,.1c.2,.1,.5,.1,.8,.3c.3,.1,.5,.4,.8,.6c.1,.2,.2,.3,.3,.5c0,0,-2.1,-.6,-2.4,-.6c-.3,0,-2.1,0,-2.9,.7c-.8,.7,-1.2,1.3,-1.2,1.3c0,-.1,1.1,-1.9,1.4,-2.1c.5,-.6,.9,-.7,1.3,-.8c.1,0,.1,.1,.1,0Z" class="gk"/>
<path d="M553.9,266.5c0,-.1,0,-.3,0,-.3c-.2,-.4,-.5,-.8,-.8,-1.1c-.3,-.2,-.7,-.5,-1.1,-.6h-.1c-.4,-.2,-.8,-.2,-1.2,-.2c-.3,0,-.5,.1,-.7,.1c-.1,0,-.2,.1,-.3,.1c-.1,0,-.2,.1,-.2,.1c.3,0,.7,0,1,0c.4,.1,.7,.1,1.1,.2c.7,.1,1.3,.5,1.7,1.1c.1,.2,.1,.5,.4,.5c.1,0,.1,.1,.2,.1Z" class="gh"/>
<path d="M546.7,268c0,0,2,-5.3,7.8,-1.7c0,0,-.7,.5,-1.6,.5c0,0,-1.3,-.9,-2.1,-1c-.8,-.1,-2.6,-.5,-4.1,2.2Z" class="gh"/>
<path d="M548.2,263.7c-.3,.2,-.7,.1,-.9,-.1c-.2,-.2,-.3,-.4,-.3,-.8c0,-.9,2.9,-1.8,4.8,-1.6c1.9,.3,4.4,1.5,4.4,1.5c0,0,-3.6,-.4,-4.4,-.4c-.8,0,-2.5,1,-3.6,1.4Z" class="gv"/>
<path d="M540.7,248.2c0,0,-.9,5.4,-3.8,9.4c-3.5,4.8,-6.5,3.7,-7.3,7.8c0,0,-4.1,-18.3,11.1,-17.2Z" class="gt"/>
<path d="M544.4,251.7c-.1,.1,-.2,.1,-.3,.1c-1.4,0,-3,.3,-4.3,-.3c.4,-1,1.9,-1.6,2.8,-1.9c1.6,-.5,3.4,-.5,4.9,.2c3.3,1.5,3.6,5.5,3.6,5.5c0,-.2,-.3,-.5,-.4,-.6c-.4,-.6,-.9,-1.1,-1.4,-1.5c-1.4,-1.1,-3.1,-1.5,-4.9,-1.5Z" class="gt"/>
<path d="M539.4,243.3c0,-.1,.1,-.2,.1,-.3c.4,-1.2,1.5,-1.5,2.6,-1.6c3.3,-.4,6.7,.3,9.5,2.1c2.7,1.7,4.6,4.3,6.2,7c4.6,7.7,7.6,17.7,6.2,26.8c-.3,1.7,-.7,3.3,-1.4,4.9c-.4,1.1,-1.1,2.9,-2,3.6c0,0,-5.4,3.9,-10.9,1.4c.2,.1,1.2,-1.3,1.3,-1.4c1.1,-1.4,1.8,-3.1,2.4,-4.8c2,-6.5,1,-13.8,-.6,-20.3c-1,-4.2,-3.3,-12.3,-9.3,-11c-1.3,.3,-2.6,1,-3.7,1.8c0,0,-.4,-8.2,-.4,-8.2Z" class="gt"/>
<path d="M540.4,319.6c0,.8,-.7,1.5,-1.6,1.5c-.8,0,-1.5,-.7,-1.5,-1.5c0,-.9,.7,-1.6,1.5,-1.6c.9,0,1.6,.7,1.6,1.6Z" class="gh"/>
<path d="M539.3,327.7c0,.8,-.6,1.5,-1.5,1.5c-.8,0,-1.5,-.7,-1.5,-1.5c0,-.8,.7,-1.5,1.5,-1.5c.9,0,1.5,.7,1.5,1.5Z" class="gh"/>
<path d="M538.3,335.8c0,.9,-.6,1.6,-1.5,1.6c-.8,0,-1.5,-.7,-1.5,-1.6c0,-.8,.7,-1.5,1.5,-1.5c.9,0,1.5,.7,1.5,1.5Z" class="gh"/>
<path d="M548.1,319.6c0,.8,.7,1.5,1.5,1.5c.9,0,1.5,-.7,1.5,-1.5c0,-.9,-.6,-1.6,-1.5,-1.6c-.8,0,-1.5,.7,-1.5,1.6Z" class="gh"/>
<path d="M549.1,327.7c0,.8,.7,1.5,1.5,1.5c.9,0,1.6,-.7,1.6,-1.5c0,-.8,-.7,-1.5,-1.6,-1.5c-.8,0,-1.5,.7,-1.5,1.5Z" class="gh"/>
<path d="M550.1,335.8c0,.9,.7,1.6,1.5,1.6c.9,0,1.6,-.7,1.6,-1.6c0,-.8,-.7,-1.5,-1.6,-1.5c-.8,0,-1.5,.7,-1.5,1.5Z" class="gh"/>
<path d="M545,280.7c0,0,-.2,0,-.4,0c-.2,0,-.3,0,-.4,0c-.2,0,-.3,0,-.5,0c-.2,0,-.3,0,-.5,0c0,0,-.1,0,-.2,0c0,0,-.1,0,-.2,0c0,0,-.1,0,-.1,0q-.1,0,-.2,0c0,0,-.1,0,-.1,0l.1,.1c0,0,.1,.1,.3,.2c0,0,.1,.1,.1,.1c.1,0,.2,0,.3,.1c.1,0,.3,0,.5,0c.4,0,.7,-.1,1,-.2c.2,-.2,.3,-.3,.3,-.3Z" class="gk"/>
<path d="M543.8,276.2c-3.5,.1,-5.9,-.9,-5.9,-.9c2.1,3.6,4.1,4.7,5.9,4.6c1.8,.1,3.9,-1,5.9,-4.6c0,0,-2.4,1,-5.9,.9Z" class="gw"/>
<path d="M539.9,277.8c0,0,3.7,-1.4,7.8,-.2c0,0,-2.1,2,-3.2,2c-1.1,.1,-2.4,-.1,-2.9,-.3c-.5,-.3,-1.2,-.6,-1.7,-1.5Z" class="gx"/>
<path d="M539.2,275.8c0,0,1.4,2.6,4.6,2.3c3.3,-.2,4.2,-1.5,5,-2.5c0,0,-3.7,.6,-5,.6c-1.2,.1,-4.6,-.4,-4.6,-.4Z" class="g1"/>
<path d="M538.5,276.2c0,0,.6,.6,1.5,1.4c.5,.4,1.1,.8,1.7,1.1c.3,.1,.7,.2,1,.3c.4,.1,.7,.2,1.1,.1c.4,.1,.7,0,1.1,-.1c.3,-.1,.7,-.2,1,-.4c.3,-.1,.6,-.3,.9,-.5c.3,-.2,.5,-.4,.8,-.6c.5,-.3,.9,-.7,1.1,-.9c.3,-.2,.5,-.4,.5,-.4c0,0,-.1,.2,-.3,.5c-.1,.2,-.2,.4,-.4,.6c-.1,.2,-.3,.5,-.5,.7c-.2,.3,-.4,.5,-.7,.8c-.3,.2,-.6,.5,-.9,.7c-.4,.2,-.8,.4,-1.2,.5c-.5,.2,-.9,.3,-1.4,.3c-.5,0,-.9,-.1,-1.4,-.2c-.4,-.2,-.8,-.4,-1.2,-.6c-.3,-.2,-.6,-.4,-.9,-.7c-.3,-.2,-.5,-.5,-.7,-.8c-.4,-.5,-.7,-.9,-.9,-1.2c-.2,-.4,-.2,-.6,-.2,-.6Z" class="gy"/>
<path d="M537.9,275.3c0,0,.8,.1,1.9,.2c.5,0,1.2,.1,1.9,.1c.3,0,.7,0,1,0c.4,.1,.7,.1,1.1,.1c.4,0,.7,-.1,1.1,-.1c.4,0,.7,0,1.1,0c.3,0,.6,-.1,.9,-.1c.4,0,.7,0,.9,0c.3,-.1,.6,-.1,.8,-.1c.2,0,.4,-.1,.6,-.1c.3,0,.5,0,.5,0c0,0,-.1,.1,-.4,.2c-.3,.2,-.8,.4,-1.3,.6c-.3,.1,-.6,.2,-.9,.3c-.3,0,-.7,.1,-1,.2c-.4,0,-.8,.1,-1.1,.1c-.4,0,-.8,.1,-1.2,.1c-.4,0,-.8,0,-1.1,-.1c-.4,0,-.8,-.1,-1.1,-.1c-.4,-.1,-.7,-.1,-1.1,-.2c-.3,-.1,-.6,-.2,-.8,-.3c-1.1,-.3,-1.8,-.8,-1.8,-.8Z" class="gy"/>
</svg>